<?xml version="1.0" encoding="UTF-8" standalone="no"?><svg xmlns="http://www.w3.org/2000/svg" xmlns:xlink="http://www.w3.org/1999/xlink" clip-rule="evenodd" stroke-miterlimit="4.00" viewBox="0 0 1024 768"><desc>SVG generated by Keynote</desc><defs></defs><g transform="matrix(1.00, 0.00, -0.00, -1.00, 0.0, 768.0)"><g><clipPath id="clip-2114"><path d="M 0.0 768.0 L 1024.0 768.0 L 1024.0 0.0 L 0.0 0.0 Z M 0.0 768.0 "></path></clipPath><g clip-path="url(#clip-2114)"><image xlink:href="../../D64B4BA4-DFE2-4353-AFBC-0E9752749D8B/assets/E7ABA782A15EA3475B4CFCC80A2FEB63.jpeg" width="1024.00" height="768.00" transform="matrix(1.00, 0.00, -0.00, -1.00, 0.0, 768.0)"></image></g></g><text xml:space="preserve" font-family="GillSans" font-size="84.0" fill="#FEFFFF" transform="matrix(1.00, 0.00, -0.00, -1.00, 209.0, 623.0)">M</text><text xml:space="preserve" font-family="GillSans" font-size="84.0" fill="#FEFFFF" transform="matrix(1.00, 0.00, -0.00, -1.00, 274.6, 623.0)">o</text><text xml:space="preserve" font-family="GillSans" font-size="84.0" fill="#FEFFFF" transform="matrix(1.00, 0.00, -0.00, -1.00, 320.9, 623.0)">r</text><text xml:space="preserve" font-family="GillSans" font-size="84.0" fill="#FEFFFF" transform="matrix(1.00, 0.00, -0.00, -1.00, 352.5, 623.0)">e</text><text xml:space="preserve" font-family="GillSans" font-size="84.0" fill="#FEFFFF" transform="matrix(1.00, 0.00, -0.00, -1.00, 392.7, 623.0)"> </text><text xml:space="preserve" font-family="GillSans" font-size="84.0" fill="#FEFFFF" transform="matrix(1.00, 0.00, -0.00, -1.00, 416.0, 623.0)">I</text><text xml:space="preserve" font-family="GillSans" font-size="84.0" fill="#FEFFFF" transform="matrix(1.00, 0.00, -0.00, -1.00, 437.0, 623.0)">n</text><text xml:space="preserve" font-family="GillSans" font-size="84.0" fill="#FEFFFF" transform="matrix(1.00, 0.00, -0.00, -1.00, 479.0, 623.0)">f</text><text xml:space="preserve" font-family="GillSans" font-size="84.0" fill="#FEFFFF" transform="matrix(1.00, 0.00, -0.00, -1.00, 499.2, 623.0)">o</text><text xml:space="preserve" font-family="GillSans" font-size="84.0" fill="#FEFFFF" transform="matrix(1.00, 0.00, -0.00, -1.00, 545.5, 623.0)">r</text><text xml:space="preserve" font-family="GillSans" font-size="84.0" fill="#FEFFFF" transform="matrix(1.00, 0.00, -0.00, -1.00, 578.8, 623.0)">m</text><text xml:space="preserve" font-family="GillSans" font-size="84.0" fill="#FEFFFF" transform="matrix(1.00, 0.00, -0.00, -1.00, 643.6, 623.0)">a</text><text xml:space="preserve" font-family="GillSans" font-size="84.0" fill="#FEFFFF" transform="matrix(1.00, 0.00, -0.00, -1.00, 679.4, 623.0)">t</text><text xml:space="preserve" font-family="GillSans" font-size="84.0" fill="#FEFFFF" transform="matrix(1.00, 0.00, -0.00, -1.00, 707.4, 623.0)">i</text><text xml:space="preserve" font-family="GillSans" font-size="84.0" fill="#FEFFFF" transform="matrix(1.00, 0.00, -0.00, -1.00, 725.8, 623.0)">o</text><text xml:space="preserve" font-family="GillSans" font-size="84.0" fill="#FEFFFF" transform="matrix(1.00, 0.00, -0.00, -1.00, 772.1, 623.0)">n</text><text xml:space="preserve" font-family="GillSans" font-size="42.0" fill="#FEFFFF" transform="matrix(1.00, 0.00, -0.00, -1.00, 167.0, 379.0)">G</text><text xml:space="preserve" font-family="GillSans" font-size="42.0" fill="#FEFFFF" transform="matrix(1.00, 0.00, -0.00, -1.00, 198.1, 379.0)">i</text><text xml:space="preserve" font-family="GillSans" font-size="42.0" fill="#FEFFFF" transform="matrix(1.00, 0.00, -0.00, -1.00, 207.3, 379.0)">t</text><text xml:space="preserve" font-family="GillSans" font-size="42.0" fill="#FEFFFF" transform="matrix(1.00, 0.00, -0.00, -1.00, 221.3, 379.0)">H</text><text xml:space="preserve" font-family="GillSans" font-size="42.0" fill="#FEFFFF" transform="matrix(1.00, 0.00, -0.00, -1.00, 251.9, 379.0)">u</text><text xml:space="preserve" font-family="GillSans" font-size="42.0" fill="#FEFFFF" transform="matrix(1.00, 0.00, -0.00, -1.00, 272.9, 379.0)">b</text><g><clipPath id="clip-2115"><path d="M 165.7 374.2 L 293.6 374.2 L 293.6 378.2 L 165.7 378.2 Z M 165.7 374.2 "></path></clipPath><g clip-path="url(#clip-2115)"><path d="M 4.0 46.5 L 130.9 46.5 " fill="none" stroke="#FEFFFF" stroke-width="2.09" stroke-miterlimit="0.00" transform="matrix(1.00, 0.00, 0.00, -1.00, 162.7, 422.7)"></path></g></g><text xml:space="preserve" font-family="GillSans" font-size="42.0" fill="#FEFFFF" transform="matrix(1.00, 0.00, -0.00, -1.00, 106.0, 446.0)">w</text><text xml:space="preserve" font-family="GillSans" font-size="42.0" fill="#FEFFFF" transform="matrix(1.00, 0.00, -0.00, -1.00, 136.2, 446.0)">3</text><text xml:space="preserve" font-family="GillSans" font-size="42.0" fill="#FEFFFF" transform="matrix(1.00, 0.00, -0.00, -1.00, 157.2, 446.0)">c</text><g><clipPath id="clip-2116"><path d="M 104.8 440.5 L 175.4 440.5 L 175.4 444.6 L 104.8 444.6 Z M 104.8 440.5 "></path></clipPath><g clip-path="url(#clip-2116)"><path d="M 4.0 46.5 L 73.6 46.5 " fill="none" stroke="#FEFFFF" stroke-width="2.09" stroke-miterlimit="0.00" transform="matrix(1.00, 0.00, 0.00, -1.00, 101.8, 489.0)"></path></g></g><text xml:space="preserve" font-family="GillSans" font-size="42.0" fill="#FEFFFF" transform="matrix(1.00, 0.00, -0.00, -1.00, 102.0, 213.0)">G</text><text xml:space="preserve" font-family="GillSans" font-size="42.0" fill="#FEFFFF" transform="matrix(1.00, 0.00, -0.00, -1.00, 133.1, 213.0)">r</text><text xml:space="preserve" font-family="GillSans" font-size="42.0" fill="#FEFFFF" transform="matrix(1.00, 0.00, -0.00, -1.00, 148.9, 213.0)">e</text><text xml:space="preserve" font-family="GillSans" font-size="42.0" fill="#FEFFFF" transform="matrix(1.00, 0.00, -0.00, -1.00, 169.0, 213.0)">g</text><text xml:space="preserve" font-family="GillSans" font-size="42.0" fill="#FEFFFF" transform="matrix(1.00, 0.00, -0.00, -1.00, 186.9, 213.0)">g</text><text xml:space="preserve" font-family="GillSans" font-size="42.0" fill="#FEFFFF" transform="matrix(1.00, 0.00, -0.00, -1.00, 204.8, 213.0)"> </text><text xml:space="preserve" font-family="GillSans" font-size="42.0" fill="#FEFFFF" transform="matrix(1.00, 0.00, -0.00, -1.00, 216.5, 213.0)">K</text><text xml:space="preserve" font-family="GillSans" font-size="42.0" fill="#FEFFFF" transform="matrix(1.00, 0.00, -0.00, -1.00, 241.5, 213.0)">e</text><text xml:space="preserve" font-family="GillSans" font-size="42.0" fill="#FEFFFF" transform="matrix(1.00, 0.00, -0.00, -1.00, 261.6, 213.0)">l</text><text xml:space="preserve" font-family="GillSans" font-size="42.0" fill="#FEFFFF" transform="matrix(1.00, 0.00, -0.00, -1.00, 270.8, 213.0)">l</text><text xml:space="preserve" font-family="GillSans" font-size="42.0" fill="#FEFFFF" transform="matrix(1.00, 0.00, -0.00, -1.00, 280.1, 213.0)">o</text><text xml:space="preserve" font-family="GillSans" font-size="42.0" fill="#FEFFFF" transform="matrix(1.00, 0.00, -0.00, -1.00, 303.2, 213.0)">g</text><text xml:space="preserve" font-family="GillSans" font-size="42.0" fill="#FEFFFF" transform="matrix(1.00, 0.00, -0.00, -1.00, 321.1, 213.0)">g</text><text xml:space="preserve" font-family="GillSans" font-size="24.0" fill="#FEFFFF" transform="matrix(1.00, 0.00, -0.00, -1.00, 102.0, 46.0)">@</text><text xml:space="preserve" font-family="GillSans" font-size="24.0" fill="#FEFFFF" transform="matrix(1.00, 0.00, -0.00, -1.00, 126.2, 46.0)">g</text><text xml:space="preserve" font-family="GillSans" font-size="24.0" fill="#FEFFFF" transform="matrix(1.00, 0.00, -0.00, -1.00, 136.5, 46.0)">k</text><text xml:space="preserve" font-family="GillSans" font-size="24.0" fill="#FEFFFF" transform="matrix(1.00, 0.00, -0.00, -1.00, 147.2, 46.0)">e</text><text xml:space="preserve" font-family="GillSans" font-size="24.0" fill="#FEFFFF" transform="matrix(1.00, 0.00, -0.00, -1.00, 158.7, 46.0)">l</text><text xml:space="preserve" font-family="GillSans" font-size="24.0" fill="#FEFFFF" transform="matrix(1.00, 0.00, -0.00, -1.00, 164.0, 46.0)">l</text><text xml:space="preserve" font-family="GillSans" font-size="24.0" fill="#FEFFFF" transform="matrix(1.00, 0.00, -0.00, -1.00, 169.3, 46.0)">o</text><text xml:space="preserve" font-family="GillSans" font-size="24.0" fill="#FEFFFF" transform="matrix(1.00, 0.00, -0.00, -1.00, 182.5, 46.0)">g</text><text xml:space="preserve" font-family="GillSans" font-size="24.0" fill="#FEFFFF" transform="matrix(1.00, 0.00, -0.00, -1.00, 192.8, 46.0)">g</text><text xml:space="preserve" font-family="GillSans" font-size="24.0" fill="#FEFFFF" transform="matrix(1.00, 0.00, -0.00, -1.00, 102.0, 162.0)">g</text><text xml:space="preserve" font-family="GillSans" font-size="24.0" fill="#FEFFFF" transform="matrix(1.00, 0.00, -0.00, -1.00, 112.2, 162.0)">r</text><text xml:space="preserve" font-family="GillSans" font-size="24.0" fill="#FEFFFF" transform="matrix(1.00, 0.00, -0.00, -1.00, 121.3, 162.0)">e</text><text xml:space="preserve" font-family="GillSans" font-size="24.0" fill="#FEFFFF" transform="matrix(1.00, 0.00, -0.00, -1.00, 132.8, 162.0)">g</text><text xml:space="preserve" font-family="GillSans" font-size="24.0" fill="#FEFFFF" transform="matrix(1.00, 0.00, -0.00, -1.00, 143.0, 162.0)">g</text><text xml:space="preserve" font-family="GillSans" font-size="24.0" fill="#FEFFFF" transform="matrix(1.00, 0.00, -0.00, -1.00, 153.2, 162.0)">@</text><text xml:space="preserve" font-family="GillSans" font-size="24.0" fill="#FEFFFF" transform="matrix(1.00, 0.00, -0.00, -1.00, 177.5, 162.0)">g</text><text xml:space="preserve" font-family="GillSans" font-size="24.0" fill="#FEFFFF" transform="matrix(1.00, 0.00, -0.00, -1.00, 187.7, 162.0)">r</text><text xml:space="preserve" font-family="GillSans" font-size="24.0" fill="#FEFFFF" transform="matrix(1.00, 0.00, -0.00, -1.00, 196.7, 162.0)">e</text><text xml:space="preserve" font-family="GillSans" font-size="24.0" fill="#FEFFFF" transform="matrix(1.00, 0.00, -0.00, -1.00, 208.2, 162.0)">g</text><text xml:space="preserve" font-family="GillSans" font-size="24.0" fill="#FEFFFF" transform="matrix(1.00, 0.00, -0.00, -1.00, 218.5, 162.0)">g</text><text xml:space="preserve" font-family="GillSans" font-size="24.0" fill="#FEFFFF" transform="matrix(1.00, 0.00, -0.00, -1.00, 228.7, 162.0)">k</text><text xml:space="preserve" font-family="GillSans" font-size="24.0" fill="#FEFFFF" transform="matrix(1.00, 0.00, -0.00, -1.00, 239.5, 162.0)">e</text><text xml:space="preserve" font-family="GillSans" font-size="24.0" fill="#FEFFFF" transform="matrix(1.00, 0.00, -0.00, -1.00, 251.0, 162.0)">l</text><text xml:space="preserve" font-family="GillSans" font-size="24.0" fill="#FEFFFF" transform="matrix(1.00, 0.00, -0.00, -1.00, 256.2, 162.0)">l</text><text xml:space="preserve" font-family="GillSans" font-size="24.0" fill="#FEFFFF" transform="matrix(1.00, 0.00, -0.00, -1.00, 261.5, 162.0)">o</text><text xml:space="preserve" font-family="GillSans" font-size="24.0" fill="#FEFFFF" transform="matrix(1.00, 0.00, -0.00, -1.00, 274.7, 162.0)">g</text><text xml:space="preserve" font-family="GillSans" font-size="24.0" fill="#FEFFFF" transform="matrix(1.00, 0.00, -0.00, -1.00, 285.0, 162.0)">g</text><text xml:space="preserve" font-family="GillSans" font-size="24.0" fill="#FEFFFF" transform="matrix(1.00, 0.00, -0.00, -1.00, 295.2, 162.0)">.</text><text xml:space="preserve" font-family="GillSans" font-size="24.0" fill="#FEFFFF" transform="matrix(1.00, 0.00, -0.00, -1.00, 300.5, 162.0)">n</text><text xml:space="preserve" font-family="GillSans" font-size="24.0" fill="#FEFFFF" transform="matrix(1.00, 0.00, -0.00, -1.00, 312.5, 162.0)">e</text><text xml:space="preserve" font-family="GillSans" font-size="24.0" fill="#FEFFFF" transform="matrix(1.00, 0.00, -0.00, -1.00, 324.0, 162.0)">t</text><g><clipPath id="clip-2117"><path d="M 100.6 158.6 L 331.6 158.6 L 331.6 161.8 L 100.6 161.8 Z M 100.6 158.6 "></path></clipPath><g clip-path="url(#clip-2117)"><path d="M 4.5 28.3 L 234.5 28.3 " fill="none" stroke="#FEFFFF" stroke-width="1.20" stroke-miterlimit="0.00" transform="matrix(1.00, 0.00, 0.00, -1.00, 97.1, 188.5)"></path></g></g><text xml:space="preserve" font-family="GillSans" font-size="24.0" fill="#FEFFFF" transform="matrix(1.00, 0.00, -0.00, -1.00, 102.0, 130.0)">h</text><text xml:space="preserve" font-family="GillSans" font-size="24.0" fill="#FEFFFF" transform="matrix(1.00, 0.00, -0.00, -1.00, 114.0, 130.0)">t</text><text xml:space="preserve" font-family="GillSans" font-size="24.0" fill="#FEFFFF" transform="matrix(1.00, 0.00, -0.00, -1.00, 122.0, 130.0)">t</text><text xml:space="preserve" font-family="GillSans" font-size="24.0" fill="#FEFFFF" transform="matrix(1.00, 0.00, -0.00, -1.00, 130.0, 130.0)">p</text><text xml:space="preserve" font-family="GillSans" font-size="24.0" fill="#FEFFFF" transform="matrix(1.00, 0.00, -0.00, -1.00, 142.0, 130.0)">:</text><text xml:space="preserve" font-family="GillSans" font-size="24.0" fill="#FEFFFF" transform="matrix(1.00, 0.00, -0.00, -1.00, 147.3, 130.0)">/</text><text xml:space="preserve" font-family="GillSans" font-size="24.0" fill="#FEFFFF" transform="matrix(1.00, 0.00, -0.00, -1.00, 154.0, 130.0)">/</text><text xml:space="preserve" font-family="GillSans" font-size="24.0" fill="#FEFFFF" transform="matrix(1.00, 0.00, -0.00, -1.00, 160.7, 130.0)">g</text><text xml:space="preserve" font-family="GillSans" font-size="24.0" fill="#FEFFFF" transform="matrix(1.00, 0.00, -0.00, -1.00, 171.0, 130.0)">r</text><text xml:space="preserve" font-family="GillSans" font-size="24.0" fill="#FEFFFF" transform="matrix(1.00, 0.00, -0.00, -1.00, 180.0, 130.0)">e</text><text xml:space="preserve" font-family="GillSans" font-size="24.0" fill="#FEFFFF" transform="matrix(1.00, 0.00, -0.00, -1.00, 191.5, 130.0)">g</text><text xml:space="preserve" font-family="GillSans" font-size="24.0" fill="#FEFFFF" transform="matrix(1.00, 0.00, -0.00, -1.00, 201.7, 130.0)">g</text><text xml:space="preserve" font-family="GillSans" font-size="24.0" fill="#FEFFFF" transform="matrix(1.00, 0.00, -0.00, -1.00, 212.0, 130.0)">k</text><text xml:space="preserve" font-family="GillSans" font-size="24.0" fill="#FEFFFF" transform="matrix(1.00, 0.00, -0.00, -1.00, 222.7, 130.0)">e</text><text xml:space="preserve" font-family="GillSans" font-size="24.0" fill="#FEFFFF" transform="matrix(1.00, 0.00, -0.00, -1.00, 234.2, 130.0)">l</text><text xml:space="preserve" font-family="GillSans" font-size="24.0" fill="#FEFFFF" transform="matrix(1.00, 0.00, -0.00, -1.00, 239.5, 130.0)">l</text><text xml:space="preserve" font-family="GillSans" font-size="24.0" fill="#FEFFFF" transform="matrix(1.00, 0.00, -0.00, -1.00, 244.8, 130.0)">o</text><text xml:space="preserve" font-family="GillSans" font-size="24.0" fill="#FEFFFF" transform="matrix(1.00, 0.00, -0.00, -1.00, 258.0, 130.0)">g</text><text xml:space="preserve" font-family="GillSans" font-size="24.0" fill="#FEFFFF" transform="matrix(1.00, 0.00, -0.00, -1.00, 268.2, 130.0)">g</text><text xml:space="preserve" font-family="GillSans" font-size="24.0" fill="#FEFFFF" transform="matrix(1.00, 0.00, -0.00, -1.00, 278.5, 130.0)">.</text><text xml:space="preserve" font-family="GillSans" font-size="24.0" fill="#FEFFFF" transform="matrix(1.00, 0.00, -0.00, -1.00, 283.7, 130.0)">n</text><text xml:space="preserve" font-family="GillSans" font-size="24.0" fill="#FEFFFF" transform="matrix(1.00, 0.00, -0.00, -1.00, 295.7, 130.0)">e</text><text xml:space="preserve" font-family="GillSans" font-size="24.0" fill="#FEFFFF" transform="matrix(1.00, 0.00, -0.00, -1.00, 307.2, 130.0)">t</text><text xml:space="preserve" font-family="GillSans" font-size="24.0" fill="#FEFFFF" transform="matrix(1.00, 0.00, -0.00, -1.00, 315.2, 130.0)">/</text><g><clipPath id="clip-2118"><path d="M 100.6 126.6 L 314.8 126.6 L 314.8 129.8 L 100.6 129.8 Z M 100.6 126.6 "></path></clipPath><g clip-path="url(#clip-2118)"><path d="M 4.5 28.3 L 217.7 28.3 " fill="none" stroke="#FEFFFF" stroke-width="1.20" stroke-miterlimit="0.00" transform="matrix(1.00, 0.00, 0.00, -1.00, 97.1, 156.5)"></path></g></g><text xml:space="preserve" font-family="GillSans" font-size="42.0" fill="#FEFFFF" transform="matrix(1.00, 0.00, -0.00, -1.00, 724.0, 417.0)">d</text><text xml:space="preserve" font-family="GillSans" font-size="42.0" fill="#FEFFFF" transform="matrix(1.00, 0.00, -0.00, -1.00, 745.4, 417.0)">i</text><text xml:space="preserve" font-family="GillSans" font-size="42.0" fill="#FEFFFF" transform="matrix(1.00, 0.00, -0.00, -1.00, 754.6, 417.0)">s</text><text xml:space="preserve" font-family="GillSans" font-size="42.0" fill="#FEFFFF" transform="matrix(1.00, 0.00, -0.00, -1.00, 770.8, 417.0)">t</text><text xml:space="preserve" font-family="GillSans" font-size="42.0" fill="#FEFFFF" transform="matrix(1.00, 0.00, -0.00, -1.00, 784.8, 417.0)">i</text><text xml:space="preserve" font-family="GillSans" font-size="42.0" fill="#FEFFFF" transform="matrix(1.00, 0.00, -0.00, -1.00, 794.0, 417.0)">l</text><text xml:space="preserve" font-family="GillSans" font-size="42.0" fill="#FEFFFF" transform="matrix(1.00, 0.00, -0.00, -1.00, 803.2, 417.0)">l</text><text xml:space="preserve" font-family="GillSans" font-size="42.0" fill="#FEFFFF" transform="matrix(1.00, 0.00, -0.00, -1.00, 812.4, 417.0)">e</text><text xml:space="preserve" font-family="GillSans" font-size="42.0" fill="#FEFFFF" transform="matrix(1.00, 0.00, -0.00, -1.00, 832.5, 417.0)">r</text><g><clipPath id="clip-2119"><path d="M 723.0 411.6 L 849.1 411.6 L 849.1 415.7 L 723.0 415.7 Z M 723.0 411.6 "></path></clipPath><g clip-path="url(#clip-2119)"><path d="M 4.5 46.5 L 129.6 46.5 " fill="none" stroke="#FEFFFF" stroke-width="2.09" stroke-miterlimit="0.00" transform="matrix(1.00, 0.00, 0.00, -1.00, 719.5, 460.1)"></path></g></g><text xml:space="preserve" font-family="GillSans" font-size="42.0" fill="#FEFFFF" transform="matrix(1.00, 0.00, -0.00, -1.00, 724.0, 329.0)">l</text><text xml:space="preserve" font-family="GillSans" font-size="42.0" fill="#FEFFFF" transform="matrix(1.00, 0.00, -0.00, -1.00, 733.2, 329.0)">i</text><text xml:space="preserve" font-family="GillSans" font-size="42.0" fill="#FEFFFF" transform="matrix(1.00, 0.00, -0.00, -1.00, 742.4, 329.0)">n</text><text xml:space="preserve" font-family="GillSans" font-size="42.0" fill="#FEFFFF" transform="matrix(1.00, 0.00, -0.00, -1.00, 763.4, 329.0)">t</text><text xml:space="preserve" font-family="GillSans" font-size="42.0" fill="#FEFFFF" transform="matrix(1.00, 0.00, -0.00, -1.00, 777.4, 329.0)">e</text><text xml:space="preserve" font-family="GillSans" font-size="42.0" fill="#FEFFFF" transform="matrix(1.00, 0.00, -0.00, -1.00, 797.5, 329.0)">r</text><g><clipPath id="clip-2120"><path d="M 723.0 324.0 L 814.1 324.0 L 814.1 328.1 L 723.0 328.1 Z M 723.0 324.0 "></path></clipPath><g clip-path="url(#clip-2120)"><path d="M 4.5 46.5 L 94.7 46.5 " fill="none" stroke="#FEFFFF" stroke-width="2.09" stroke-miterlimit="0.00" transform="matrix(1.00, 0.00, 0.00, -1.00, 719.5, 372.5)"></path></g></g><text xml:space="preserve" font-family="GillSans" font-size="42.0" fill="#FEFFFF" transform="matrix(1.00, 0.00, -0.00, -1.00, 224.0, 310.0)">P</text><text xml:space="preserve" font-family="GillSans" font-size="42.0" fill="#FEFFFF" transform="matrix(1.00, 0.00, -0.00, -1.00, 245.4, 310.0)">r</text><text xml:space="preserve" font-family="GillSans" font-size="42.0" fill="#FEFFFF" transform="matrix(1.00, 0.00, -0.00, -1.00, 262.0, 310.0)">i</text><text xml:space="preserve" font-family="GillSans" font-size="42.0" fill="#FEFFFF" transform="matrix(1.00, 0.00, -0.00, -1.00, 271.2, 310.0)">m</text><text xml:space="preserve" font-family="GillSans" font-size="42.0" fill="#FEFFFF" transform="matrix(1.00, 0.00, -0.00, -1.00, 303.6, 310.0)">e</text><text xml:space="preserve" font-family="GillSans" font-size="42.0" fill="#FEFFFF" transform="matrix(1.00, 0.00, -0.00, -1.00, 323.8, 310.0)">r</text><g><clipPath id="clip-2121"><path d="M 223.3 305.0 L 340.7 305.0 L 340.7 309.1 L 223.3 309.1 Z M 223.3 305.0 "></path></clipPath><g clip-path="url(#clip-2121)"><path d="M 4.0 46.5 L 120.4 46.5 " fill="none" stroke="#FEFFFF" stroke-width="2.09" stroke-miterlimit="0.00" transform="matrix(1.00, 0.00, 0.00, -1.00, 220.3, 353.5)"></path></g></g></g></svg>