<?xml version="1.0" encoding="UTF-8" standalone="no"?><svg xmlns="http://www.w3.org/2000/svg" xmlns:xlink="http://www.w3.org/1999/xlink" clip-rule="evenodd" stroke-miterlimit="4.00" viewBox="0 0 1024 768"><desc>SVG generated by Keynote</desc><defs></defs><g transform="matrix(1.00, 0.00, -0.00, -1.00, 0.0, 768.0)"><g><clipPath id="clip-1006"><path d="M 0.0 768.0 L 1024.0 768.0 L 1024.0 0.0 L 0.0 0.0 Z M 0.0 768.0 "></path></clipPath><g clip-path="url(#clip-1006)"><image xlink:href="../../D64B4BA4-DFE2-4353-AFBC-0E9752749D8B/assets/E7ABA782A15EA3475B4CFCC80A2FEB63.jpeg" width="1024.00" height="768.00" transform="matrix(1.00, 0.00, -0.00, -1.00, 0.0, 768.0)"></image></g></g><text xml:space="preserve" font-family="Helvetica-Light" font-size="80.0" fill="#FEFFFF" transform="matrix(1.00, 0.00, -0.00, -1.00, 176.0, 622.0)">L</text><text xml:space="preserve" font-family="Helvetica-Light" font-size="80.0" fill="#FEFFFF" transform="matrix(1.00, 0.00, -0.00, -1.00, 220.5, 622.0)">o</text><text xml:space="preserve" font-family="Helvetica-Light" font-size="80.0" fill="#FEFFFF" transform="matrix(1.00, 0.00, -0.00, -1.00, 265.0, 622.0)">c</text><text xml:space="preserve" font-family="Helvetica-Light" font-size="80.0" fill="#FEFFFF" transform="matrix(1.00, 0.00, -0.00, -1.00, 309.4, 622.0)">a</text><text xml:space="preserve" font-family="Helvetica-Light" font-size="80.0" fill="#FEFFFF" transform="matrix(1.00, 0.00, -0.00, -1.00, 353.9, 622.0)">t</text><text xml:space="preserve" font-family="Helvetica-Light" font-size="80.0" fill="#FEFFFF" transform="matrix(1.00, 0.00, -0.00, -1.00, 376.2, 622.0)">i</text><text xml:space="preserve" font-family="Helvetica-Light" font-size="80.0" fill="#FEFFFF" transform="matrix(1.00, 0.00, -0.00, -1.00, 393.9, 622.0)">n</text><text xml:space="preserve" font-family="Helvetica-Light" font-size="80.0" fill="#FEFFFF" transform="matrix(1.00, 0.00, -0.00, -1.00, 438.4, 622.0)">g</text><text xml:space="preserve" font-family="Helvetica-Light" font-size="80.0" fill="#FEFFFF" transform="matrix(1.00, 0.00, -0.00, -1.00, 487.3, 622.0)"> </text><text xml:space="preserve" font-family="Helvetica-Light" font-size="80.0" fill="#FEFFFF" transform="matrix(1.00, 0.00, -0.00, -1.00, 509.5, 622.0)">M</text><text xml:space="preserve" font-family="Helvetica-Light" font-size="80.0" fill="#FEFFFF" transform="matrix(1.00, 0.00, -0.00, -1.00, 576.2, 622.0)">e</text><text xml:space="preserve" font-family="Helvetica-Light" font-size="80.0" fill="#FEFFFF" transform="matrix(1.00, 0.00, -0.00, -1.00, 620.6, 622.0)">t</text><text xml:space="preserve" font-family="Helvetica-Light" font-size="80.0" fill="#FEFFFF" transform="matrix(1.00, 0.00, -0.00, -1.00, 642.9, 622.0)">a</text><text xml:space="preserve" font-family="Helvetica-Light" font-size="80.0" fill="#FEFFFF" transform="matrix(1.00, 0.00, -0.00, -1.00, 687.4, 622.0)">d</text><text xml:space="preserve" font-family="Helvetica-Light" font-size="80.0" fill="#FEFFFF" transform="matrix(1.00, 0.00, -0.00, -1.00, 736.2, 622.0)">a</text><text xml:space="preserve" font-family="Helvetica-Light" font-size="80.0" fill="#FEFFFF" transform="matrix(1.00, 0.00, -0.00, -1.00, 780.7, 622.0)">t</text><text xml:space="preserve" font-family="Helvetica-Light" font-size="80.0" fill="#FEFFFF" transform="matrix(1.00, 0.00, -0.00, -1.00, 803.0, 622.0)">a</text><text xml:space="preserve" font-family="Helvetica-Light" font-size="20.8" fill="#FEFFFF" transform="matrix(1.00, 0.00, -0.00, -1.00, 79.0, 533.3)">•</text><text xml:space="preserve" font-family="Helvetica-Light" font-size="27.7" fill="#FEFFFF" transform="matrix(1.00, 0.00, -0.00, -1.00, 109.0, 531.0)">S</text><text xml:space="preserve" font-family="Helvetica-Light" font-size="27.7" fill="#FEFFFF" transform="matrix(1.00, 0.00, -0.00, -1.00, 125.9, 531.0)">t</text><text xml:space="preserve" font-family="Helvetica-Light" font-size="27.7" fill="#FEFFFF" transform="matrix(1.00, 0.00, -0.00, -1.00, 133.6, 531.0)">a</text><text xml:space="preserve" font-family="Helvetica-Light" font-size="27.7" fill="#FEFFFF" transform="matrix(1.00, 0.00, -0.00, -1.00, 149.1, 531.0)">r</text><text xml:space="preserve" font-family="Helvetica-Light" font-size="27.7" fill="#FEFFFF" transform="matrix(1.00, 0.00, -0.00, -1.00, 158.8, 531.0)">t</text><text xml:space="preserve" font-family="Helvetica-Light" font-size="27.7" fill="#FEFFFF" transform="matrix(1.00, 0.00, -0.00, -1.00, 166.5, 531.0)"> </text><text xml:space="preserve" font-family="Helvetica-Light" font-size="27.7" fill="#FEFFFF" transform="matrix(1.00, 0.00, -0.00, -1.00, 174.2, 531.0)">w</text><text xml:space="preserve" font-family="Helvetica-Light" font-size="27.7" fill="#FEFFFF" transform="matrix(1.00, 0.00, -0.00, -1.00, 194.2, 531.0)">i</text><text xml:space="preserve" font-family="Helvetica-Light" font-size="27.7" fill="#FEFFFF" transform="matrix(1.00, 0.00, -0.00, -1.00, 200.4, 531.0)">t</text><text xml:space="preserve" font-family="Helvetica-Light" font-size="27.7" fill="#FEFFFF" transform="matrix(1.00, 0.00, -0.00, -1.00, 208.1, 531.0)">h</text><text xml:space="preserve" font-family="Helvetica-Light" font-size="27.7" fill="#FEFFFF" transform="matrix(1.00, 0.00, -0.00, -1.00, 223.5, 531.0)"> </text><text xml:space="preserve" font-family="Helvetica-Light" font-size="27.7" fill="#FEFFFF" transform="matrix(1.00, 0.00, -0.00, -1.00, 231.2, 531.0)">M</text><text xml:space="preserve" font-family="Helvetica-Light" font-size="27.7" fill="#FEFFFF" transform="matrix(1.00, 0.00, -0.00, -1.00, 254.3, 531.0)">e</text><text xml:space="preserve" font-family="Helvetica-Light" font-size="27.7" fill="#FEFFFF" transform="matrix(1.00, 0.00, -0.00, -1.00, 269.7, 531.0)">t</text><text xml:space="preserve" font-family="Helvetica-Light" font-size="27.7" fill="#FEFFFF" transform="matrix(1.00, 0.00, -0.00, -1.00, 277.4, 531.0)">a</text><text xml:space="preserve" font-family="Helvetica-Light" font-size="27.7" fill="#FEFFFF" transform="matrix(1.00, 0.00, -0.00, -1.00, 292.8, 531.0)">d</text><text xml:space="preserve" font-family="Helvetica-Light" font-size="27.7" fill="#FEFFFF" transform="matrix(1.00, 0.00, -0.00, -1.00, 309.7, 531.0)">a</text><text xml:space="preserve" font-family="Helvetica-Light" font-size="27.7" fill="#FEFFFF" transform="matrix(1.00, 0.00, -0.00, -1.00, 325.2, 531.0)">t</text><text xml:space="preserve" font-family="Helvetica-Light" font-size="27.7" fill="#FEFFFF" transform="matrix(1.00, 0.00, -0.00, -1.00, 332.9, 531.0)">a</text><text xml:space="preserve" font-family="Helvetica-Light" font-size="27.7" fill="#FEFFFF" transform="matrix(1.00, 0.00, -0.00, -1.00, 348.3, 531.0)"> </text><text xml:space="preserve" font-family="Helvetica-Light" font-size="20.8" fill="#FEFFFF" transform="matrix(1.00, 0.00, -0.00, -1.00, 79.0, 463.7)">•</text><text xml:space="preserve" font-family="Helvetica-Light" font-size="27.7" fill="#FEFFFF" transform="matrix(1.00, 0.00, -0.00, -1.00, 109.0, 462.0)">H</text><text xml:space="preserve" font-family="Helvetica-Light" font-size="27.7" fill="#FEFFFF" transform="matrix(1.00, 0.00, -0.00, -1.00, 129.0, 462.0)">T</text><text xml:space="preserve" font-family="Helvetica-Light" font-size="27.7" fill="#FEFFFF" transform="matrix(1.00, 0.00, -0.00, -1.00, 144.4, 462.0)">T</text><text xml:space="preserve" font-family="Helvetica-Light" font-size="27.7" fill="#FEFFFF" transform="matrix(1.00, 0.00, -0.00, -1.00, 159.8, 462.0)">P</text><text xml:space="preserve" font-family="Helvetica-Light" font-size="27.7" fill="#FEFFFF" transform="matrix(1.00, 0.00, -0.00, -1.00, 176.8, 462.0)"> </text><text xml:space="preserve" font-family="Helvetica-Light" font-size="27.7" fill="#FEFFFF" transform="matrix(1.00, 0.00, -0.00, -1.00, 184.5, 462.0)">L</text><text xml:space="preserve" font-family="Helvetica-Light" font-size="27.7" fill="#FEFFFF" transform="matrix(1.00, 0.00, -0.00, -1.00, 199.9, 462.0)">i</text><text xml:space="preserve" font-family="Helvetica-Light" font-size="27.7" fill="#FEFFFF" transform="matrix(1.00, 0.00, -0.00, -1.00, 206.0, 462.0)">n</text><text xml:space="preserve" font-family="Helvetica-Light" font-size="27.7" fill="#FEFFFF" transform="matrix(1.00, 0.00, -0.00, -1.00, 221.5, 462.0)">k</text><text xml:space="preserve" font-family="Helvetica-Light" font-size="27.7" fill="#FEFFFF" transform="matrix(1.00, 0.00, -0.00, -1.00, 235.3, 462.0)"> </text><text xml:space="preserve" font-family="Helvetica-Light" font-size="27.7" fill="#FEFFFF" transform="matrix(1.00, 0.00, -0.00, -1.00, 243.0, 462.0)">h</text><text xml:space="preserve" font-family="Helvetica-Light" font-size="27.7" fill="#FEFFFF" transform="matrix(1.00, 0.00, -0.00, -1.00, 258.4, 462.0)">e</text><text xml:space="preserve" font-family="Helvetica-Light" font-size="27.7" fill="#FEFFFF" transform="matrix(1.00, 0.00, -0.00, -1.00, 273.9, 462.0)">a</text><text xml:space="preserve" font-family="Helvetica-Light" font-size="27.7" fill="#FEFFFF" transform="matrix(1.00, 0.00, -0.00, -1.00, 289.3, 462.0)">d</text><text xml:space="preserve" font-family="Helvetica-Light" font-size="27.7" fill="#FEFFFF" transform="matrix(1.00, 0.00, -0.00, -1.00, 306.2, 462.0)">e</text><text xml:space="preserve" font-family="Helvetica-Light" font-size="27.7" fill="#FEFFFF" transform="matrix(1.00, 0.00, -0.00, -1.00, 321.6, 462.0)">r</text><text xml:space="preserve" font-family="Helvetica-Light" font-size="27.7" fill="#FEFFFF" transform="matrix(1.00, 0.00, -0.00, -1.00, 330.8, 462.0)"> </text><text xml:space="preserve" font-family="Helvetica-Light" font-size="27.7" fill="#FEFFFF" transform="matrix(1.00, 0.00, -0.00, -1.00, 109.0, 430.0)">r</text><text xml:space="preserve" font-family="Helvetica-Light" font-size="27.7" fill="#FEFFFF" transform="matrix(1.00, 0.00, -0.00, -1.00, 117.7, 430.0)">e</text><text xml:space="preserve" font-family="Helvetica-Light" font-size="27.7" fill="#FEFFFF" transform="matrix(1.00, 0.00, -0.00, -1.00, 133.1, 430.0)">l</text><text xml:space="preserve" font-family="Helvetica-Light" font-size="27.7" fill="#FEFFFF" transform="matrix(1.00, 0.00, -0.00, -1.00, 139.3, 430.0)">=</text><text xml:space="preserve" font-family="Helvetica-Light" font-size="27.7" fill="#FEFFFF" transform="matrix(1.00, 0.00, -0.00, -1.00, 157.6, 430.0)">“</text><text xml:space="preserve" font-family="Helvetica-LightOblique" font-style="italic" font-size="27.7" fill="#FEFFFF" transform="matrix(1.00, 0.00, -0.00, -1.00, 168.4, 430.0)">d</text><text xml:space="preserve" font-family="Helvetica-LightOblique" font-style="italic" font-size="27.7" fill="#FEFFFF" transform="matrix(1.00, 0.00, -0.00, -1.00, 185.3, 430.0)">e</text><text xml:space="preserve" font-family="Helvetica-LightOblique" font-style="italic" font-size="27.7" fill="#FEFFFF" transform="matrix(1.00, 0.00, -0.00, -1.00, 200.7, 430.0)">s</text><text xml:space="preserve" font-family="Helvetica-LightOblique" font-style="italic" font-size="27.7" fill="#FEFFFF" transform="matrix(1.00, 0.00, -0.00, -1.00, 214.6, 430.0)">c</text><text xml:space="preserve" font-family="Helvetica-LightOblique" font-style="italic" font-size="27.7" fill="#FEFFFF" transform="matrix(1.00, 0.00, -0.00, -1.00, 230.0, 430.0)">r</text><text xml:space="preserve" font-family="Helvetica-LightOblique" font-style="italic" font-size="27.7" fill="#FEFFFF" transform="matrix(1.00, 0.00, -0.00, -1.00, 239.2, 430.0)">i</text><text xml:space="preserve" font-family="Helvetica-LightOblique" font-style="italic" font-size="27.7" fill="#FEFFFF" transform="matrix(1.00, 0.00, -0.00, -1.00, 245.4, 430.0)">b</text><text xml:space="preserve" font-family="Helvetica-LightOblique" font-style="italic" font-size="27.7" fill="#FEFFFF" transform="matrix(1.00, 0.00, -0.00, -1.00, 262.3, 430.0)">e</text><text xml:space="preserve" font-family="Helvetica-LightOblique" font-style="italic" font-size="27.7" fill="#FEFFFF" transform="matrix(1.00, 0.00, -0.00, -1.00, 277.7, 430.0)">d</text><text xml:space="preserve" font-family="Helvetica-LightOblique" font-style="italic" font-size="27.7" fill="#FEFFFF" transform="matrix(1.00, 0.00, -0.00, -1.00, 294.7, 430.0)">b</text><text xml:space="preserve" font-family="Helvetica-LightOblique" font-style="italic" font-size="27.7" fill="#FEFFFF" transform="matrix(1.00, 0.00, -0.00, -1.00, 311.6, 430.0)">y</text><text xml:space="preserve" font-family="Helvetica-Light" font-size="27.7" fill="#FEFFFF" transform="matrix(1.00, 0.00, -0.00, -1.00, 325.5, 430.0)">”</text><text xml:space="preserve" font-family="Helvetica-Light" font-size="27.7" fill="#FEFFFF" transform="matrix(1.00, 0.00, -0.00, -1.00, 336.2, 430.0)"> </text><text xml:space="preserve" font-family="Helvetica-Light" font-size="20.8" fill="#FEFFFF" transform="matrix(1.00, 0.00, -0.00, -1.00, 79.0, 362.0)">•</text><text xml:space="preserve" font-family="Helvetica-Light" font-size="27.7" fill="#FEFFFF" transform="matrix(1.00, 0.00, -0.00, -1.00, 109.0, 360.0)">D</text><text xml:space="preserve" font-family="Helvetica-Light" font-size="27.7" fill="#FEFFFF" transform="matrix(1.00, 0.00, -0.00, -1.00, 129.0, 360.0)">e</text><text xml:space="preserve" font-family="Helvetica-Light" font-size="27.7" fill="#FEFFFF" transform="matrix(1.00, 0.00, -0.00, -1.00, 144.4, 360.0)">f</text><text xml:space="preserve" font-family="Helvetica-Light" font-size="27.7" fill="#FEFFFF" transform="matrix(1.00, 0.00, -0.00, -1.00, 152.1, 360.0)">a</text><text xml:space="preserve" font-family="Helvetica-Light" font-size="27.7" fill="#FEFFFF" transform="matrix(1.00, 0.00, -0.00, -1.00, 167.5, 360.0)">u</text><text xml:space="preserve" font-family="Helvetica-Light" font-size="27.7" fill="#FEFFFF" transform="matrix(1.00, 0.00, -0.00, -1.00, 183.0, 360.0)">l</text><text xml:space="preserve" font-family="Helvetica-Light" font-size="27.7" fill="#FEFFFF" transform="matrix(1.00, 0.00, -0.00, -1.00, 189.1, 360.0)">t</text><text xml:space="preserve" font-family="Helvetica-Light" font-size="27.7" fill="#FEFFFF" transform="matrix(1.00, 0.00, -0.00, -1.00, 196.8, 360.0)"> </text><text xml:space="preserve" font-family="Helvetica-Light" font-size="27.7" fill="#FEFFFF" transform="matrix(1.00, 0.00, -0.00, -1.00, 204.5, 360.0)">l</text><text xml:space="preserve" font-family="Helvetica-Light" font-size="27.7" fill="#FEFFFF" transform="matrix(1.00, 0.00, -0.00, -1.00, 210.7, 360.0)">o</text><text xml:space="preserve" font-family="Helvetica-Light" font-size="27.7" fill="#FEFFFF" transform="matrix(1.00, 0.00, -0.00, -1.00, 226.1, 360.0)">c</text><text xml:space="preserve" font-family="Helvetica-Light" font-size="27.7" fill="#FEFFFF" transform="matrix(1.00, 0.00, -0.00, -1.00, 241.5, 360.0)">a</text><text xml:space="preserve" font-family="Helvetica-Light" font-size="27.7" fill="#FEFFFF" transform="matrix(1.00, 0.00, -0.00, -1.00, 256.9, 360.0)">t</text><text xml:space="preserve" font-family="Helvetica-Light" font-size="27.7" fill="#FEFFFF" transform="matrix(1.00, 0.00, -0.00, -1.00, 264.6, 360.0)">i</text><text xml:space="preserve" font-family="Helvetica-Light" font-size="27.7" fill="#FEFFFF" transform="matrix(1.00, 0.00, -0.00, -1.00, 270.8, 360.0)">o</text><text xml:space="preserve" font-family="Helvetica-Light" font-size="27.7" fill="#FEFFFF" transform="matrix(1.00, 0.00, -0.00, -1.00, 286.2, 360.0)">n</text><text xml:space="preserve" font-family="Helvetica-Light" font-size="27.7" fill="#FEFFFF" transform="matrix(1.00, 0.00, -0.00, -1.00, 301.6, 360.0)">s</text><text xml:space="preserve" font-family="Helvetica-Light" font-size="27.7" fill="#FEFFFF" transform="matrix(1.00, 0.00, -0.00, -1.00, 315.5, 360.0)"> </text><text xml:space="preserve" font-family="Helvetica-Light" font-size="20.8" fill="#FEFFFF" transform="matrix(1.00, 0.00, -0.00, -1.00, 109.0, 292.4)">•</text><text xml:space="preserve" font-family="Helvetica-Light" font-size="27.7" fill="#FEFFFF" transform="matrix(1.00, 0.00, -0.00, -1.00, 139.0, 291.0)">{</text><text xml:space="preserve" font-family="Helvetica-Light" font-size="27.7" fill="#FEFFFF" transform="matrix(1.00, 0.00, -0.00, -1.00, 148.2, 291.0)">+</text><text xml:space="preserve" font-family="Helvetica-Light" font-size="27.7" fill="#FEFFFF" transform="matrix(1.00, 0.00, -0.00, -1.00, 166.5, 291.0)">u</text><text xml:space="preserve" font-family="Helvetica-Light" font-size="27.7" fill="#FEFFFF" transform="matrix(1.00, 0.00, -0.00, -1.00, 181.9, 291.0)">r</text><text xml:space="preserve" font-family="Helvetica-Light" font-size="27.7" fill="#FEFFFF" transform="matrix(1.00, 0.00, -0.00, -1.00, 191.2, 291.0)">l</text><text xml:space="preserve" font-family="Helvetica-Light" font-size="27.7" fill="#FEFFFF" transform="matrix(1.00, 0.00, -0.00, -1.00, 197.3, 291.0)">}</text><text xml:space="preserve" font-family="Helvetica-Light" font-size="27.7" fill="#FEFFFF" transform="matrix(1.00, 0.00, -0.00, -1.00, 206.6, 291.0)">-</text><text xml:space="preserve" font-family="Helvetica-Light" font-size="27.7" fill="#FEFFFF" transform="matrix(1.00, 0.00, -0.00, -1.00, 215.8, 291.0)">m</text><text xml:space="preserve" font-family="Helvetica-Light" font-size="27.7" fill="#FEFFFF" transform="matrix(1.00, 0.00, -0.00, -1.00, 238.9, 291.0)">e</text><text xml:space="preserve" font-family="Helvetica-Light" font-size="27.7" fill="#FEFFFF" transform="matrix(1.00, 0.00, -0.00, -1.00, 254.3, 291.0)">t</text><text xml:space="preserve" font-family="Helvetica-Light" font-size="27.7" fill="#FEFFFF" transform="matrix(1.00, 0.00, -0.00, -1.00, 262.0, 291.0)">a</text><text xml:space="preserve" font-family="Helvetica-Light" font-size="27.7" fill="#FEFFFF" transform="matrix(1.00, 0.00, -0.00, -1.00, 277.4, 291.0)">d</text><text xml:space="preserve" font-family="Helvetica-Light" font-size="27.7" fill="#FEFFFF" transform="matrix(1.00, 0.00, -0.00, -1.00, 294.3, 291.0)">a</text><text xml:space="preserve" font-family="Helvetica-Light" font-size="27.7" fill="#FEFFFF" transform="matrix(1.00, 0.00, -0.00, -1.00, 309.8, 291.0)">t</text><text xml:space="preserve" font-family="Helvetica-Light" font-size="27.7" fill="#FEFFFF" transform="matrix(1.00, 0.00, -0.00, -1.00, 317.5, 291.0)">a</text><text xml:space="preserve" font-family="Helvetica-Light" font-size="27.7" fill="#FEFFFF" transform="matrix(1.00, 0.00, -0.00, -1.00, 332.9, 291.0)">.</text><text xml:space="preserve" font-family="Helvetica-Light" font-size="27.7" fill="#FEFFFF" transform="matrix(1.00, 0.00, -0.00, -1.00, 340.6, 291.0)">j</text><text xml:space="preserve" font-family="Helvetica-Light" font-size="27.7" fill="#FEFFFF" transform="matrix(1.00, 0.00, -0.00, -1.00, 346.7, 291.0)">s</text><text xml:space="preserve" font-family="Helvetica-Light" font-size="27.7" fill="#FEFFFF" transform="matrix(1.00, 0.00, -0.00, -1.00, 360.6, 291.0)">o</text><text xml:space="preserve" font-family="Helvetica-Light" font-size="27.7" fill="#FEFFFF" transform="matrix(1.00, 0.00, -0.00, -1.00, 376.0, 291.0)">n</text><text xml:space="preserve" font-family="Helvetica-Light" font-size="27.7" fill="#FEFFFF" transform="matrix(1.00, 0.00, -0.00, -1.00, 391.4, 291.0)"> </text><text xml:space="preserve" font-family="Helvetica-Light" font-size="20.8" fill="#FEFFFF" transform="matrix(1.00, 0.00, -0.00, -1.00, 109.0, 222.8)">•</text><text xml:space="preserve" font-family="Helvetica-Light" font-size="27.7" fill="#FEFFFF" transform="matrix(1.00, 0.00, -0.00, -1.00, 139.0, 221.0)">c</text><text xml:space="preserve" font-family="Helvetica-Light" font-size="27.7" fill="#FEFFFF" transform="matrix(1.00, 0.00, -0.00, -1.00, 154.4, 221.0)">s</text><text xml:space="preserve" font-family="Helvetica-Light" font-size="27.7" fill="#FEFFFF" transform="matrix(1.00, 0.00, -0.00, -1.00, 168.3, 221.0)">v</text><text xml:space="preserve" font-family="Helvetica-Light" font-size="27.7" fill="#FEFFFF" transform="matrix(1.00, 0.00, -0.00, -1.00, 182.1, 221.0)">-</text><text xml:space="preserve" font-family="Helvetica-Light" font-size="27.7" fill="#FEFFFF" transform="matrix(1.00, 0.00, -0.00, -1.00, 191.4, 221.0)">m</text><text xml:space="preserve" font-family="Helvetica-Light" font-size="27.7" fill="#FEFFFF" transform="matrix(1.00, 0.00, -0.00, -1.00, 214.5, 221.0)">e</text><text xml:space="preserve" font-family="Helvetica-Light" font-size="27.7" fill="#FEFFFF" transform="matrix(1.00, 0.00, -0.00, -1.00, 229.9, 221.0)">t</text><text xml:space="preserve" font-family="Helvetica-Light" font-size="27.7" fill="#FEFFFF" transform="matrix(1.00, 0.00, -0.00, -1.00, 237.6, 221.0)">a</text><text xml:space="preserve" font-family="Helvetica-Light" font-size="27.7" fill="#FEFFFF" transform="matrix(1.00, 0.00, -0.00, -1.00, 253.0, 221.0)">d</text><text xml:space="preserve" font-family="Helvetica-Light" font-size="27.7" fill="#FEFFFF" transform="matrix(1.00, 0.00, -0.00, -1.00, 269.9, 221.0)">a</text><text xml:space="preserve" font-family="Helvetica-Light" font-size="27.7" fill="#FEFFFF" transform="matrix(1.00, 0.00, -0.00, -1.00, 285.3, 221.0)">t</text><text xml:space="preserve" font-family="Helvetica-Light" font-size="27.7" fill="#FEFFFF" transform="matrix(1.00, 0.00, -0.00, -1.00, 293.0, 221.0)">a</text><text xml:space="preserve" font-family="Helvetica-Light" font-size="27.7" fill="#FEFFFF" transform="matrix(1.00, 0.00, -0.00, -1.00, 308.5, 221.0)">.</text><text xml:space="preserve" font-family="Helvetica-Light" font-size="27.7" fill="#FEFFFF" transform="matrix(1.00, 0.00, -0.00, -1.00, 316.2, 221.0)">j</text><text xml:space="preserve" font-family="Helvetica-Light" font-size="27.7" fill="#FEFFFF" transform="matrix(1.00, 0.00, -0.00, -1.00, 322.3, 221.0)">s</text><text xml:space="preserve" font-family="Helvetica-Light" font-size="27.7" fill="#FEFFFF" transform="matrix(1.00, 0.00, -0.00, -1.00, 336.2, 221.0)">o</text><text xml:space="preserve" font-family="Helvetica-Light" font-size="27.7" fill="#FEFFFF" transform="matrix(1.00, 0.00, -0.00, -1.00, 351.6, 221.0)">n</text><text xml:space="preserve" font-family="Helvetica-Light" font-size="27.7" fill="#FEFFFF" transform="matrix(1.00, 0.00, -0.00, -1.00, 367.0, 221.0)"> </text><text xml:space="preserve" font-family="Helvetica-Light" font-size="20.8" fill="#FEFFFF" transform="matrix(1.00, 0.00, -0.00, -1.00, 109.0, 153.2)">•</text><text xml:space="preserve" font-family="Helvetica-Light" font-size="27.7" fill="#FEFFFF" transform="matrix(1.00, 0.00, -0.00, -1.00, 139.0, 151.0)">/</text><text xml:space="preserve" font-family="Helvetica-Light" font-size="27.7" fill="#FEFFFF" transform="matrix(1.00, 0.00, -0.00, -1.00, 146.7, 151.0)">.</text><text xml:space="preserve" font-family="Helvetica-Light" font-size="27.7" fill="#FEFFFF" transform="matrix(1.00, 0.00, -0.00, -1.00, 154.4, 151.0)">w</text><text xml:space="preserve" font-family="Helvetica-Light" font-size="27.7" fill="#FEFFFF" transform="matrix(1.00, 0.00, -0.00, -1.00, 174.4, 151.0)">e</text><text xml:space="preserve" font-family="Helvetica-Light" font-size="27.7" fill="#FEFFFF" transform="matrix(1.00, 0.00, -0.00, -1.00, 189.8, 151.0)">l</text><text xml:space="preserve" font-family="Helvetica-Light" font-size="27.7" fill="#FEFFFF" transform="matrix(1.00, 0.00, -0.00, -1.00, 196.0, 151.0)">l</text><text xml:space="preserve" font-family="Helvetica-Light" font-size="27.7" fill="#FEFFFF" transform="matrix(1.00, 0.00, -0.00, -1.00, 202.1, 151.0)">-</text><text xml:space="preserve" font-family="Helvetica-Light" font-size="27.7" fill="#FEFFFF" transform="matrix(1.00, 0.00, -0.00, -1.00, 211.4, 151.0)">k</text><text xml:space="preserve" font-family="Helvetica-Light" font-size="27.7" fill="#FEFFFF" transform="matrix(1.00, 0.00, -0.00, -1.00, 225.2, 151.0)">n</text><text xml:space="preserve" font-family="Helvetica-Light" font-size="27.7" fill="#FEFFFF" transform="matrix(1.00, 0.00, -0.00, -1.00, 240.6, 151.0)">o</text><text xml:space="preserve" font-family="Helvetica-Light" font-size="27.7" fill="#FEFFFF" transform="matrix(1.00, 0.00, -0.00, -1.00, 256.1, 151.0)">w</text><text xml:space="preserve" font-family="Helvetica-Light" font-size="27.7" fill="#FEFFFF" transform="matrix(1.00, 0.00, -0.00, -1.00, 276.1, 151.0)">n</text><text xml:space="preserve" font-family="Helvetica-Light" font-size="27.7" fill="#FEFFFF" transform="matrix(1.00, 0.00, -0.00, -1.00, 291.5, 151.0)">/</text><text xml:space="preserve" font-family="Helvetica-Light" font-size="27.7" fill="#FEFFFF" transform="matrix(1.00, 0.00, -0.00, -1.00, 299.2, 151.0)">c</text><text xml:space="preserve" font-family="Helvetica-Light" font-size="27.7" fill="#FEFFFF" transform="matrix(1.00, 0.00, -0.00, -1.00, 314.6, 151.0)">s</text><text xml:space="preserve" font-family="Helvetica-Light" font-size="27.7" fill="#FEFFFF" transform="matrix(1.00, 0.00, -0.00, -1.00, 328.5, 151.0)">v</text><text xml:space="preserve" font-family="Helvetica-Light" font-size="27.7" fill="#FEFFFF" transform="matrix(1.00, 0.00, -0.00, -1.00, 342.3, 151.0)">m</text><text xml:space="preserve" font-family="Helvetica-Light" font-size="27.7" fill="#FEFFFF" transform="matrix(1.00, 0.00, -0.00, -1.00, 365.4, 151.0)"> </text><text xml:space="preserve" font-family="Helvetica-Light" font-size="20.8" fill="#FEFFFF" transform="matrix(1.00, 0.00, -0.00, -1.00, 79.0, 83.6)">•</text><text xml:space="preserve" font-family="Helvetica-Light" font-size="27.7" fill="#FEFFFF" transform="matrix(1.00, 0.00, -0.00, -1.00, 109.0, 82.0)">E</text><text xml:space="preserve" font-family="Helvetica-Light" font-size="27.7" fill="#FEFFFF" transform="matrix(1.00, 0.00, -0.00, -1.00, 125.9, 82.0)">m</text><text xml:space="preserve" font-family="Helvetica-Light" font-size="27.7" fill="#FEFFFF" transform="matrix(1.00, 0.00, -0.00, -1.00, 149.0, 82.0)">b</text><text xml:space="preserve" font-family="Helvetica-Light" font-size="27.7" fill="#FEFFFF" transform="matrix(1.00, 0.00, -0.00, -1.00, 166.0, 82.0)">e</text><text xml:space="preserve" font-family="Helvetica-Light" font-size="27.7" fill="#FEFFFF" transform="matrix(1.00, 0.00, -0.00, -1.00, 181.4, 82.0)">d</text><text xml:space="preserve" font-family="Helvetica-Light" font-size="27.7" fill="#FEFFFF" transform="matrix(1.00, 0.00, -0.00, -1.00, 198.3, 82.0)">d</text><text xml:space="preserve" font-family="Helvetica-Light" font-size="27.7" fill="#FEFFFF" transform="matrix(1.00, 0.00, -0.00, -1.00, 215.3, 82.0)">e</text><text xml:space="preserve" font-family="Helvetica-Light" font-size="27.7" fill="#FEFFFF" transform="matrix(1.00, 0.00, -0.00, -1.00, 230.7, 82.0)">d</text><text xml:space="preserve" font-family="Helvetica-Light" font-size="27.7" fill="#FEFFFF" transform="matrix(1.00, 0.00, -0.00, -1.00, 247.6, 82.0)"> </text><text xml:space="preserve" font-family="Helvetica-Light" font-size="27.7" fill="#FEFFFF" transform="matrix(1.00, 0.00, -0.00, -1.00, 255.3, 82.0)">M</text><text xml:space="preserve" font-family="Helvetica-Light" font-size="27.7" fill="#FEFFFF" transform="matrix(1.00, 0.00, -0.00, -1.00, 278.4, 82.0)">e</text><text xml:space="preserve" font-family="Helvetica-Light" font-size="27.7" fill="#FEFFFF" transform="matrix(1.00, 0.00, -0.00, -1.00, 293.8, 82.0)">t</text><text xml:space="preserve" font-family="Helvetica-Light" font-size="27.7" fill="#FEFFFF" transform="matrix(1.00, 0.00, -0.00, -1.00, 301.5, 82.0)">a</text><text xml:space="preserve" font-family="Helvetica-Light" font-size="27.7" fill="#FEFFFF" transform="matrix(1.00, 0.00, -0.00, -1.00, 316.9, 82.0)">d</text><text xml:space="preserve" font-family="Helvetica-Light" font-size="27.7" fill="#FEFFFF" transform="matrix(1.00, 0.00, -0.00, -1.00, 333.9, 82.0)">a</text><text xml:space="preserve" font-family="Helvetica-Light" font-size="27.7" fill="#FEFFFF" transform="matrix(1.00, 0.00, -0.00, -1.00, 349.3, 82.0)">t</text><text xml:space="preserve" font-family="Helvetica-Light" font-size="27.7" fill="#FEFFFF" transform="matrix(1.00, 0.00, -0.00, -1.00, 357.0, 82.0)">a</text><text xml:space="preserve" font-family="Helvetica-Light" font-size="18.0" fill="#FEFFFF" transform="matrix(1.00, 0.00, -0.00, -1.00, 501.0, 18.0)">2</text><text xml:space="preserve" font-family="Helvetica-Light" font-size="18.0" fill="#FEFFFF" transform="matrix(1.00, 0.00, -0.00, -1.00, 511.0, 18.0)">1</text></g></svg>