<?xml version="1.0" encoding="UTF-8" standalone="no"?><svg xmlns="http://www.w3.org/2000/svg" xmlns:xlink="http://www.w3.org/1999/xlink" clip-rule="evenodd" stroke-miterlimit="4.00" viewBox="0 0 1024 768"><desc>SVG generated by Keynote</desc><defs></defs><g transform="matrix(1.00, 0.00, -0.00, -1.00, 0.0, 768.0)"><g><clipPath id="clip-2135"><path d="M 0.0 768.0 L 1024.0 768.0 L 1024.0 0.0 L 0.0 0.0 Z M 0.0 768.0 "></path></clipPath><g clip-path="url(#clip-2135)"><image xlink:href="../../D64B4BA4-DFE2-4353-AFBC-0E9752749D8B/assets/E7ABA782A15EA3475B4CFCC80A2FEB63.jpeg" width="1024.00" height="768.00" transform="matrix(1.00, 0.00, -0.00, -1.00, 0.0, 768.0)"></image></g></g><text xml:space="preserve" font-family="Helvetica-Light" font-size="80.0" fill="#FEFFFF" transform="matrix(1.00, 0.00, -0.00, -1.00, 176.0, 622.0)">L</text><text xml:space="preserve" font-family="Helvetica-Light" font-size="80.0" fill="#FEFFFF" transform="matrix(1.00, 0.00, -0.00, -1.00, 220.5, 622.0)">o</text><text xml:space="preserve" font-family="Helvetica-Light" font-size="80.0" fill="#FEFFFF" transform="matrix(1.00, 0.00, -0.00, -1.00, 265.0, 622.0)">c</text><text xml:space="preserve" font-family="Helvetica-Light" font-size="80.0" fill="#FEFFFF" transform="matrix(1.00, 0.00, -0.00, -1.00, 309.4, 622.0)">a</text><text xml:space="preserve" font-family="Helvetica-Light" font-size="80.0" fill="#FEFFFF" transform="matrix(1.00, 0.00, -0.00, -1.00, 353.9, 622.0)">t</text><text xml:space="preserve" font-family="Helvetica-Light" font-size="80.0" fill="#FEFFFF" transform="matrix(1.00, 0.00, -0.00, -1.00, 376.2, 622.0)">i</text><text xml:space="preserve" font-family="Helvetica-Light" font-size="80.0" fill="#FEFFFF" transform="matrix(1.00, 0.00, -0.00, -1.00, 393.9, 622.0)">n</text><text xml:space="preserve" font-family="Helvetica-Light" font-size="80.0" fill="#FEFFFF" transform="matrix(1.00, 0.00, -0.00, -1.00, 438.4, 622.0)">g</text><text xml:space="preserve" font-family="Helvetica-Light" font-size="80.0" fill="#FEFFFF" transform="matrix(1.00, 0.00, -0.00, -1.00, 487.3, 622.0)"> </text><text xml:space="preserve" font-family="Helvetica-Light" font-size="80.0" fill="#FEFFFF" transform="matrix(1.00, 0.00, -0.00, -1.00, 509.5, 622.0)">M</text><text xml:space="preserve" font-family="Helvetica-Light" font-size="80.0" fill="#FEFFFF" transform="matrix(1.00, 0.00, -0.00, -1.00, 576.2, 622.0)">e</text><text xml:space="preserve" font-family="Helvetica-Light" font-size="80.0" fill="#FEFFFF" transform="matrix(1.00, 0.00, -0.00, -1.00, 620.6, 622.0)">t</text><text xml:space="preserve" font-family="Helvetica-Light" font-size="80.0" fill="#FEFFFF" transform="matrix(1.00, 0.00, -0.00, -1.00, 642.9, 622.0)">a</text><text xml:space="preserve" font-family="Helvetica-Light" font-size="80.0" fill="#FEFFFF" transform="matrix(1.00, 0.00, -0.00, -1.00, 687.4, 622.0)">d</text><text xml:space="preserve" font-family="Helvetica-Light" font-size="80.0" fill="#FEFFFF" transform="matrix(1.00, 0.00, -0.00, -1.00, 736.2, 622.0)">a</text><text xml:space="preserve" font-family="Helvetica-Light" font-size="80.0" fill="#FEFFFF" transform="matrix(1.00, 0.00, -0.00, -1.00, 780.7, 622.0)">t</text><text xml:space="preserve" font-family="Helvetica-Light" font-size="80.0" fill="#FEFFFF" transform="matrix(1.00, 0.00, -0.00, -1.00, 803.0, 622.0)">a</text><text xml:space="preserve" font-family="Helvetica-Light" font-size="20.8" fill="#FEFFFF" transform="matrix(1.00, 0.00, -0.00, -1.00, 79.0, 533.3)">•</text><text xml:space="preserve" font-family="Helvetica-Light" font-size="27.7" fill="#FEFFFF" transform="matrix(1.00, 0.00, -0.00, -1.00, 109.0, 531.0)">S</text><text xml:space="preserve" font-family="Helvetica-Light" font-size="27.7" fill="#FEFFFF" transform="matrix(1.00, 0.00, -0.00, -1.00, 125.9, 531.0)">t</text><text xml:space="preserve" font-family="Helvetica-Light" font-size="27.7" fill="#FEFFFF" transform="matrix(1.00, 0.00, -0.00, -1.00, 133.6, 531.0)">a</text><text xml:space="preserve" font-family="Helvetica-Light" font-size="27.7" fill="#FEFFFF" transform="matrix(1.00, 0.00, -0.00, -1.00, 149.1, 531.0)">r</text><text xml:space="preserve" font-family="Helvetica-Light" font-size="27.7" fill="#FEFFFF" transform="matrix(1.00, 0.00, -0.00, -1.00, 158.8, 531.0)">t</text><text xml:space="preserve" font-family="Helvetica-Light" font-size="27.7" fill="#FEFFFF" transform="matrix(1.00, 0.00, -0.00, -1.00, 166.5, 531.0)"> </text><text xml:space="preserve" font-family="Helvetica-Light" font-size="27.7" fill="#FEFFFF" transform="matrix(1.00, 0.00, -0.00, -1.00, 174.2, 531.0)">w</text><text xml:space="preserve" font-family="Helvetica-Light" font-size="27.7" fill="#FEFFFF" transform="matrix(1.00, 0.00, -0.00, -1.00, 194.2, 531.0)">i</text><text xml:space="preserve" font-family="Helvetica-Light" font-size="27.7" fill="#FEFFFF" transform="matrix(1.00, 0.00, -0.00, -1.00, 200.4, 531.0)">t</text><text xml:space="preserve" font-family="Helvetica-Light" font-size="27.7" fill="#FEFFFF" transform="matrix(1.00, 0.00, -0.00, -1.00, 208.1, 531.0)">h</text><text xml:space="preserve" font-family="Helvetica-Light" font-size="27.7" fill="#FEFFFF" transform="matrix(1.00, 0.00, -0.00, -1.00, 223.5, 531.0)"> </text><text xml:space="preserve" font-family="Helvetica-Light" font-size="27.7" fill="#FEFFFF" transform="matrix(1.00, 0.00, -0.00, -1.00, 231.2, 531.0)">M</text><text xml:space="preserve" font-family="Helvetica-Light" font-size="27.7" fill="#FEFFFF" transform="matrix(1.00, 0.00, -0.00, -1.00, 254.3, 531.0)">e</text><text xml:space="preserve" font-family="Helvetica-Light" font-size="27.7" fill="#FEFFFF" transform="matrix(1.00, 0.00, -0.00, -1.00, 269.7, 531.0)">t</text><text xml:space="preserve" font-family="Helvetica-Light" font-size="27.7" fill="#FEFFFF" transform="matrix(1.00, 0.00, -0.00, -1.00, 277.4, 531.0)">a</text><text xml:space="preserve" font-family="Helvetica-Light" font-size="27.7" fill="#FEFFFF" transform="matrix(1.00, 0.00, -0.00, -1.00, 292.8, 531.0)">d</text><text xml:space="preserve" font-family="Helvetica-Light" font-size="27.7" fill="#FEFFFF" transform="matrix(1.00, 0.00, -0.00, -1.00, 309.7, 531.0)">a</text><text xml:space="preserve" font-family="Helvetica-Light" font-size="27.7" fill="#FEFFFF" transform="matrix(1.00, 0.00, -0.00, -1.00, 325.2, 531.0)">t</text><text xml:space="preserve" font-family="Helvetica-Light" font-size="27.7" fill="#FEFFFF" transform="matrix(1.00, 0.00, -0.00, -1.00, 332.9, 531.0)">a</text><text xml:space="preserve" font-family="Helvetica-Light" font-size="27.7" fill="#FEFFFF" transform="matrix(1.00, 0.00, -0.00, -1.00, 348.3, 531.0)"> </text><text xml:space="preserve" font-family="Helvetica-Light" font-size="20.8" fill="#FEFFFF" transform="matrix(1.00, 0.00, -0.00, -1.00, 79.0, 463.7)">•</text><text xml:space="preserve" font-family="Helvetica-Light" font-size="27.7" fill="#FEFFFF" transform="matrix(1.00, 0.00, -0.00, -1.00, 109.0, 462.0)">H</text><text xml:space="preserve" font-family="Helvetica-Light" font-size="27.7" fill="#FEFFFF" transform="matrix(1.00, 0.00, -0.00, -1.00, 129.0, 462.0)">T</text><text xml:space="preserve" font-family="Helvetica-Light" font-size="27.7" fill="#FEFFFF" transform="matrix(1.00, 0.00, -0.00, -1.00, 144.4, 462.0)">T</text><text xml:space="preserve" font-family="Helvetica-Light" font-size="27.7" fill="#FEFFFF" transform="matrix(1.00, 0.00, -0.00, -1.00, 159.8, 462.0)">P</text><text xml:space="preserve" font-family="Helvetica-Light" font-size="27.7" fill="#FEFFFF" transform="matrix(1.00, 0.00, -0.00, -1.00, 176.8, 462.0)"> </text><text xml:space="preserve" font-family="Helvetica-Light" font-size="27.7" fill="#FEFFFF" transform="matrix(1.00, 0.00, -0.00, -1.00, 184.5, 462.0)">L</text><text xml:space="preserve" font-family="Helvetica-Light" font-size="27.7" fill="#FEFFFF" transform="matrix(1.00, 0.00, -0.00, -1.00, 199.9, 462.0)">i</text><text xml:space="preserve" font-family="Helvetica-Light" font-size="27.7" fill="#FEFFFF" transform="matrix(1.00, 0.00, -0.00, -1.00, 206.0, 462.0)">n</text><text xml:space="preserve" font-family="Helvetica-Light" font-size="27.7" fill="#FEFFFF" transform="matrix(1.00, 0.00, -0.00, -1.00, 221.5, 462.0)">k</text><text xml:space="preserve" font-family="Helvetica-Light" font-size="27.7" fill="#FEFFFF" transform="matrix(1.00, 0.00, -0.00, -1.00, 235.3, 462.0)"> </text><text xml:space="preserve" font-family="Helvetica-Light" font-size="27.7" fill="#FEFFFF" transform="matrix(1.00, 0.00, -0.00, -1.00, 243.0, 462.0)">h</text><text xml:space="preserve" font-family="Helvetica-Light" font-size="27.7" fill="#FEFFFF" transform="matrix(1.00, 0.00, -0.00, -1.00, 258.4, 462.0)">e</text><text xml:space="preserve" font-family="Helvetica-Light" font-size="27.7" fill="#FEFFFF" transform="matrix(1.00, 0.00, -0.00, -1.00, 273.9, 462.0)">a</text><text xml:space="preserve" font-family="Helvetica-Light" font-size="27.7" fill="#FEFFFF" transform="matrix(1.00, 0.00, -0.00, -1.00, 289.3, 462.0)">d</text><text xml:space="preserve" font-family="Helvetica-Light" font-size="27.7" fill="#FEFFFF" transform="matrix(1.00, 0.00, -0.00, -1.00, 306.2, 462.0)">e</text><text xml:space="preserve" font-family="Helvetica-Light" font-size="27.7" fill="#FEFFFF" transform="matrix(1.00, 0.00, -0.00, -1.00, 321.6, 462.0)">r</text><text xml:space="preserve" font-family="Helvetica-Light" font-size="27.7" fill="#FEFFFF" transform="matrix(1.00, 0.00, -0.00, -1.00, 330.8, 462.0)"> </text><text xml:space="preserve" font-family="Helvetica-Light" font-size="27.7" fill="#FEFFFF" transform="matrix(1.00, 0.00, -0.00, -1.00, 109.0, 430.0)">r</text><text xml:space="preserve" font-family="Helvetica-Light" font-size="27.7" fill="#FEFFFF" transform="matrix(1.00, 0.00, -0.00, -1.00, 117.7, 430.0)">e</text><text xml:space="preserve" font-family="Helvetica-Light" font-size="27.7" fill="#FEFFFF" transform="matrix(1.00, 0.00, -0.00, -1.00, 133.1, 430.0)">l</text><text xml:space="preserve" font-family="Helvetica-Light" font-size="27.7" fill="#FEFFFF" transform="matrix(1.00, 0.00, -0.00, -1.00, 139.3, 430.0)">=</text><text xml:space="preserve" font-family="Helvetica-Light" font-size="27.7" fill="#FEFFFF" transform="matrix(1.00, 0.00, -0.00, -1.00, 157.6, 430.0)">“</text><text xml:space="preserve" font-family="Helvetica-LightOblique" font-style="italic" font-size="27.7" fill="#FEFFFF" transform="matrix(1.00, 0.00, -0.00, -1.00, 168.4, 430.0)">d</text><text xml:space="preserve" font-family="Helvetica-LightOblique" font-style="italic" font-size="27.7" fill="#FEFFFF" transform="matrix(1.00, 0.00, -0.00, -1.00, 185.3, 430.0)">e</text><text xml:space="preserve" font-family="Helvetica-LightOblique" font-style="italic" font-size="27.7" fill="#FEFFFF" transform="matrix(1.00, 0.00, -0.00, -1.00, 200.7, 430.0)">s</text><text xml:space="preserve" font-family="Helvetica-LightOblique" font-style="italic" font-size="27.7" fill="#FEFFFF" transform="matrix(1.00, 0.00, -0.00, -1.00, 214.6, 430.0)">c</text><text xml:space="preserve" font-family="Helvetica-LightOblique" font-style="italic" font-size="27.7" fill="#FEFFFF" transform="matrix(1.00, 0.00, -0.00, -1.00, 230.0, 430.0)">r</text><text xml:space="preserve" font-family="Helvetica-LightOblique" font-style="italic" font-size="27.7" fill="#FEFFFF" transform="matrix(1.00, 0.00, -0.00, -1.00, 239.2, 430.0)">i</text><text xml:space="preserve" font-family="Helvetica-LightOblique" font-style="italic" font-size="27.7" fill="#FEFFFF" transform="matrix(1.00, 0.00, -0.00, -1.00, 245.4, 430.0)">b</text><text xml:space="preserve" font-family="Helvetica-LightOblique" font-style="italic" font-size="27.7" fill="#FEFFFF" transform="matrix(1.00, 0.00, -0.00, -1.00, 262.3, 430.0)">e</text><text xml:space="preserve" font-family="Helvetica-LightOblique" font-style="italic" font-size="27.7" fill="#FEFFFF" transform="matrix(1.00, 0.00, -0.00, -1.00, 277.7, 430.0)">d</text><text xml:space="preserve" font-family="Helvetica-LightOblique" font-style="italic" font-size="27.7" fill="#FEFFFF" transform="matrix(1.00, 0.00, -0.00, -1.00, 294.7, 430.0)">b</text><text xml:space="preserve" font-family="Helvetica-LightOblique" font-style="italic" font-size="27.7" fill="#FEFFFF" transform="matrix(1.00, 0.00, -0.00, -1.00, 311.6, 430.0)">y</text><text xml:space="preserve" font-family="Helvetica-Light" font-size="27.7" fill="#FEFFFF" transform="matrix(1.00, 0.00, -0.00, -1.00, 325.5, 430.0)">”</text><text xml:space="preserve" font-family="Helvetica-Light" font-size="27.7" fill="#FEFFFF" transform="matrix(1.00, 0.00, -0.00, -1.00, 336.2, 430.0)"> </text><text xml:space="preserve" font-family="Helvetica-Light" font-size="20.8" fill="#FEFFFF" transform="matrix(1.00, 0.00, -0.00, -1.00, 79.0, 362.0)">•</text><text xml:space="preserve" font-family="Helvetica-Light" font-size="27.7" fill="#FEFFFF" transform="matrix(1.00, 0.00, -0.00, -1.00, 109.0, 360.0)">D</text><text xml:space="preserve" font-family="Helvetica-Light" font-size="27.7" fill="#FEFFFF" transform="matrix(1.00, 0.00, -0.00, -1.00, 129.0, 360.0)">e</text><text xml:space="preserve" font-family="Helvetica-Light" font-size="27.7" fill="#FEFFFF" transform="matrix(1.00, 0.00, -0.00, -1.00, 144.4, 360.0)">f</text><text xml:space="preserve" font-family="Helvetica-Light" font-size="27.7" fill="#FEFFFF" transform="matrix(1.00, 0.00, -0.00, -1.00, 152.1, 360.0)">a</text><text xml:space="preserve" font-family="Helvetica-Light" font-size="27.7" fill="#FEFFFF" transform="matrix(1.00, 0.00, -0.00, -1.00, 167.5, 360.0)">u</text><text xml:space="preserve" font-family="Helvetica-Light" font-size="27.7" fill="#FEFFFF" transform="matrix(1.00, 0.00, -0.00, -1.00, 183.0, 360.0)">l</text><text xml:space="preserve" font-family="Helvetica-Light" font-size="27.7" fill="#FEFFFF" transform="matrix(1.00, 0.00, -0.00, -1.00, 189.1, 360.0)">t</text><text xml:space="preserve" font-family="Helvetica-Light" font-size="27.7" fill="#FEFFFF" transform="matrix(1.00, 0.00, -0.00, -1.00, 196.8, 360.0)"> </text><text xml:space="preserve" font-family="Helvetica-Light" font-size="27.7" fill="#FEFFFF" transform="matrix(1.00, 0.00, -0.00, -1.00, 204.5, 360.0)">l</text><text xml:space="preserve" font-family="Helvetica-Light" font-size="27.7" fill="#FEFFFF" transform="matrix(1.00, 0.00, -0.00, -1.00, 210.7, 360.0)">o</text><text xml:space="preserve" font-family="Helvetica-Light" font-size="27.7" fill="#FEFFFF" transform="matrix(1.00, 0.00, -0.00, -1.00, 226.1, 360.0)">c</text><text xml:space="preserve" font-family="Helvetica-Light" font-size="27.7" fill="#FEFFFF" transform="matrix(1.00, 0.00, -0.00, -1.00, 241.5, 360.0)">a</text><text xml:space="preserve" font-family="Helvetica-Light" font-size="27.7" fill="#FEFFFF" transform="matrix(1.00, 0.00, -0.00, -1.00, 256.9, 360.0)">t</text><text xml:space="preserve" font-family="Helvetica-Light" font-size="27.7" fill="#FEFFFF" transform="matrix(1.00, 0.00, -0.00, -1.00, 264.6, 360.0)">i</text><text xml:space="preserve" font-family="Helvetica-Light" font-size="27.7" fill="#FEFFFF" transform="matrix(1.00, 0.00, -0.00, -1.00, 270.8, 360.0)">o</text><text xml:space="preserve" font-family="Helvetica-Light" font-size="27.7" fill="#FEFFFF" transform="matrix(1.00, 0.00, -0.00, -1.00, 286.2, 360.0)">n</text><text xml:space="preserve" font-family="Helvetica-Light" font-size="27.7" fill="#FEFFFF" transform="matrix(1.00, 0.00, -0.00, -1.00, 301.6, 360.0)">s</text><text xml:space="preserve" font-family="Helvetica-Light" font-size="27.7" fill="#FEFFFF" transform="matrix(1.00, 0.00, -0.00, -1.00, 315.5, 360.0)"> </text><text xml:space="preserve" font-family="Helvetica-Light" font-size="20.8" fill="#FEFFFF" transform="matrix(1.00, 0.00, -0.00, -1.00, 109.0, 292.4)">•</text><text xml:space="preserve" font-family="Helvetica-Light" font-size="27.7" fill="#FEFFFF" transform="matrix(1.00, 0.00, -0.00, -1.00, 139.0, 291.0)">{</text><text xml:space="preserve" font-family="Helvetica-Light" font-size="27.7" fill="#FEFFFF" transform="matrix(1.00, 0.00, -0.00, -1.00, 148.2, 291.0)">+</text><text xml:space="preserve" font-family="Helvetica-Light" font-size="27.7" fill="#FEFFFF" transform="matrix(1.00, 0.00, -0.00, -1.00, 166.5, 291.0)">u</text><text xml:space="preserve" font-family="Helvetica-Light" font-size="27.7" fill="#FEFFFF" transform="matrix(1.00, 0.00, -0.00, -1.00, 181.9, 291.0)">r</text><text xml:space="preserve" font-family="Helvetica-Light" font-size="27.7" fill="#FEFFFF" transform="matrix(1.00, 0.00, -0.00, -1.00, 191.2, 291.0)">l</text><text xml:space="preserve" font-family="Helvetica-Light" font-size="27.7" fill="#FEFFFF" transform="matrix(1.00, 0.00, -0.00, -1.00, 197.3, 291.0)">}</text><text xml:space="preserve" font-family="Helvetica-Light" font-size="27.7" fill="#FEFFFF" transform="matrix(1.00, 0.00, -0.00, -1.00, 206.6, 291.0)">-</text><text xml:space="preserve" font-family="Helvetica-Light" font-size="27.7" fill="#FEFFFF" transform="matrix(1.00, 0.00, -0.00, -1.00, 215.8, 291.0)">m</text><text xml:space="preserve" font-family="Helvetica-Light" font-size="27.7" fill="#FEFFFF" transform="matrix(1.00, 0.00, -0.00, -1.00, 238.9, 291.0)">e</text><text xml:space="preserve" font-family="Helvetica-Light" font-size="27.7" fill="#FEFFFF" transform="matrix(1.00, 0.00, -0.00, -1.00, 254.3, 291.0)">t</text><text xml:space="preserve" font-family="Helvetica-Light" font-size="27.7" fill="#FEFFFF" transform="matrix(1.00, 0.00, -0.00, -1.00, 262.0, 291.0)">a</text><text xml:space="preserve" font-family="Helvetica-Light" font-size="27.7" fill="#FEFFFF" transform="matrix(1.00, 0.00, -0.00, -1.00, 277.4, 291.0)">d</text><text xml:space="preserve" font-family="Helvetica-Light" font-size="27.7" fill="#FEFFFF" transform="matrix(1.00, 0.00, -0.00, -1.00, 294.3, 291.0)">a</text><text xml:space="preserve" font-family="Helvetica-Light" font-size="27.7" fill="#FEFFFF" transform="matrix(1.00, 0.00, -0.00, -1.00, 309.8, 291.0)">t</text><text xml:space="preserve" font-family="Helvetica-Light" font-size="27.7" fill="#FEFFFF" transform="matrix(1.00, 0.00, -0.00, -1.00, 317.5, 291.0)">a</text><text xml:space="preserve" font-family="Helvetica-Light" font-size="27.7" fill="#FEFFFF" transform="matrix(1.00, 0.00, -0.00, -1.00, 332.9, 291.0)">.</text><text xml:space="preserve" font-family="Helvetica-Light" font-size="27.7" fill="#FEFFFF" transform="matrix(1.00, 0.00, -0.00, -1.00, 340.6, 291.0)">j</text><text xml:space="preserve" font-family="Helvetica-Light" font-size="27.7" fill="#FEFFFF" transform="matrix(1.00, 0.00, -0.00, -1.00, 346.7, 291.0)">s</text><text xml:space="preserve" font-family="Helvetica-Light" font-size="27.7" fill="#FEFFFF" transform="matrix(1.00, 0.00, -0.00, -1.00, 360.6, 291.0)">o</text><text xml:space="preserve" font-family="Helvetica-Light" font-size="27.7" fill="#FEFFFF" transform="matrix(1.00, 0.00, -0.00, -1.00, 376.0, 291.0)">n</text><text xml:space="preserve" font-family="Helvetica-Light" font-size="27.7" fill="#FEFFFF" transform="matrix(1.00, 0.00, -0.00, -1.00, 391.4, 291.0)"> </text><text xml:space="preserve" font-family="Helvetica-Light" font-size="20.8" fill="#FEFFFF" transform="matrix(1.00, 0.00, -0.00, -1.00, 109.0, 222.8)">•</text><text xml:space="preserve" font-family="Helvetica-Light" font-size="27.7" fill="#FEFFFF" transform="matrix(1.00, 0.00, -0.00, -1.00, 139.0, 221.0)">c</text><text xml:space="preserve" font-family="Helvetica-Light" font-size="27.7" fill="#FEFFFF" transform="matrix(1.00, 0.00, -0.00, -1.00, 154.4, 221.0)">s</text><text xml:space="preserve" font-family="Helvetica-Light" font-size="27.7" fill="#FEFFFF" transform="matrix(1.00, 0.00, -0.00, -1.00, 168.3, 221.0)">v</text><text xml:space="preserve" font-family="Helvetica-Light" font-size="27.7" fill="#FEFFFF" transform="matrix(1.00, 0.00, -0.00, -1.00, 182.1, 221.0)">-</text><text xml:space="preserve" font-family="Helvetica-Light" font-size="27.7" fill="#FEFFFF" transform="matrix(1.00, 0.00, -0.00, -1.00, 191.4, 221.0)">m</text><text xml:space="preserve" font-family="Helvetica-Light" font-size="27.7" fill="#FEFFFF" transform="matrix(1.00, 0.00, -0.00, -1.00, 214.5, 221.0)">e</text><text xml:space="preserve" font-family="Helvetica-Light" font-size="27.7" fill="#FEFFFF" transform="matrix(1.00, 0.00, -0.00, -1.00, 229.9, 221.0)">t</text><text xml:space="preserve" font-family="Helvetica-Light" font-size="27.7" fill="#FEFFFF" transform="matrix(1.00, 0.00, -0.00, -1.00, 237.6, 221.0)">a</text><text xml:space="preserve" font-family="Helvetica-Light" font-size="27.7" fill="#FEFFFF" transform="matrix(1.00, 0.00, -0.00, -1.00, 253.0, 221.0)">d</text><text xml:space="preserve" font-family="Helvetica-Light" font-size="27.7" fill="#FEFFFF" transform="matrix(1.00, 0.00, -0.00, -1.00, 269.9, 221.0)">a</text><text xml:space="preserve" font-family="Helvetica-Light" font-size="27.7" fill="#FEFFFF" transform="matrix(1.00, 0.00, -0.00, -1.00, 285.3, 221.0)">t</text><text xml:space="preserve" font-family="Helvetica-Light" font-size="27.7" fill="#FEFFFF" transform="matrix(1.00, 0.00, -0.00, -1.00, 293.0, 221.0)">a</text><text xml:space="preserve" font-family="Helvetica-Light" font-size="27.7" fill="#FEFFFF" transform="matrix(1.00, 0.00, -0.00, -1.00, 308.5, 221.0)">.</text><text xml:space="preserve" font-family="Helvetica-Light" font-size="27.7" fill="#FEFFFF" transform="matrix(1.00, 0.00, -0.00, -1.00, 316.2, 221.0)">j</text><text xml:space="preserve" font-family="Helvetica-Light" font-size="27.7" fill="#FEFFFF" transform="matrix(1.00, 0.00, -0.00, -1.00, 322.3, 221.0)">s</text><text xml:space="preserve" font-family="Helvetica-Light" font-size="27.7" fill="#FEFFFF" transform="matrix(1.00, 0.00, -0.00, -1.00, 336.2, 221.0)">o</text><text xml:space="preserve" font-family="Helvetica-Light" font-size="27.7" fill="#FEFFFF" transform="matrix(1.00, 0.00, -0.00, -1.00, 351.6, 221.0)">n</text><text xml:space="preserve" font-family="Helvetica-Light" font-size="27.7" fill="#FEFFFF" transform="matrix(1.00, 0.00, -0.00, -1.00, 367.0, 221.0)"> </text><text xml:space="preserve" font-family="Helvetica-Light" font-size="20.8" fill="#FEFFFF" transform="matrix(1.00, 0.00, -0.00, -1.00, 109.0, 153.2)">•</text><text xml:space="preserve" font-family="Helvetica-Light" font-size="27.7" fill="#FEFFFF" transform="matrix(1.00, 0.00, -0.00, -1.00, 139.0, 151.0)">/</text><text xml:space="preserve" font-family="Helvetica-Light" font-size="27.7" fill="#FEFFFF" transform="matrix(1.00, 0.00, -0.00, -1.00, 146.7, 151.0)">.</text><text xml:space="preserve" font-family="Helvetica-Light" font-size="27.7" fill="#FEFFFF" transform="matrix(1.00, 0.00, -0.00, -1.00, 154.4, 151.0)">w</text><text xml:space="preserve" font-family="Helvetica-Light" font-size="27.7" fill="#FEFFFF" transform="matrix(1.00, 0.00, -0.00, -1.00, 174.4, 151.0)">e</text><text xml:space="preserve" font-family="Helvetica-Light" font-size="27.7" fill="#FEFFFF" transform="matrix(1.00, 0.00, -0.00, -1.00, 189.8, 151.0)">l</text><text xml:space="preserve" font-family="Helvetica-Light" font-size="27.7" fill="#FEFFFF" transform="matrix(1.00, 0.00, -0.00, -1.00, 196.0, 151.0)">l</text><text xml:space="preserve" font-family="Helvetica-Light" font-size="27.7" fill="#FEFFFF" transform="matrix(1.00, 0.00, -0.00, -1.00, 202.1, 151.0)">-</text><text xml:space="preserve" font-family="Helvetica-Light" font-size="27.7" fill="#FEFFFF" transform="matrix(1.00, 0.00, -0.00, -1.00, 211.4, 151.0)">k</text><text xml:space="preserve" font-family="Helvetica-Light" font-size="27.7" fill="#FEFFFF" transform="matrix(1.00, 0.00, -0.00, -1.00, 225.2, 151.0)">n</text><text xml:space="preserve" font-family="Helvetica-Light" font-size="27.7" fill="#FEFFFF" transform="matrix(1.00, 0.00, -0.00, -1.00, 240.6, 151.0)">o</text><text xml:space="preserve" font-family="Helvetica-Light" font-size="27.7" fill="#FEFFFF" transform="matrix(1.00, 0.00, -0.00, -1.00, 256.1, 151.0)">w</text><text xml:space="preserve" font-family="Helvetica-Light" font-size="27.7" fill="#FEFFFF" transform="matrix(1.00, 0.00, -0.00, -1.00, 276.1, 151.0)">n</text><text xml:space="preserve" font-family="Helvetica-Light" font-size="27.7" fill="#FEFFFF" transform="matrix(1.00, 0.00, -0.00, -1.00, 291.5, 151.0)">/</text><text xml:space="preserve" font-family="Helvetica-Light" font-size="27.7" fill="#FEFFFF" transform="matrix(1.00, 0.00, -0.00, -1.00, 299.2, 151.0)">c</text><text xml:space="preserve" font-family="Helvetica-Light" font-size="27.7" fill="#FEFFFF" transform="matrix(1.00, 0.00, -0.00, -1.00, 314.6, 151.0)">s</text><text xml:space="preserve" font-family="Helvetica-Light" font-size="27.7" fill="#FEFFFF" transform="matrix(1.00, 0.00, -0.00, -1.00, 328.5, 151.0)">v</text><text xml:space="preserve" font-family="Helvetica-Light" font-size="27.7" fill="#FEFFFF" transform="matrix(1.00, 0.00, -0.00, -1.00, 342.3, 151.0)">m</text><text xml:space="preserve" font-family="Helvetica-Light" font-size="27.7" fill="#FEFFFF" transform="matrix(1.00, 0.00, -0.00, -1.00, 365.4, 151.0)"> </text><text xml:space="preserve" font-family="Helvetica-Light" font-size="20.8" fill="#FEFFFF" transform="matrix(1.00, 0.00, -0.00, -1.00, 79.0, 83.6)">•</text><text xml:space="preserve" font-family="Helvetica-Light" font-size="27.7" fill="#FEFFFF" transform="matrix(1.00, 0.00, -0.00, -1.00, 109.0, 82.0)">E</text><text xml:space="preserve" font-family="Helvetica-Light" font-size="27.7" fill="#FEFFFF" transform="matrix(1.00, 0.00, -0.00, -1.00, 125.9, 82.0)">m</text><text xml:space="preserve" font-family="Helvetica-Light" font-size="27.7" fill="#FEFFFF" transform="matrix(1.00, 0.00, -0.00, -1.00, 149.0, 82.0)">b</text><text xml:space="preserve" font-family="Helvetica-Light" font-size="27.7" fill="#FEFFFF" transform="matrix(1.00, 0.00, -0.00, -1.00, 166.0, 82.0)">e</text><text xml:space="preserve" font-family="Helvetica-Light" font-size="27.7" fill="#FEFFFF" transform="matrix(1.00, 0.00, -0.00, -1.00, 181.4, 82.0)">d</text><text xml:space="preserve" font-family="Helvetica-Light" font-size="27.7" fill="#FEFFFF" transform="matrix(1.00, 0.00, -0.00, -1.00, 198.3, 82.0)">d</text><text xml:space="preserve" font-family="Helvetica-Light" font-size="27.7" fill="#FEFFFF" transform="matrix(1.00, 0.00, -0.00, -1.00, 215.3, 82.0)">e</text><text xml:space="preserve" font-family="Helvetica-Light" font-size="27.7" fill="#FEFFFF" transform="matrix(1.00, 0.00, -0.00, -1.00, 230.7, 82.0)">d</text><text xml:space="preserve" font-family="Helvetica-Light" font-size="27.7" fill="#FEFFFF" transform="matrix(1.00, 0.00, -0.00, -1.00, 247.6, 82.0)"> </text><text xml:space="preserve" font-family="Helvetica-Light" font-size="27.7" fill="#FEFFFF" transform="matrix(1.00, 0.00, -0.00, -1.00, 255.3, 82.0)">M</text><text xml:space="preserve" font-family="Helvetica-Light" font-size="27.7" fill="#FEFFFF" transform="matrix(1.00, 0.00, -0.00, -1.00, 278.4, 82.0)">e</text><text xml:space="preserve" font-family="Helvetica-Light" font-size="27.7" fill="#FEFFFF" transform="matrix(1.00, 0.00, -0.00, -1.00, 293.8, 82.0)">t</text><text xml:space="preserve" font-family="Helvetica-Light" font-size="27.7" fill="#FEFFFF" transform="matrix(1.00, 0.00, -0.00, -1.00, 301.5, 82.0)">a</text><text xml:space="preserve" font-family="Helvetica-Light" font-size="27.7" fill="#FEFFFF" transform="matrix(1.00, 0.00, -0.00, -1.00, 316.9, 82.0)">d</text><text xml:space="preserve" font-family="Helvetica-Light" font-size="27.7" fill="#FEFFFF" transform="matrix(1.00, 0.00, -0.00, -1.00, 333.9, 82.0)">a</text><text xml:space="preserve" font-family="Helvetica-Light" font-size="27.7" fill="#FEFFFF" transform="matrix(1.00, 0.00, -0.00, -1.00, 349.3, 82.0)">t</text><text xml:space="preserve" font-family="Helvetica-Light" font-size="27.7" fill="#FEFFFF" transform="matrix(1.00, 0.00, -0.00, -1.00, 357.0, 82.0)">a</text><text xml:space="preserve" font-family="Helvetica-Light" font-size="18.0" fill="#FEFFFF" transform="matrix(1.00, 0.00, -0.00, -1.00, 501.0, 18.0)">2</text><text xml:space="preserve" font-family="Helvetica-Light" font-size="18.0" fill="#FEFFFF" transform="matrix(1.00, 0.00, -0.00, -1.00, 511.0, 18.0)">1</text><path d="M 538.4 494.8 L 911.8 494.8 L 911.8 410.8 L 538.4 410.8 Z M 538.4 494.8 " fill="#FEFFFF"></path><g><clipPath id="clip-2136"><path d="M 538.4 410.8 L 911.8 410.8 L 911.8 494.8 L 538.4 494.8 Z M 538.4 410.8 "></path></clipPath><g clip-path="url(#clip-2136)"><text xml:space="preserve" font-family="Courier" font-size="13.0" fill="#C83500" transform="matrix(1.00, 0.00, -0.00, -1.00, 553.0, 475.0)">•</text><text xml:space="preserve" font-family="Courier" font-size="13.0" fill="#C83500" transform="matrix(1.00, 0.00, -0.00, -1.00, 578.0, 475.0)">r</text><text xml:space="preserve" font-family="Courier" font-size="13.0" fill="#C83500" transform="matrix(1.00, 0.00, -0.00, -1.00, 585.8, 475.0)">e</text><text xml:space="preserve" font-family="Courier" font-size="13.0" fill="#C83500" transform="matrix(1.00, 0.00, -0.00, -1.00, 593.6, 475.0)">l</text><text xml:space="preserve" font-family="Courier" font-size="13.0" fill="#C83500" transform="matrix(1.00, 0.00, -0.00, -1.00, 601.4, 475.0)">=</text><text xml:space="preserve" font-family="Courier" font-size="13.0" fill="#C83500" transform="matrix(1.00, 0.00, -0.00, -1.00, 609.2, 475.0)">"</text><text xml:space="preserve" font-family="Courier" font-size="13.0" fill="#C83500" transform="matrix(1.00, 0.00, -0.00, -1.00, 617.0, 475.0)">d</text><text xml:space="preserve" font-family="Courier" font-size="13.0" fill="#C83500" transform="matrix(1.00, 0.00, -0.00, -1.00, 624.8, 475.0)">e</text><text xml:space="preserve" font-family="Courier" font-size="13.0" fill="#C83500" transform="matrix(1.00, 0.00, -0.00, -1.00, 632.6, 475.0)">s</text><text xml:space="preserve" font-family="Courier" font-size="13.0" fill="#C83500" transform="matrix(1.00, 0.00, -0.00, -1.00, 640.4, 475.0)">c</text><text xml:space="preserve" font-family="Courier" font-size="13.0" fill="#C83500" transform="matrix(1.00, 0.00, -0.00, -1.00, 648.2, 475.0)">r</text><text xml:space="preserve" font-family="Courier" font-size="13.0" fill="#C83500" transform="matrix(1.00, 0.00, -0.00, -1.00, 656.0, 475.0)">i</text><text xml:space="preserve" font-family="Courier" font-size="13.0" fill="#C83500" transform="matrix(1.00, 0.00, -0.00, -1.00, 663.8, 475.0)">b</text><text xml:space="preserve" font-family="Courier" font-size="13.0" fill="#C83500" transform="matrix(1.00, 0.00, -0.00, -1.00, 671.6, 475.0)">e</text><text xml:space="preserve" font-family="Courier" font-size="13.0" fill="#C83500" transform="matrix(1.00, 0.00, -0.00, -1.00, 679.4, 475.0)">d</text><text xml:space="preserve" font-family="Courier" font-size="13.0" fill="#C83500" transform="matrix(1.00, 0.00, -0.00, -1.00, 687.2, 475.0)">b</text><text xml:space="preserve" font-family="Courier" font-size="13.0" fill="#C83500" transform="matrix(1.00, 0.00, -0.00, -1.00, 695.0, 475.0)">y</text><text xml:space="preserve" font-family="Courier" font-size="13.0" fill="#C83500" transform="matrix(1.00, 0.00, -0.00, -1.00, 702.8, 475.0)">"</text><text xml:space="preserve" font-family="Helvetica" font-size="16.0" fill="#000000" transform="matrix(1.00, 0.00, -0.00, -1.00, 710.6, 475.0)">,</text><text xml:space="preserve" font-family="Helvetica" font-size="16.0" fill="#000000" transform="matrix(1.00, 0.00, -0.00, -1.00, 715.1, 475.0)"> </text><text xml:space="preserve" font-family="Helvetica" font-size="16.0" fill="#000000" transform="matrix(1.00, 0.00, -0.00, -1.00, 719.5, 475.0)">a</text><text xml:space="preserve" font-family="Helvetica" font-size="16.0" fill="#000000" transform="matrix(1.00, 0.00, -0.00, -1.00, 728.4, 475.0)">n</text><text xml:space="preserve" font-family="Helvetica" font-size="16.0" fill="#000000" transform="matrix(1.00, 0.00, -0.00, -1.00, 737.3, 475.0)">d</text><text xml:space="preserve" font-family="Courier" font-size="13.0" fill="#C83500" transform="matrix(1.00, 0.00, -0.00, -1.00, 553.0, 456.0)">•</text><text xml:space="preserve" font-family="Courier" font-size="13.0" fill="#C83500" transform="matrix(1.00, 0.00, -0.00, -1.00, 578.0, 456.0)">t</text><text xml:space="preserve" font-family="Courier" font-size="13.0" fill="#C83500" transform="matrix(1.00, 0.00, -0.00, -1.00, 585.8, 456.0)">y</text><text xml:space="preserve" font-family="Courier" font-size="13.0" fill="#C83500" transform="matrix(1.00, 0.00, -0.00, -1.00, 593.6, 456.0)">p</text><text xml:space="preserve" font-family="Courier" font-size="13.0" fill="#C83500" transform="matrix(1.00, 0.00, -0.00, -1.00, 601.4, 456.0)">e</text><text xml:space="preserve" font-family="Courier" font-size="13.0" fill="#C83500" transform="matrix(1.00, 0.00, -0.00, -1.00, 609.2, 456.0)">=</text><text xml:space="preserve" font-family="Courier" font-size="13.0" fill="#C83500" transform="matrix(1.00, 0.00, -0.00, -1.00, 617.0, 456.0)">"</text><text xml:space="preserve" font-family="Courier" font-size="13.0" fill="#C83500" transform="matrix(1.00, 0.00, -0.00, -1.00, 624.8, 456.0)">a</text><text xml:space="preserve" font-family="Courier" font-size="13.0" fill="#C83500" transform="matrix(1.00, 0.00, -0.00, -1.00, 632.6, 456.0)">p</text><text xml:space="preserve" font-family="Courier" font-size="13.0" fill="#C83500" transform="matrix(1.00, 0.00, -0.00, -1.00, 640.4, 456.0)">p</text><text xml:space="preserve" font-family="Courier" font-size="13.0" fill="#C83500" transform="matrix(1.00, 0.00, -0.00, -1.00, 648.2, 456.0)">l</text><text xml:space="preserve" font-family="Courier" font-size="13.0" fill="#C83500" transform="matrix(1.00, 0.00, -0.00, -1.00, 656.0, 456.0)">i</text><text xml:space="preserve" font-family="Courier" font-size="13.0" fill="#C83500" transform="matrix(1.00, 0.00, -0.00, -1.00, 663.8, 456.0)">c</text><text xml:space="preserve" font-family="Courier" font-size="13.0" fill="#C83500" transform="matrix(1.00, 0.00, -0.00, -1.00, 671.6, 456.0)">a</text><text xml:space="preserve" font-family="Courier" font-size="13.0" fill="#C83500" transform="matrix(1.00, 0.00, -0.00, -1.00, 679.4, 456.0)">t</text><text xml:space="preserve" font-family="Courier" font-size="13.0" fill="#C83500" transform="matrix(1.00, 0.00, -0.00, -1.00, 687.2, 456.0)">i</text><text xml:space="preserve" font-family="Courier" font-size="13.0" fill="#C83500" transform="matrix(1.00, 0.00, -0.00, -1.00, 695.0, 456.0)">o</text><text xml:space="preserve" font-family="Courier" font-size="13.0" fill="#C83500" transform="matrix(1.00, 0.00, -0.00, -1.00, 702.8, 456.0)">n</text><text xml:space="preserve" font-family="Courier" font-size="13.0" fill="#C83500" transform="matrix(1.00, 0.00, -0.00, -1.00, 710.6, 456.0)">/</text><text xml:space="preserve" font-family="Courier" font-size="13.0" fill="#C83500" transform="matrix(1.00, 0.00, -0.00, -1.00, 718.4, 456.0)">c</text><text xml:space="preserve" font-family="Courier" font-size="13.0" fill="#C83500" transform="matrix(1.00, 0.00, -0.00, -1.00, 726.3, 456.0)">s</text><text xml:space="preserve" font-family="Courier" font-size="13.0" fill="#C83500" transform="matrix(1.00, 0.00, -0.00, -1.00, 734.1, 456.0)">v</text><text xml:space="preserve" font-family="Courier" font-size="13.0" fill="#C83500" transform="matrix(1.00, 0.00, -0.00, -1.00, 741.9, 456.0)">m</text><text xml:space="preserve" font-family="Courier" font-size="13.0" fill="#C83500" transform="matrix(1.00, 0.00, -0.00, -1.00, 749.7, 456.0)">+</text><text xml:space="preserve" font-family="Courier" font-size="13.0" fill="#C83500" transform="matrix(1.00, 0.00, -0.00, -1.00, 757.5, 456.0)">j</text><text xml:space="preserve" font-family="Courier" font-size="13.0" fill="#C83500" transform="matrix(1.00, 0.00, -0.00, -1.00, 765.3, 456.0)">s</text><text xml:space="preserve" font-family="Courier" font-size="13.0" fill="#C83500" transform="matrix(1.00, 0.00, -0.00, -1.00, 773.1, 456.0)">o</text><text xml:space="preserve" font-family="Courier" font-size="13.0" fill="#C83500" transform="matrix(1.00, 0.00, -0.00, -1.00, 780.9, 456.0)">n</text><text xml:space="preserve" font-family="Courier" font-size="13.0" fill="#C83500" transform="matrix(1.00, 0.00, -0.00, -1.00, 788.7, 456.0)">"</text><text xml:space="preserve" font-family="Helvetica" font-size="16.0" fill="#000000" transform="matrix(1.00, 0.00, -0.00, -1.00, 796.4, 456.0)">,</text><text xml:space="preserve" font-family="Helvetica" font-size="16.0" fill="#000000" transform="matrix(1.00, 0.00, -0.00, -1.00, 800.9, 456.0)"> </text><text xml:space="preserve" font-family="Courier" font-size="13.0" fill="#C83500" transform="matrix(1.00, 0.00, -0.00, -1.00, 578.0, 437.0)">t</text><text xml:space="preserve" font-family="Courier" font-size="13.0" fill="#C83500" transform="matrix(1.00, 0.00, -0.00, -1.00, 585.8, 437.0)">y</text><text xml:space="preserve" font-family="Courier" font-size="13.0" fill="#C83500" transform="matrix(1.00, 0.00, -0.00, -1.00, 593.6, 437.0)">p</text><text xml:space="preserve" font-family="Courier" font-size="13.0" fill="#C83500" transform="matrix(1.00, 0.00, -0.00, -1.00, 601.4, 437.0)">e</text><text xml:space="preserve" font-family="Courier" font-size="13.0" fill="#C83500" transform="matrix(1.00, 0.00, -0.00, -1.00, 609.2, 437.0)">=</text><text xml:space="preserve" font-family="Courier" font-size="13.0" fill="#C83500" transform="matrix(1.00, 0.00, -0.00, -1.00, 617.0, 437.0)">"</text><text xml:space="preserve" font-family="Courier" font-size="13.0" fill="#C83500" transform="matrix(1.00, 0.00, -0.00, -1.00, 624.8, 437.0)">a</text><text xml:space="preserve" font-family="Courier" font-size="13.0" fill="#C83500" transform="matrix(1.00, 0.00, -0.00, -1.00, 632.6, 437.0)">p</text><text xml:space="preserve" font-family="Courier" font-size="13.0" fill="#C83500" transform="matrix(1.00, 0.00, -0.00, -1.00, 640.4, 437.0)">p</text><text xml:space="preserve" font-family="Courier" font-size="13.0" fill="#C83500" transform="matrix(1.00, 0.00, -0.00, -1.00, 648.2, 437.0)">l</text><text xml:space="preserve" font-family="Courier" font-size="13.0" fill="#C83500" transform="matrix(1.00, 0.00, -0.00, -1.00, 656.0, 437.0)">i</text><text xml:space="preserve" font-family="Courier" font-size="13.0" fill="#C83500" transform="matrix(1.00, 0.00, -0.00, -1.00, 663.8, 437.0)">c</text><text xml:space="preserve" font-family="Courier" font-size="13.0" fill="#C83500" transform="matrix(1.00, 0.00, -0.00, -1.00, 671.6, 437.0)">a</text><text xml:space="preserve" font-family="Courier" font-size="13.0" fill="#C83500" transform="matrix(1.00, 0.00, -0.00, -1.00, 679.4, 437.0)">t</text><text xml:space="preserve" font-family="Courier" font-size="13.0" fill="#C83500" transform="matrix(1.00, 0.00, -0.00, -1.00, 687.2, 437.0)">i</text><text xml:space="preserve" font-family="Courier" font-size="13.0" fill="#C83500" transform="matrix(1.00, 0.00, -0.00, -1.00, 695.0, 437.0)">o</text><text xml:space="preserve" font-family="Courier" font-size="13.0" fill="#C83500" transform="matrix(1.00, 0.00, -0.00, -1.00, 702.8, 437.0)">n</text><text xml:space="preserve" font-family="Courier" font-size="13.0" fill="#C83500" transform="matrix(1.00, 0.00, -0.00, -1.00, 710.6, 437.0)">/</text><text xml:space="preserve" font-family="Courier" font-size="13.0" fill="#C83500" transform="matrix(1.00, 0.00, -0.00, -1.00, 718.4, 437.0)">l</text><text xml:space="preserve" font-family="Courier" font-size="13.0" fill="#C83500" transform="matrix(1.00, 0.00, -0.00, -1.00, 726.2, 437.0)">d</text><text xml:space="preserve" font-family="Courier" font-size="13.0" fill="#C83500" transform="matrix(1.00, 0.00, -0.00, -1.00, 734.1, 437.0)">+</text><text xml:space="preserve" font-family="Courier" font-size="13.0" fill="#C83500" transform="matrix(1.00, 0.00, -0.00, -1.00, 741.9, 437.0)">j</text><text xml:space="preserve" font-family="Courier" font-size="13.0" fill="#C83500" transform="matrix(1.00, 0.00, -0.00, -1.00, 749.7, 437.0)">s</text><text xml:space="preserve" font-family="Courier" font-size="13.0" fill="#C83500" transform="matrix(1.00, 0.00, -0.00, -1.00, 757.5, 437.0)">o</text><text xml:space="preserve" font-family="Courier" font-size="13.0" fill="#C83500" transform="matrix(1.00, 0.00, -0.00, -1.00, 765.3, 437.0)">n</text><text xml:space="preserve" font-family="Courier" font-size="13.0" fill="#C83500" transform="matrix(1.00, 0.00, -0.00, -1.00, 773.1, 437.0)">"</text><text xml:space="preserve" font-family="Helvetica" font-size="16.0" fill="#000000" transform="matrix(1.00, 0.00, -0.00, -1.00, 780.8, 437.0)"> </text><text xml:space="preserve" font-family="Helvetica" font-size="16.0" fill="#000000" transform="matrix(1.00, 0.00, -0.00, -1.00, 785.3, 437.0)">o</text><text xml:space="preserve" font-family="Helvetica" font-size="16.0" fill="#000000" transform="matrix(1.00, 0.00, -0.00, -1.00, 794.2, 437.0)">r</text><text xml:space="preserve" font-family="Helvetica" font-size="16.0" fill="#000000" transform="matrix(1.00, 0.00, -0.00, -1.00, 799.5, 437.0)"> </text><text xml:space="preserve" font-family="Courier" font-size="13.0" fill="#C83500" transform="matrix(1.00, 0.00, -0.00, -1.00, 578.0, 418.0)">t</text><text xml:space="preserve" font-family="Courier" font-size="13.0" fill="#C83500" transform="matrix(1.00, 0.00, -0.00, -1.00, 585.8, 418.0)">y</text><text xml:space="preserve" font-family="Courier" font-size="13.0" fill="#C83500" transform="matrix(1.00, 0.00, -0.00, -1.00, 593.6, 418.0)">p</text><text xml:space="preserve" font-family="Courier" font-size="13.0" fill="#C83500" transform="matrix(1.00, 0.00, -0.00, -1.00, 601.4, 418.0)">e</text><text xml:space="preserve" font-family="Courier" font-size="13.0" fill="#C83500" transform="matrix(1.00, 0.00, -0.00, -1.00, 609.2, 418.0)">=</text><text xml:space="preserve" font-family="Courier" font-size="13.0" fill="#C83500" transform="matrix(1.00, 0.00, -0.00, -1.00, 617.0, 418.0)">"</text><text xml:space="preserve" font-family="Courier" font-size="13.0" fill="#C83500" transform="matrix(1.00, 0.00, -0.00, -1.00, 624.8, 418.0)">a</text><text xml:space="preserve" font-family="Courier" font-size="13.0" fill="#C83500" transform="matrix(1.00, 0.00, -0.00, -1.00, 632.6, 418.0)">p</text><text xml:space="preserve" font-family="Courier" font-size="13.0" fill="#C83500" transform="matrix(1.00, 0.00, -0.00, -1.00, 640.4, 418.0)">p</text><text xml:space="preserve" font-family="Courier" font-size="13.0" fill="#C83500" transform="matrix(1.00, 0.00, -0.00, -1.00, 648.2, 418.0)">l</text><text xml:space="preserve" font-family="Courier" font-size="13.0" fill="#C83500" transform="matrix(1.00, 0.00, -0.00, -1.00, 656.0, 418.0)">i</text><text xml:space="preserve" font-family="Courier" font-size="13.0" fill="#C83500" transform="matrix(1.00, 0.00, -0.00, -1.00, 663.8, 418.0)">c</text><text xml:space="preserve" font-family="Courier" font-size="13.0" fill="#C83500" transform="matrix(1.00, 0.00, -0.00, -1.00, 671.6, 418.0)">a</text><text xml:space="preserve" font-family="Courier" font-size="13.0" fill="#C83500" transform="matrix(1.00, 0.00, -0.00, -1.00, 679.4, 418.0)">t</text><text xml:space="preserve" font-family="Courier" font-size="13.0" fill="#C83500" transform="matrix(1.00, 0.00, -0.00, -1.00, 687.2, 418.0)">i</text><text xml:space="preserve" font-family="Courier" font-size="13.0" fill="#C83500" transform="matrix(1.00, 0.00, -0.00, -1.00, 695.0, 418.0)">o</text><text xml:space="preserve" font-family="Courier" font-size="13.0" fill="#C83500" transform="matrix(1.00, 0.00, -0.00, -1.00, 702.8, 418.0)">n</text><text xml:space="preserve" font-family="Courier" font-size="13.0" fill="#C83500" transform="matrix(1.00, 0.00, -0.00, -1.00, 710.6, 418.0)">/</text><text xml:space="preserve" font-family="Courier" font-size="13.0" fill="#C83500" transform="matrix(1.00, 0.00, -0.00, -1.00, 718.4, 418.0)">j</text><text xml:space="preserve" font-family="Courier" font-size="13.0" fill="#C83500" transform="matrix(1.00, 0.00, -0.00, -1.00, 726.2, 418.0)">s</text><text xml:space="preserve" font-family="Courier" font-size="13.0" fill="#C83500" transform="matrix(1.00, 0.00, -0.00, -1.00, 734.1, 418.0)">o</text><text xml:space="preserve" font-family="Courier" font-size="13.0" fill="#C83500" transform="matrix(1.00, 0.00, -0.00, -1.00, 741.9, 418.0)">n</text><text xml:space="preserve" font-family="Courier" font-size="13.0" fill="#C83500" transform="matrix(1.00, 0.00, -0.00, -1.00, 749.7, 418.0)">"</text><text xml:space="preserve" font-family="Helvetica" font-size="16.0" fill="#000000" transform="matrix(1.00, 0.00, -0.00, -1.00, 757.4, 418.0)">.</text></g></g><path d="M 542.4 185.6 L 915.8 185.6 L 915.8 145.6 L 542.4 145.6 Z M 542.4 185.6 " fill="#FEFFFF"></path><g><clipPath id="clip-2137"><path d="M 542.4 145.6 L 915.8 145.6 L 915.8 185.6 L 542.4 185.6 Z M 542.4 145.6 "></path></clipPath><g clip-path="url(#clip-2137)"><text xml:space="preserve" font-family="Courier" font-size="13.0" fill="#000000" transform="matrix(1.00, 0.00, -0.00, -1.00, 546.0, 169.0)">{</text><text xml:space="preserve" font-family="Courier" font-size="13.0" fill="#000000" transform="matrix(1.00, 0.00, -0.00, -1.00, 553.8, 169.0)">+</text><text xml:space="preserve" font-family="Courier" font-size="13.0" fill="#000000" transform="matrix(1.00, 0.00, -0.00, -1.00, 561.6, 169.0)">u</text><text xml:space="preserve" font-family="Courier" font-size="13.0" fill="#000000" transform="matrix(1.00, 0.00, -0.00, -1.00, 569.4, 169.0)">r</text><text xml:space="preserve" font-family="Courier" font-size="13.0" fill="#000000" transform="matrix(1.00, 0.00, -0.00, -1.00, 577.2, 169.0)">l</text><text xml:space="preserve" font-family="Courier" font-size="13.0" fill="#000000" transform="matrix(1.00, 0.00, -0.00, -1.00, 585.0, 169.0)">}</text><text xml:space="preserve" font-family="Courier" font-size="13.0" fill="#000000" transform="matrix(1.00, 0.00, -0.00, -1.00, 592.8, 169.0)">-</text><text xml:space="preserve" font-family="Courier" font-size="13.0" fill="#000000" transform="matrix(1.00, 0.00, -0.00, -1.00, 600.6, 169.0)">m</text><text xml:space="preserve" font-family="Courier" font-size="13.0" fill="#000000" transform="matrix(1.00, 0.00, -0.00, -1.00, 608.4, 169.0)">e</text><text xml:space="preserve" font-family="Courier" font-size="13.0" fill="#000000" transform="matrix(1.00, 0.00, -0.00, -1.00, 616.2, 169.0)">t</text><text xml:space="preserve" font-family="Courier" font-size="13.0" fill="#000000" transform="matrix(1.00, 0.00, -0.00, -1.00, 624.0, 169.0)">a</text><text xml:space="preserve" font-family="Courier" font-size="13.0" fill="#000000" transform="matrix(1.00, 0.00, -0.00, -1.00, 631.8, 169.0)">d</text><text xml:space="preserve" font-family="Courier" font-size="13.0" fill="#000000" transform="matrix(1.00, 0.00, -0.00, -1.00, 639.6, 169.0)">a</text><text xml:space="preserve" font-family="Courier" font-size="13.0" fill="#000000" transform="matrix(1.00, 0.00, -0.00, -1.00, 647.4, 169.0)">t</text><text xml:space="preserve" font-family="Courier" font-size="13.0" fill="#000000" transform="matrix(1.00, 0.00, -0.00, -1.00, 655.2, 169.0)">a</text><text xml:space="preserve" font-family="Courier" font-size="13.0" fill="#000000" transform="matrix(1.00, 0.00, -0.00, -1.00, 663.0, 169.0)">.</text><text xml:space="preserve" font-family="Courier" font-size="13.0" fill="#000000" transform="matrix(1.00, 0.00, -0.00, -1.00, 670.8, 169.0)">j</text><text xml:space="preserve" font-family="Courier" font-size="13.0" fill="#000000" transform="matrix(1.00, 0.00, -0.00, -1.00, 678.6, 169.0)">s</text><text xml:space="preserve" font-family="Courier" font-size="13.0" fill="#000000" transform="matrix(1.00, 0.00, -0.00, -1.00, 686.4, 169.0)">o</text><text xml:space="preserve" font-family="Courier" font-size="13.0" fill="#000000" transform="matrix(1.00, 0.00, -0.00, -1.00, 694.2, 169.0)">n</text><text xml:space="preserve" font-family="Courier" font-size="13.0" fill="#000000" transform="matrix(1.00, 0.00, -0.00, -1.00, 546.0, 153.0)">c</text><text xml:space="preserve" font-family="Courier" font-size="13.0" fill="#000000" transform="matrix(1.00, 0.00, -0.00, -1.00, 553.8, 153.0)">s</text><text xml:space="preserve" font-family="Courier" font-size="13.0" fill="#000000" transform="matrix(1.00, 0.00, -0.00, -1.00, 561.6, 153.0)">v</text><text xml:space="preserve" font-family="Courier" font-size="13.0" fill="#000000" transform="matrix(1.00, 0.00, -0.00, -1.00, 569.4, 153.0)">-</text><text xml:space="preserve" font-family="Courier" font-size="13.0" fill="#000000" transform="matrix(1.00, 0.00, -0.00, -1.00, 577.2, 153.0)">m</text><text xml:space="preserve" font-family="Courier" font-size="13.0" fill="#000000" transform="matrix(1.00, 0.00, -0.00, -1.00, 585.0, 153.0)">e</text><text xml:space="preserve" font-family="Courier" font-size="13.0" fill="#000000" transform="matrix(1.00, 0.00, -0.00, -1.00, 592.8, 153.0)">t</text><text xml:space="preserve" font-family="Courier" font-size="13.0" fill="#000000" transform="matrix(1.00, 0.00, -0.00, -1.00, 600.6, 153.0)">a</text><text xml:space="preserve" font-family="Courier" font-size="13.0" fill="#000000" transform="matrix(1.00, 0.00, -0.00, -1.00, 608.4, 153.0)">d</text><text xml:space="preserve" font-family="Courier" font-size="13.0" fill="#000000" transform="matrix(1.00, 0.00, -0.00, -1.00, 616.2, 153.0)">a</text><text xml:space="preserve" font-family="Courier" font-size="13.0" fill="#000000" transform="matrix(1.00, 0.00, -0.00, -1.00, 624.0, 153.0)">t</text><text xml:space="preserve" font-family="Courier" font-size="13.0" fill="#000000" transform="matrix(1.00, 0.00, -0.00, -1.00, 631.8, 153.0)">a</text><text xml:space="preserve" font-family="Courier" font-size="13.0" fill="#000000" transform="matrix(1.00, 0.00, -0.00, -1.00, 639.6, 153.0)">.</text><text xml:space="preserve" font-family="Courier" font-size="13.0" fill="#000000" transform="matrix(1.00, 0.00, -0.00, -1.00, 647.4, 153.0)">j</text><text xml:space="preserve" font-family="Courier" font-size="13.0" fill="#000000" transform="matrix(1.00, 0.00, -0.00, -1.00, 655.2, 153.0)">s</text><text xml:space="preserve" font-family="Courier" font-size="13.0" fill="#000000" transform="matrix(1.00, 0.00, -0.00, -1.00, 663.0, 153.0)">o</text><text xml:space="preserve" font-family="Courier" font-size="13.0" fill="#000000" transform="matrix(1.00, 0.00, -0.00, -1.00, 670.8, 153.0)">n</text></g></g></g></svg>