<?xml version="1.0" encoding="UTF-8" standalone="no"?><svg xmlns="http://www.w3.org/2000/svg" xmlns:xlink="http://www.w3.org/1999/xlink" clip-rule="evenodd" stroke-miterlimit="4.00" viewBox="0 0 1024 768"><desc>SVG generated by Keynote</desc><defs></defs><g transform="matrix(1.00, 0.00, -0.00, -1.00, 0.0, 768.0)"><g><clipPath id="clip-2344"><path d="M 0.0 768.0 L 1024.0 768.0 L 1024.0 0.0 L 0.0 0.0 Z M 0.0 768.0 "></path></clipPath><g clip-path="url(#clip-2344)"><image xlink:href="../../D64B4BA4-DFE2-4353-AFBC-0E9752749D8B/assets/E7ABA782A15EA3475B4CFCC80A2FEB63.jpeg" width="1024.00" height="768.00" transform="matrix(1.00, 0.00, -0.00, -1.00, 0.0, 768.0)"></image></g></g><text xml:space="preserve" font-family="Helvetica-Light" font-size="80.0" fill="#FEFFFF" transform="matrix(1.00, 0.00, -0.00, -1.00, 133.0, 622.0)">F</text><text xml:space="preserve" font-family="Helvetica-Light" font-size="80.0" fill="#FEFFFF" transform="matrix(1.00, 0.00, -0.00, -1.00, 177.5, 622.0)">o</text><text xml:space="preserve" font-family="Helvetica-Light" font-size="80.0" fill="#FEFFFF" transform="matrix(1.00, 0.00, -0.00, -1.00, 222.0, 622.0)">r</text><text xml:space="preserve" font-family="Helvetica-Light" font-size="80.0" fill="#FEFFFF" transform="matrix(1.00, 0.00, -0.00, -1.00, 250.0, 622.0)">m</text><text xml:space="preserve" font-family="Helvetica-Light" font-size="80.0" fill="#FEFFFF" transform="matrix(1.00, 0.00, -0.00, -1.00, 316.7, 622.0)">a</text><text xml:space="preserve" font-family="Helvetica-Light" font-size="80.0" fill="#FEFFFF" transform="matrix(1.00, 0.00, -0.00, -1.00, 361.2, 622.0)">t</text><text xml:space="preserve" font-family="Helvetica-Light" font-size="80.0" fill="#FEFFFF" transform="matrix(1.00, 0.00, -0.00, -1.00, 383.4, 622.0)">s</text><text xml:space="preserve" font-family="Helvetica-Light" font-size="80.0" fill="#FEFFFF" transform="matrix(1.00, 0.00, -0.00, -1.00, 423.4, 622.0)"> </text><text xml:space="preserve" font-family="Helvetica-Light" font-size="80.0" fill="#FEFFFF" transform="matrix(1.00, 0.00, -0.00, -1.00, 445.6, 622.0)">f</text><text xml:space="preserve" font-family="Helvetica-Light" font-size="80.0" fill="#FEFFFF" transform="matrix(1.00, 0.00, -0.00, -1.00, 467.9, 622.0)">o</text><text xml:space="preserve" font-family="Helvetica-Light" font-size="80.0" fill="#FEFFFF" transform="matrix(1.00, 0.00, -0.00, -1.00, 512.4, 622.0)">r</text><text xml:space="preserve" font-family="Helvetica-Light" font-size="80.0" fill="#FEFFFF" transform="matrix(1.00, 0.00, -0.00, -1.00, 539.0, 622.0)"> </text><text xml:space="preserve" font-family="Helvetica-Light" font-size="80.0" fill="#FEFFFF" transform="matrix(1.00, 0.00, -0.00, -1.00, 561.2, 622.0)">b</text><text xml:space="preserve" font-family="Helvetica-Light" font-size="80.0" fill="#FEFFFF" transform="matrix(1.00, 0.00, -0.00, -1.00, 610.1, 622.0)">o</text><text xml:space="preserve" font-family="Helvetica-Light" font-size="80.0" fill="#FEFFFF" transform="matrix(1.00, 0.00, -0.00, -1.00, 654.6, 622.0)">o</text><text xml:space="preserve" font-family="Helvetica-Light" font-size="80.0" fill="#FEFFFF" transform="matrix(1.00, 0.00, -0.00, -1.00, 699.1, 622.0)">l</text><text xml:space="preserve" font-family="Helvetica-Light" font-size="80.0" fill="#FEFFFF" transform="matrix(1.00, 0.00, -0.00, -1.00, 716.8, 622.0)">e</text><text xml:space="preserve" font-family="Helvetica-Light" font-size="80.0" fill="#FEFFFF" transform="matrix(1.00, 0.00, -0.00, -1.00, 761.3, 622.0)">a</text><text xml:space="preserve" font-family="Helvetica-Light" font-size="80.0" fill="#FEFFFF" transform="matrix(1.00, 0.00, -0.00, -1.00, 805.8, 622.0)">n</text><text xml:space="preserve" font-family="Helvetica-Light" font-size="80.0" fill="#FEFFFF" transform="matrix(1.00, 0.00, -0.00, -1.00, 850.3, 622.0)">s</text><text xml:space="preserve" font-family="Helvetica-Light" font-size="21.0" fill="#FEFFFF" transform="matrix(1.00, 0.00, -0.00, -1.00, 79.0, 380.3)">•</text><text xml:space="preserve" font-family="Helvetica-Light" font-size="28.0" fill="#FEFFFF" transform="matrix(1.00, 0.00, -0.00, -1.00, 109.0, 377.0)">“</text><text xml:space="preserve" font-family="Helvetica-Light" font-size="28.0" fill="#FEFFFF" transform="matrix(1.00, 0.00, -0.00, -1.00, 119.9, 377.0)">Y</text><text xml:space="preserve" font-family="Helvetica-Light" font-size="28.0" fill="#FEFFFF" transform="matrix(1.00, 0.00, -0.00, -1.00, 137.0, 377.0)">|</text><text xml:space="preserve" font-family="Helvetica-Light" font-size="28.0" fill="#FEFFFF" transform="matrix(1.00, 0.00, -0.00, -1.00, 143.2, 377.0)">N</text><text xml:space="preserve" font-family="Helvetica-Light" font-size="28.0" fill="#FEFFFF" transform="matrix(1.00, 0.00, -0.00, -1.00, 163.4, 377.0)">|</text><text xml:space="preserve" font-family="Helvetica-Light" font-size="28.0" fill="#FEFFFF" transform="matrix(1.00, 0.00, -0.00, -1.00, 169.6, 377.0)"> </text><text xml:space="preserve" font-family="Helvetica-Light" font-size="21.0" fill="#FEFFFF" transform="matrix(1.00, 0.00, -0.00, -1.00, 79.0, 308.3)">•</text><text xml:space="preserve" font-family="Helvetica-Light" font-size="28.0" fill="#FEFFFF" transform="matrix(1.00, 0.00, -0.00, -1.00, 109.0, 305.0)">“</text><text xml:space="preserve" font-family="Helvetica-Light" font-size="28.0" fill="#FEFFFF" transform="matrix(1.00, 0.00, -0.00, -1.00, 119.9, 305.0)">t</text><text xml:space="preserve" font-family="Helvetica-Light" font-size="28.0" fill="#FEFFFF" transform="matrix(1.00, 0.00, -0.00, -1.00, 127.7, 305.0)">r</text><text xml:space="preserve" font-family="Helvetica-Light" font-size="28.0" fill="#FEFFFF" transform="matrix(1.00, 0.00, -0.00, -1.00, 137.0, 305.0)">u</text><text xml:space="preserve" font-family="Helvetica-Light" font-size="28.0" fill="#FEFFFF" transform="matrix(1.00, 0.00, -0.00, -1.00, 152.6, 305.0)">e</text><text xml:space="preserve" font-family="Helvetica-Light" font-size="28.0" fill="#FEFFFF" transform="matrix(1.00, 0.00, -0.00, -1.00, 168.1, 305.0)">|</text><text xml:space="preserve" font-family="Helvetica-Light" font-size="28.0" fill="#FEFFFF" transform="matrix(1.00, 0.00, -0.00, -1.00, 174.4, 305.0)">f</text><text xml:space="preserve" font-family="Helvetica-Light" font-size="28.0" fill="#FEFFFF" transform="matrix(1.00, 0.00, -0.00, -1.00, 182.1, 305.0)">a</text><text xml:space="preserve" font-family="Helvetica-Light" font-size="28.0" fill="#FEFFFF" transform="matrix(1.00, 0.00, -0.00, -1.00, 197.7, 305.0)">l</text><text xml:space="preserve" font-family="Helvetica-Light" font-size="28.0" fill="#FEFFFF" transform="matrix(1.00, 0.00, -0.00, -1.00, 203.9, 305.0)">s</text><text xml:space="preserve" font-family="Helvetica-Light" font-size="28.0" fill="#FEFFFF" transform="matrix(1.00, 0.00, -0.00, -1.00, 217.9, 305.0)">e</text><text xml:space="preserve" font-family="Helvetica-Light" font-size="28.0" fill="#FEFFFF" transform="matrix(1.00, 0.00, -0.00, -1.00, 233.5, 305.0)">”</text><text xml:space="preserve" font-family="Helvetica-Light" font-size="28.0" fill="#FEFFFF" transform="matrix(1.00, 0.00, -0.00, -1.00, 244.4, 305.0)"> </text><text xml:space="preserve" font-family="Helvetica-Light" font-size="21.0" fill="#FEFFFF" transform="matrix(1.00, 0.00, -0.00, -1.00, 79.0, 236.3)">•</text><text xml:space="preserve" font-family="Helvetica-Light" font-size="28.0" fill="#FEFFFF" transform="matrix(1.00, 0.00, -0.00, -1.00, 109.0, 233.0)">“</text><text xml:space="preserve" font-family="Helvetica-Light" font-size="28.0" fill="#FEFFFF" transform="matrix(1.00, 0.00, -0.00, -1.00, 119.9, 233.0)">1</text><text xml:space="preserve" font-family="Helvetica-Light" font-size="28.0" fill="#FEFFFF" transform="matrix(1.00, 0.00, -0.00, -1.00, 135.5, 233.0)">|</text><text xml:space="preserve" font-family="Helvetica-Light" font-size="28.0" fill="#FEFFFF" transform="matrix(1.00, 0.00, -0.00, -1.00, 141.7, 233.0)">0</text><text xml:space="preserve" font-family="Helvetica-Light" font-size="28.0" fill="#FEFFFF" transform="matrix(1.00, 0.00, -0.00, -1.00, 157.2, 233.0)">”</text><text xml:space="preserve" font-family="Helvetica-Light" font-size="18.0" fill="#FEFFFF" transform="matrix(1.00, 0.00, -0.00, -1.00, 501.0, 18.0)">3</text><text xml:space="preserve" font-family="Helvetica-Light" font-size="18.0" fill="#FEFFFF" transform="matrix(1.00, 0.00, -0.00, -1.00, 511.0, 18.0)">4</text><path d="M 527.0 412.7 L 692.0 412.7 L 692.0 337.7 L 527.0 337.7 Z M 527.0 412.7 " fill="#FEFFFF"></path><g><clipPath id="clip-2345"><path d="M 526.9 336.6 L 854.5 336.6 L 854.5 412.7 L 526.9 412.7 Z M 526.9 336.6 "></path></clipPath><g clip-path="url(#clip-2345)"><text xml:space="preserve" font-family="Monaco" font-size="13.0" fill="#E12200" transform="matrix(1.00, 0.00, -0.00, -1.00, 531.0, 396.0)">"</text><text xml:space="preserve" font-family="Monaco" font-size="13.0" fill="#E12200" transform="matrix(1.00, 0.00, -0.00, -1.00, 538.8, 396.0)">d</text><text xml:space="preserve" font-family="Monaco" font-size="13.0" fill="#E12200" transform="matrix(1.00, 0.00, -0.00, -1.00, 546.6, 396.0)">a</text><text xml:space="preserve" font-family="Monaco" font-size="13.0" fill="#E12200" transform="matrix(1.00, 0.00, -0.00, -1.00, 554.4, 396.0)">t</text><text xml:space="preserve" font-family="Monaco" font-size="13.0" fill="#E12200" transform="matrix(1.00, 0.00, -0.00, -1.00, 562.2, 396.0)">a</text><text xml:space="preserve" font-family="Monaco" font-size="13.0" fill="#E12200" transform="matrix(1.00, 0.00, -0.00, -1.00, 570.0, 396.0)">t</text><text xml:space="preserve" font-family="Monaco" font-size="13.0" fill="#E12200" transform="matrix(1.00, 0.00, -0.00, -1.00, 577.8, 396.0)">y</text><text xml:space="preserve" font-family="Monaco" font-size="13.0" fill="#E12200" transform="matrix(1.00, 0.00, -0.00, -1.00, 585.6, 396.0)">p</text><text xml:space="preserve" font-family="Monaco" font-size="13.0" fill="#E12200" transform="matrix(1.00, 0.00, -0.00, -1.00, 593.4, 396.0)">e</text><text xml:space="preserve" font-family="Monaco" font-size="13.0" fill="#E12200" transform="matrix(1.00, 0.00, -0.00, -1.00, 601.2, 396.0)">"</text><text xml:space="preserve" font-family="Monaco" font-size="13.0" fill="#000000" transform="matrix(1.00, 0.00, -0.00, -1.00, 609.0, 396.0)">:</text><text xml:space="preserve" font-family="Monaco" font-size="13.0" fill="#000000" transform="matrix(1.00, 0.00, -0.00, -1.00, 616.8, 396.0)"> </text><text xml:space="preserve" font-family="Monaco" font-size="13.0" fill="#000000" transform="matrix(1.00, 0.00, -0.00, -1.00, 624.6, 396.0)">{</text><text xml:space="preserve" font-family="Monaco" font-size="13.0" fill="#000000" transform="matrix(1.00, 0.00, -0.00, -1.00, 632.4, 396.0)"> </text><text xml:space="preserve" font-family="Monaco" font-size="13.0" fill="#000000" transform="matrix(1.00, 0.00, -0.00, -1.00, 531.0, 379.0)"> </text><text xml:space="preserve" font-family="Monaco" font-size="13.0" fill="#000000" transform="matrix(1.00, 0.00, -0.00, -1.00, 538.8, 379.0)"> </text><text xml:space="preserve" font-family="Monaco" font-size="13.0" fill="#E12200" transform="matrix(1.00, 0.00, -0.00, -1.00, 546.6, 379.0)">"</text><text xml:space="preserve" font-family="Monaco" font-size="13.0" fill="#E12200" transform="matrix(1.00, 0.00, -0.00, -1.00, 554.4, 379.0)">b</text><text xml:space="preserve" font-family="Monaco" font-size="13.0" fill="#E12200" transform="matrix(1.00, 0.00, -0.00, -1.00, 562.2, 379.0)">a</text><text xml:space="preserve" font-family="Monaco" font-size="13.0" fill="#E12200" transform="matrix(1.00, 0.00, -0.00, -1.00, 570.0, 379.0)">s</text><text xml:space="preserve" font-family="Monaco" font-size="13.0" fill="#E12200" transform="matrix(1.00, 0.00, -0.00, -1.00, 577.8, 379.0)">e</text><text xml:space="preserve" font-family="Monaco" font-size="13.0" fill="#E12200" transform="matrix(1.00, 0.00, -0.00, -1.00, 585.6, 379.0)">"</text><text xml:space="preserve" font-family="Monaco" font-size="13.0" fill="#000000" transform="matrix(1.00, 0.00, -0.00, -1.00, 593.4, 379.0)">:</text><text xml:space="preserve" font-family="Monaco" font-size="13.0" fill="#000000" transform="matrix(1.00, 0.00, -0.00, -1.00, 601.2, 379.0)"> </text><text xml:space="preserve" font-family="Monaco" font-size="13.0" fill="#E12200" transform="matrix(1.00, 0.00, -0.00, -1.00, 609.0, 379.0)">"</text><text xml:space="preserve" font-family="Monaco" font-size="13.0" fill="#E12200" transform="matrix(1.00, 0.00, -0.00, -1.00, 616.8, 379.0)">b</text><text xml:space="preserve" font-family="Monaco" font-size="13.0" fill="#E12200" transform="matrix(1.00, 0.00, -0.00, -1.00, 624.6, 379.0)">o</text><text xml:space="preserve" font-family="Monaco" font-size="13.0" fill="#E12200" transform="matrix(1.00, 0.00, -0.00, -1.00, 632.4, 379.0)">o</text><text xml:space="preserve" font-family="Monaco" font-size="13.0" fill="#E12200" transform="matrix(1.00, 0.00, -0.00, -1.00, 640.2, 379.0)">l</text><text xml:space="preserve" font-family="Monaco" font-size="13.0" fill="#E12200" transform="matrix(1.00, 0.00, -0.00, -1.00, 648.0, 379.0)">e</text><text xml:space="preserve" font-family="Monaco" font-size="13.0" fill="#E12200" transform="matrix(1.00, 0.00, -0.00, -1.00, 655.8, 379.0)">a</text><text xml:space="preserve" font-family="Monaco" font-size="13.0" fill="#E12200" transform="matrix(1.00, 0.00, -0.00, -1.00, 663.6, 379.0)">n</text><text xml:space="preserve" font-family="Monaco" font-size="13.0" fill="#E12200" transform="matrix(1.00, 0.00, -0.00, -1.00, 671.4, 379.0)">"</text><text xml:space="preserve" font-family="Monaco" font-size="13.0" fill="#000000" transform="matrix(1.00, 0.00, -0.00, -1.00, 679.2, 379.0)">,</text><text xml:space="preserve" font-family="Monaco" font-size="13.0" fill="#000000" transform="matrix(1.00, 0.00, -0.00, -1.00, 687.0, 379.0)"> </text><text xml:space="preserve" font-family="Monaco" font-size="13.0" fill="#000000" transform="matrix(1.00, 0.00, -0.00, -1.00, 531.0, 362.0)"> </text><text xml:space="preserve" font-family="Monaco" font-size="13.0" fill="#000000" transform="matrix(1.00, 0.00, -0.00, -1.00, 538.8, 362.0)"> </text><text xml:space="preserve" font-family="Monaco" font-size="13.0" fill="#E12200" transform="matrix(1.00, 0.00, -0.00, -1.00, 546.6, 362.0)">"</text><text xml:space="preserve" font-family="Monaco" font-size="13.0" fill="#E12200" transform="matrix(1.00, 0.00, -0.00, -1.00, 554.4, 362.0)">f</text><text xml:space="preserve" font-family="Monaco" font-size="13.0" fill="#E12200" transform="matrix(1.00, 0.00, -0.00, -1.00, 562.2, 362.0)">o</text><text xml:space="preserve" font-family="Monaco" font-size="13.0" fill="#E12200" transform="matrix(1.00, 0.00, -0.00, -1.00, 570.0, 362.0)">r</text><text xml:space="preserve" font-family="Monaco" font-size="13.0" fill="#E12200" transform="matrix(1.00, 0.00, -0.00, -1.00, 577.8, 362.0)">m</text><text xml:space="preserve" font-family="Monaco" font-size="13.0" fill="#E12200" transform="matrix(1.00, 0.00, -0.00, -1.00, 585.6, 362.0)">a</text><text xml:space="preserve" font-family="Monaco" font-size="13.0" fill="#E12200" transform="matrix(1.00, 0.00, -0.00, -1.00, 593.4, 362.0)">t</text><text xml:space="preserve" font-family="Monaco" font-size="13.0" fill="#E12200" transform="matrix(1.00, 0.00, -0.00, -1.00, 601.2, 362.0)">"</text><text xml:space="preserve" font-family="Monaco" font-size="13.0" fill="#000000" transform="matrix(1.00, 0.00, -0.00, -1.00, 609.0, 362.0)">:</text><text xml:space="preserve" font-family="Monaco" font-size="13.0" fill="#000000" transform="matrix(1.00, 0.00, -0.00, -1.00, 616.8, 362.0)"> </text><text xml:space="preserve" font-family="Monaco" font-size="13.0" fill="#E12200" transform="matrix(1.00, 0.00, -0.00, -1.00, 624.6, 362.0)">"</text><text xml:space="preserve" font-family="Monaco" font-size="13.0" fill="#E12200" transform="matrix(1.00, 0.00, -0.00, -1.00, 632.4, 362.0)">Y</text><text xml:space="preserve" font-family="Monaco" font-size="13.0" fill="#E12200" transform="matrix(1.00, 0.00, -0.00, -1.00, 640.2, 362.0)">e</text><text xml:space="preserve" font-family="Monaco" font-size="13.0" fill="#E12200" transform="matrix(1.00, 0.00, -0.00, -1.00, 648.0, 362.0)">s</text><text xml:space="preserve" font-family="Monaco" font-size="13.0" fill="#E12200" transform="matrix(1.00, 0.00, -0.00, -1.00, 655.8, 362.0)">|</text><text xml:space="preserve" font-family="Monaco" font-size="13.0" fill="#E12200" transform="matrix(1.00, 0.00, -0.00, -1.00, 663.6, 362.0)">N</text><text xml:space="preserve" font-family="Monaco" font-size="13.0" fill="#E12200" transform="matrix(1.00, 0.00, -0.00, -1.00, 671.4, 362.0)">o</text><text xml:space="preserve" font-family="Monaco" font-size="13.0" fill="#E12200" transform="matrix(1.00, 0.00, -0.00, -1.00, 679.2, 362.0)">"</text><text xml:space="preserve" font-family="Monaco" font-size="13.0" fill="#000000" transform="matrix(1.00, 0.00, -0.00, -1.00, 687.0, 362.0)"> </text><text xml:space="preserve" font-family="Monaco" font-size="13.0" fill="#000000" transform="matrix(1.00, 0.00, -0.00, -1.00, 531.0, 345.0)">}</text></g></g></g></svg>