<?xml version="1.0" encoding="UTF-8" standalone="no"?><svg xmlns="http://www.w3.org/2000/svg" xmlns:xlink="http://www.w3.org/1999/xlink" clip-rule="evenodd" stroke-miterlimit="4.00" viewBox="0 0 1024 768"><desc>SVG generated by Keynote</desc><defs></defs><g transform="matrix(1.00, 0.00, -0.00, -1.00, 0.0, 768.0)"><g><clipPath id="clip-0"><path d="M 0.0 768.0 L 1024.0 768.0 L 1024.0 0.0 L 0.0 0.0 Z M 0.0 768.0 "></path></clipPath><g clip-path="url(#clip-0)"><image xlink:href="E7ABA782A15EA3475B4CFCC80A2FEB63.jpeg" width="1024.00" height="768.00" transform="matrix(1.00, 0.00, -0.00, -1.00, 0.0, 768.0)"></image></g></g><text xml:space="preserve" font-family="GillSans" font-size="80.0" fill="#FEFFFF" transform="matrix(1.00, 0.00, -0.00, -1.00, 241.0, 401.0)">C</text><text xml:space="preserve" font-family="GillSans" font-size="80.0" fill="#FEFFFF" transform="matrix(1.00, 0.00, -0.00, -1.00, 297.6, 401.0)">S</text><text xml:space="preserve" font-family="GillSans" font-size="80.0" fill="#FEFFFF" transform="matrix(1.00, 0.00, -0.00, -1.00, 334.3, 401.0)">V</text><text xml:space="preserve" font-family="GillSans" font-size="80.0" fill="#FEFFFF" transform="matrix(1.00, 0.00, -0.00, -1.00, 382.6, 401.0)"> </text><text xml:space="preserve" font-family="GillSans" font-size="80.0" fill="#FEFFFF" transform="matrix(1.00, 0.00, -0.00, -1.00, 404.8, 401.0)">o</text><text xml:space="preserve" font-family="GillSans" font-size="80.0" fill="#FEFFFF" transform="matrix(1.00, 0.00, -0.00, -1.00, 448.9, 401.0)">n</text><text xml:space="preserve" font-family="GillSans" font-size="80.0" fill="#FEFFFF" transform="matrix(1.00, 0.00, -0.00, -1.00, 488.9, 401.0)"> </text><text xml:space="preserve" font-family="GillSans" font-size="80.0" fill="#FEFFFF" transform="matrix(1.00, 0.00, -0.00, -1.00, 511.1, 401.0)">t</text><text xml:space="preserve" font-family="GillSans" font-size="80.0" fill="#FEFFFF" transform="matrix(1.00, 0.00, -0.00, -1.00, 537.8, 401.0)">h</text><text xml:space="preserve" font-family="GillSans" font-size="80.0" fill="#FEFFFF" transform="matrix(1.00, 0.00, -0.00, -1.00, 577.8, 401.0)">e</text><text xml:space="preserve" font-family="GillSans" font-size="80.0" fill="#FEFFFF" transform="matrix(1.00, 0.00, -0.00, -1.00, 616.1, 401.0)"> </text><text xml:space="preserve" font-family="GillSans" font-size="80.0" fill="#FEFFFF" transform="matrix(1.00, 0.00, -0.00, -1.00, 628.3, 401.0)">W</text><text xml:space="preserve" font-family="GillSans" font-size="80.0" fill="#FEFFFF" transform="matrix(1.00, 0.00, -0.00, -1.00, 704.5, 401.0)">e</text><text xml:space="preserve" font-family="GillSans" font-size="80.0" fill="#FEFFFF" transform="matrix(1.00, 0.00, -0.00, -1.00, 742.8, 401.0)">b</text><text xml:space="preserve" font-family="GillSans" font-size="35.3" fill="#FEFFFF" transform="matrix(1.00, 0.00, -0.00, -1.00, 188.0, 336.0)">I</text><text xml:space="preserve" font-family="GillSans" font-size="35.3" fill="#FEFFFF" transform="matrix(1.00, 0.00, -0.00, -1.00, 196.8, 336.0)">n</text><text xml:space="preserve" font-family="GillSans" font-size="35.3" fill="#FEFFFF" transform="matrix(1.00, 0.00, -0.00, -1.00, 214.5, 336.0)">t</text><text xml:space="preserve" font-family="GillSans" font-size="35.3" fill="#FEFFFF" transform="matrix(1.00, 0.00, -0.00, -1.00, 226.2, 336.0)">r</text><text xml:space="preserve" font-family="GillSans" font-size="35.3" fill="#FEFFFF" transform="matrix(1.00, 0.00, -0.00, -1.00, 239.3, 336.0)">o</text><text xml:space="preserve" font-family="GillSans" font-size="35.3" fill="#FEFFFF" transform="matrix(1.00, 0.00, -0.00, -1.00, 258.8, 336.0)"> </text><text xml:space="preserve" font-family="GillSans" font-size="35.3" fill="#FEFFFF" transform="matrix(1.00, 0.00, -0.00, -1.00, 268.6, 336.0)">t</text><text xml:space="preserve" font-family="GillSans" font-size="35.3" fill="#FEFFFF" transform="matrix(1.00, 0.00, -0.00, -1.00, 280.3, 336.0)">o</text><text xml:space="preserve" font-family="GillSans" font-size="35.3" fill="#FEFFFF" transform="matrix(1.00, 0.00, -0.00, -1.00, 299.8, 336.0)"> </text><text xml:space="preserve" font-family="GillSans" font-size="35.3" fill="#FEFFFF" transform="matrix(1.00, 0.00, -0.00, -1.00, 305.1, 336.0)">W</text><text xml:space="preserve" font-family="GillSans" font-size="35.3" fill="#FEFFFF" transform="matrix(1.00, 0.00, -0.00, -1.00, 341.9, 336.0)">3</text><text xml:space="preserve" font-family="GillSans" font-size="35.3" fill="#FEFFFF" transform="matrix(1.00, 0.00, -0.00, -1.00, 359.5, 336.0)">C</text><text xml:space="preserve" font-family="GillSans" font-size="35.3" fill="#FEFFFF" transform="matrix(1.00, 0.00, -0.00, -1.00, 384.5, 336.0)"> </text><text xml:space="preserve" font-family="GillSans" font-size="35.3" fill="#FEFFFF" transform="matrix(1.00, 0.00, -0.00, -1.00, 394.3, 336.0)">C</text><text xml:space="preserve" font-family="GillSans" font-size="35.3" fill="#FEFFFF" transform="matrix(1.00, 0.00, -0.00, -1.00, 419.3, 336.0)">S</text><text xml:space="preserve" font-family="GillSans" font-size="35.3" fill="#FEFFFF" transform="matrix(1.00, 0.00, -0.00, -1.00, 435.5, 336.0)">V</text><text xml:space="preserve" font-family="GillSans" font-size="35.3" fill="#FEFFFF" transform="matrix(1.00, 0.00, -0.00, -1.00, 456.8, 336.0)"> </text><text xml:space="preserve" font-family="GillSans" font-size="35.3" fill="#FEFFFF" transform="matrix(1.00, 0.00, -0.00, -1.00, 466.6, 336.0)">o</text><text xml:space="preserve" font-family="GillSans" font-size="35.3" fill="#FEFFFF" transform="matrix(1.00, 0.00, -0.00, -1.00, 486.0, 336.0)">n</text><text xml:space="preserve" font-family="GillSans" font-size="35.3" fill="#FEFFFF" transform="matrix(1.00, 0.00, -0.00, -1.00, 503.7, 336.0)"> </text><text xml:space="preserve" font-family="GillSans" font-size="35.3" fill="#FEFFFF" transform="matrix(1.00, 0.00, -0.00, -1.00, 513.5, 336.0)">t</text><text xml:space="preserve" font-family="GillSans" font-size="35.3" fill="#FEFFFF" transform="matrix(1.00, 0.00, -0.00, -1.00, 525.2, 336.0)">h</text><text xml:space="preserve" font-family="GillSans" font-size="35.3" fill="#FEFFFF" transform="matrix(1.00, 0.00, -0.00, -1.00, 542.8, 336.0)">e</text><text xml:space="preserve" font-family="GillSans" font-size="35.3" fill="#FEFFFF" transform="matrix(1.00, 0.00, -0.00, -1.00, 559.7, 336.0)"> </text><text xml:space="preserve" font-family="GillSans" font-size="35.3" fill="#FEFFFF" transform="matrix(1.00, 0.00, -0.00, -1.00, 565.1, 336.0)">W</text><text xml:space="preserve" font-family="GillSans" font-size="35.3" fill="#FEFFFF" transform="matrix(1.00, 0.00, -0.00, -1.00, 598.7, 336.0)">e</text><text xml:space="preserve" font-family="GillSans" font-size="35.3" fill="#FEFFFF" transform="matrix(1.00, 0.00, -0.00, -1.00, 615.6, 336.0)">b</text><text xml:space="preserve" font-family="GillSans" font-size="35.3" fill="#FEFFFF" transform="matrix(1.00, 0.00, -0.00, -1.00, 633.3, 336.0)"> </text><text xml:space="preserve" font-family="GillSans" font-size="35.3" fill="#FEFFFF" transform="matrix(1.00, 0.00, -0.00, -1.00, 643.1, 336.0)">S</text><text xml:space="preserve" font-family="GillSans" font-size="35.3" fill="#FEFFFF" transform="matrix(1.00, 0.00, -0.00, -1.00, 659.2, 336.0)">p</text><text xml:space="preserve" font-family="GillSans" font-size="35.3" fill="#FEFFFF" transform="matrix(1.00, 0.00, -0.00, -1.00, 676.9, 336.0)">e</text><text xml:space="preserve" font-family="GillSans" font-size="35.3" fill="#FEFFFF" transform="matrix(1.00, 0.00, -0.00, -1.00, 693.8, 336.0)">c</text><text xml:space="preserve" font-family="GillSans" font-size="35.3" fill="#FEFFFF" transform="matrix(1.00, 0.00, -0.00, -1.00, 709.2, 336.0)">i</text><text xml:space="preserve" font-family="GillSans" font-size="35.3" fill="#FEFFFF" transform="matrix(1.00, 0.00, -0.00, -1.00, 716.9, 336.0)">ﬁ</text><text xml:space="preserve" font-family="GillSans" font-size="35.3" fill="#FEFFFF" transform="matrix(1.00, 0.00, -0.00, -1.00, 734.6, 336.0)">c</text><text xml:space="preserve" font-family="GillSans" font-size="35.3" fill="#FEFFFF" transform="matrix(1.00, 0.00, -0.00, -1.00, 750.0, 336.0)">a</text><text xml:space="preserve" font-family="GillSans" font-size="35.3" fill="#FEFFFF" transform="matrix(1.00, 0.00, -0.00, -1.00, 765.1, 336.0)">t</text><text xml:space="preserve" font-family="GillSans" font-size="35.3" fill="#FEFFFF" transform="matrix(1.00, 0.00, -0.00, -1.00, 776.8, 336.0)">i</text><text xml:space="preserve" font-family="GillSans" font-size="35.3" fill="#FEFFFF" transform="matrix(1.00, 0.00, -0.00, -1.00, 784.6, 336.0)">o</text><text xml:space="preserve" font-family="GillSans" font-size="35.3" fill="#FEFFFF" transform="matrix(1.00, 0.00, -0.00, -1.00, 804.0, 336.0)">n</text><text xml:space="preserve" font-family="GillSans" font-size="35.3" fill="#FEFFFF" transform="matrix(1.00, 0.00, -0.00, -1.00, 821.7, 336.0)">s</text><text xml:space="preserve" font-family="GillSans" font-size="35.3" fill="#FEFFFF" transform="matrix(1.00, 0.00, -0.00, -1.00, 211.0, 296.0)">D</text><text xml:space="preserve" font-family="GillSans" font-size="35.3" fill="#FEFFFF" transform="matrix(1.00, 0.00, -0.00, -1.00, 237.5, 296.0)">D</text><text xml:space="preserve" font-family="GillSans" font-size="35.3" fill="#FEFFFF" transform="matrix(1.00, 0.00, -0.00, -1.00, 263.9, 296.0)">I</text><text xml:space="preserve" font-family="GillSans" font-size="35.3" fill="#FEFFFF" transform="matrix(1.00, 0.00, -0.00, -1.00, 272.7, 296.0)"> </text><text xml:space="preserve" font-family="GillSans" font-size="35.3" fill="#FEFFFF" transform="matrix(1.00, 0.00, -0.00, -1.00, 282.5, 296.0)">M</text><text xml:space="preserve" font-family="GillSans" font-size="35.3" fill="#FEFFFF" transform="matrix(1.00, 0.00, -0.00, -1.00, 310.1, 296.0)">e</text><text xml:space="preserve" font-family="GillSans" font-size="35.3" fill="#FEFFFF" transform="matrix(1.00, 0.00, -0.00, -1.00, 327.0, 296.0)">t</text><text xml:space="preserve" font-family="GillSans" font-size="35.3" fill="#FEFFFF" transform="matrix(1.00, 0.00, -0.00, -1.00, 338.7, 296.0)">a</text><text xml:space="preserve" font-family="GillSans" font-size="35.3" fill="#FEFFFF" transform="matrix(1.00, 0.00, -0.00, -1.00, 353.8, 296.0)">d</text><text xml:space="preserve" font-family="GillSans" font-size="35.3" fill="#FEFFFF" transform="matrix(1.00, 0.00, -0.00, -1.00, 371.7, 296.0)">a</text><text xml:space="preserve" font-family="GillSans" font-size="35.3" fill="#FEFFFF" transform="matrix(1.00, 0.00, -0.00, -1.00, 386.8, 296.0)">t</text><text xml:space="preserve" font-family="GillSans" font-size="35.3" fill="#FEFFFF" transform="matrix(1.00, 0.00, -0.00, -1.00, 398.5, 296.0)">a</text><text xml:space="preserve" font-family="GillSans" font-size="35.3" fill="#FEFFFF" transform="matrix(1.00, 0.00, -0.00, -1.00, 413.6, 296.0)"> </text><text xml:space="preserve" font-family="GillSans" font-size="35.3" fill="#FEFFFF" transform="matrix(1.00, 0.00, -0.00, -1.00, 419.0, 296.0)">W</text><text xml:space="preserve" font-family="GillSans" font-size="35.3" fill="#FEFFFF" transform="matrix(1.00, 0.00, -0.00, -1.00, 452.6, 296.0)">o</text><text xml:space="preserve" font-family="GillSans" font-size="35.3" fill="#FEFFFF" transform="matrix(1.00, 0.00, -0.00, -1.00, 472.0, 296.0)">r</text><text xml:space="preserve" font-family="GillSans" font-size="35.3" fill="#FEFFFF" transform="matrix(1.00, 0.00, -0.00, -1.00, 486.0, 296.0)">k</text><text xml:space="preserve" font-family="GillSans" font-size="35.3" fill="#FEFFFF" transform="matrix(1.00, 0.00, -0.00, -1.00, 502.9, 296.0)">s</text><text xml:space="preserve" font-family="GillSans" font-size="35.3" fill="#FEFFFF" transform="matrix(1.00, 0.00, -0.00, -1.00, 516.5, 296.0)">h</text><text xml:space="preserve" font-family="GillSans" font-size="35.3" fill="#FEFFFF" transform="matrix(1.00, 0.00, -0.00, -1.00, 534.1, 296.0)">o</text><text xml:space="preserve" font-family="GillSans" font-size="35.3" fill="#FEFFFF" transform="matrix(1.00, 0.00, -0.00, -1.00, 553.6, 296.0)">p</text><text xml:space="preserve" font-family="GillSans" font-size="35.3" fill="#FEFFFF" transform="matrix(1.00, 0.00, -0.00, -1.00, 571.2, 296.0)"> </text><text xml:space="preserve" font-family="GillSans" font-size="35.3" fill="#FEFFFF" transform="matrix(1.00, 0.00, -0.00, -1.00, 581.0, 296.0)">–</text><text xml:space="preserve" font-family="GillSans" font-size="35.3" fill="#FEFFFF" transform="matrix(1.00, 0.00, -0.00, -1.00, 598.6, 296.0)"> </text><text xml:space="preserve" font-family="GillSans" font-size="35.3" fill="#FEFFFF" transform="matrix(1.00, 0.00, -0.00, -1.00, 608.4, 296.0)">D</text><text xml:space="preserve" font-family="GillSans" font-size="35.3" fill="#FEFFFF" transform="matrix(1.00, 0.00, -0.00, -1.00, 634.9, 296.0)">a</text><text xml:space="preserve" font-family="GillSans" font-size="35.3" fill="#FEFFFF" transform="matrix(1.00, 0.00, -0.00, -1.00, 649.9, 296.0)">g</text><text xml:space="preserve" font-family="GillSans" font-size="35.3" fill="#FEFFFF" transform="matrix(1.00, 0.00, -0.00, -1.00, 665.0, 296.0)">s</text><text xml:space="preserve" font-family="GillSans" font-size="35.3" fill="#FEFFFF" transform="matrix(1.00, 0.00, -0.00, -1.00, 678.6, 296.0)">t</text><text xml:space="preserve" font-family="GillSans" font-size="35.3" fill="#FEFFFF" transform="matrix(1.00, 0.00, -0.00, -1.00, 690.3, 296.0)">u</text><text xml:space="preserve" font-family="GillSans" font-size="35.3" fill="#FEFFFF" transform="matrix(1.00, 0.00, -0.00, -1.00, 707.9, 296.0)">h</text><text xml:space="preserve" font-family="GillSans" font-size="35.3" fill="#FEFFFF" transform="matrix(1.00, 0.00, -0.00, -1.00, 725.6, 296.0)">l</text><text xml:space="preserve" font-family="GillSans" font-size="35.3" fill="#FEFFFF" transform="matrix(1.00, 0.00, -0.00, -1.00, 733.3, 296.0)"> </text><text xml:space="preserve" font-family="GillSans" font-size="35.3" fill="#FEFFFF" transform="matrix(1.00, 0.00, -0.00, -1.00, 743.1, 296.0)">2</text><text xml:space="preserve" font-family="GillSans" font-size="35.3" fill="#FEFFFF" transform="matrix(1.00, 0.00, -0.00, -1.00, 760.8, 296.0)">0</text><text xml:space="preserve" font-family="GillSans" font-size="35.3" fill="#FEFFFF" transform="matrix(1.00, 0.00, -0.00, -1.00, 778.4, 296.0)">1</text><text xml:space="preserve" font-family="GillSans" font-size="35.3" fill="#FEFFFF" transform="matrix(1.00, 0.00, -0.00, -1.00, 796.0, 296.0)">6</text><text xml:space="preserve" font-family="GillSans" font-size="42.0" fill="#FEFFFF" transform="matrix(1.00, 0.00, -0.00, -1.00, 393.0, 161.0)">G</text><text xml:space="preserve" font-family="GillSans" font-size="42.0" fill="#FEFFFF" transform="matrix(1.00, 0.00, -0.00, -1.00, 424.1, 161.0)">r</text><text xml:space="preserve" font-family="GillSans" font-size="42.0" fill="#FEFFFF" transform="matrix(1.00, 0.00, -0.00, -1.00, 439.9, 161.0)">e</text><text xml:space="preserve" font-family="GillSans" font-size="42.0" fill="#FEFFFF" transform="matrix(1.00, 0.00, -0.00, -1.00, 460.0, 161.0)">g</text><text xml:space="preserve" font-family="GillSans" font-size="42.0" fill="#FEFFFF" transform="matrix(1.00, 0.00, -0.00, -1.00, 477.9, 161.0)">g</text><text xml:space="preserve" font-family="GillSans" font-size="42.0" fill="#FEFFFF" transform="matrix(1.00, 0.00, -0.00, -1.00, 495.8, 161.0)"> </text><text xml:space="preserve" font-family="GillSans" font-size="42.0" fill="#FEFFFF" transform="matrix(1.00, 0.00, -0.00, -1.00, 507.5, 161.0)">K</text><text xml:space="preserve" font-family="GillSans" font-size="42.0" fill="#FEFFFF" transform="matrix(1.00, 0.00, -0.00, -1.00, 532.5, 161.0)">e</text><text xml:space="preserve" font-family="GillSans" font-size="42.0" fill="#FEFFFF" transform="matrix(1.00, 0.00, -0.00, -1.00, 552.6, 161.0)">l</text><text xml:space="preserve" font-family="GillSans" font-size="42.0" fill="#FEFFFF" transform="matrix(1.00, 0.00, -0.00, -1.00, 561.8, 161.0)">l</text><text xml:space="preserve" font-family="GillSans" font-size="42.0" fill="#FEFFFF" transform="matrix(1.00, 0.00, -0.00, -1.00, 571.1, 161.0)">o</text><text xml:space="preserve" font-family="GillSans" font-size="42.0" fill="#FEFFFF" transform="matrix(1.00, 0.00, -0.00, -1.00, 594.2, 161.0)">g</text><text xml:space="preserve" font-family="GillSans" font-size="42.0" fill="#FEFFFF" transform="matrix(1.00, 0.00, -0.00, -1.00, 612.1, 161.0)">g</text><text xml:space="preserve" font-family="GillSans" font-size="31.0" fill="#FEFFFF" transform="matrix(1.00, 0.00, -0.00, -1.00, 363.0, 101.0)">g</text><text xml:space="preserve" font-family="GillSans" font-size="31.0" fill="#FEFFFF" transform="matrix(1.00, 0.00, -0.00, -1.00, 376.2, 101.0)">r</text><text xml:space="preserve" font-family="GillSans" font-size="31.0" fill="#FEFFFF" transform="matrix(1.00, 0.00, -0.00, -1.00, 387.9, 101.0)">e</text><text xml:space="preserve" font-family="GillSans" font-size="31.0" fill="#FEFFFF" transform="matrix(1.00, 0.00, -0.00, -1.00, 402.7, 101.0)">g</text><text xml:space="preserve" font-family="GillSans" font-size="31.0" fill="#FEFFFF" transform="matrix(1.00, 0.00, -0.00, -1.00, 416.0, 101.0)">g</text><text xml:space="preserve" font-family="GillSans" font-size="31.0" fill="#FEFFFF" transform="matrix(1.00, 0.00, -0.00, -1.00, 429.2, 101.0)">@</text><text xml:space="preserve" font-family="GillSans" font-size="31.0" fill="#FEFFFF" transform="matrix(1.00, 0.00, -0.00, -1.00, 460.5, 101.0)">g</text><text xml:space="preserve" font-family="GillSans" font-size="31.0" fill="#FEFFFF" transform="matrix(1.00, 0.00, -0.00, -1.00, 473.7, 101.0)">r</text><text xml:space="preserve" font-family="GillSans" font-size="31.0" fill="#FEFFFF" transform="matrix(1.00, 0.00, -0.00, -1.00, 485.4, 101.0)">e</text><text xml:space="preserve" font-family="GillSans" font-size="31.0" fill="#FEFFFF" transform="matrix(1.00, 0.00, -0.00, -1.00, 500.2, 101.0)">g</text><text xml:space="preserve" font-family="GillSans" font-size="31.0" fill="#FEFFFF" transform="matrix(1.00, 0.00, -0.00, -1.00, 513.4, 101.0)">g</text><text xml:space="preserve" font-family="GillSans" font-size="31.0" fill="#FEFFFF" transform="matrix(1.00, 0.00, -0.00, -1.00, 526.6, 101.0)">k</text><text xml:space="preserve" font-family="GillSans" font-size="31.0" fill="#FEFFFF" transform="matrix(1.00, 0.00, -0.00, -1.00, 540.6, 101.0)">e</text><text xml:space="preserve" font-family="GillSans" font-size="31.0" fill="#FEFFFF" transform="matrix(1.00, 0.00, -0.00, -1.00, 555.4, 101.0)">l</text><text xml:space="preserve" font-family="GillSans" font-size="31.0" fill="#FEFFFF" transform="matrix(1.00, 0.00, -0.00, -1.00, 562.2, 101.0)">l</text><text xml:space="preserve" font-family="GillSans" font-size="31.0" fill="#FEFFFF" transform="matrix(1.00, 0.00, -0.00, -1.00, 569.0, 101.0)">o</text><text xml:space="preserve" font-family="GillSans" font-size="31.0" fill="#FEFFFF" transform="matrix(1.00, 0.00, -0.00, -1.00, 586.1, 101.0)">g</text><text xml:space="preserve" font-family="GillSans" font-size="31.0" fill="#FEFFFF" transform="matrix(1.00, 0.00, -0.00, -1.00, 599.3, 101.0)">g</text><text xml:space="preserve" font-family="GillSans" font-size="31.0" fill="#FEFFFF" transform="matrix(1.00, 0.00, -0.00, -1.00, 612.6, 101.0)">.</text><text xml:space="preserve" font-family="GillSans" font-size="31.0" fill="#FEFFFF" transform="matrix(1.00, 0.00, -0.00, -1.00, 619.4, 101.0)">n</text><text xml:space="preserve" font-family="GillSans" font-size="31.0" fill="#FEFFFF" transform="matrix(1.00, 0.00, -0.00, -1.00, 634.9, 101.0)">e</text><text xml:space="preserve" font-family="GillSans" font-size="31.0" fill="#FEFFFF" transform="matrix(1.00, 0.00, -0.00, -1.00, 649.7, 101.0)">t</text><g><clipPath id="clip-1"><path d="M 362.0 97.0 L 660.1 97.0 L 660.1 100.6 L 362.0 100.6 Z M 362.0 97.0 "></path></clipPath><g clip-path="url(#clip-1)"><path d="M 4.5 34.2 L 301.6 34.2 " fill="none" stroke="#FEFFFF" stroke-width="1.54" stroke-miterlimit="0.00" transform="matrix(1.00, 0.00, 0.00, -1.00, 358.5, 133.0)"></path></g></g><text xml:space="preserve" font-family="GillSans" font-size="31.0" fill="#FEFFFF" transform="matrix(1.00, 0.00, -0.00, -1.00, 446.0, 44.0)">@</text><text xml:space="preserve" font-family="GillSans" font-size="31.0" fill="#FEFFFF" transform="matrix(1.00, 0.00, -0.00, -1.00, 477.3, 44.0)">g</text><text xml:space="preserve" font-family="GillSans" font-size="31.0" fill="#FEFFFF" transform="matrix(1.00, 0.00, -0.00, -1.00, 490.5, 44.0)">k</text><text xml:space="preserve" font-family="GillSans" font-size="31.0" fill="#FEFFFF" transform="matrix(1.00, 0.00, -0.00, -1.00, 504.4, 44.0)">e</text><text xml:space="preserve" font-family="GillSans" font-size="31.0" fill="#FEFFFF" transform="matrix(1.00, 0.00, -0.00, -1.00, 519.3, 44.0)">l</text><text xml:space="preserve" font-family="GillSans" font-size="31.0" fill="#FEFFFF" transform="matrix(1.00, 0.00, -0.00, -1.00, 526.1, 44.0)">l</text><text xml:space="preserve" font-family="GillSans" font-size="31.0" fill="#FEFFFF" transform="matrix(1.00, 0.00, -0.00, -1.00, 532.9, 44.0)">o</text><text xml:space="preserve" font-family="GillSans" font-size="31.0" fill="#FEFFFF" transform="matrix(1.00, 0.00, -0.00, -1.00, 550.0, 44.0)">g</text><text xml:space="preserve" font-family="GillSans" font-size="31.0" fill="#FEFFFF" transform="matrix(1.00, 0.00, -0.00, -1.00, 563.2, 44.0)">g</text><g><clipPath id="clip-2"><path d="M 445.4 40.0 L 576.8 40.0 L 576.8 43.6 L 445.4 43.6 Z M 445.4 40.0 "></path></clipPath><g clip-path="url(#clip-2)"><path d="M 4.5 34.2 L 135.0 34.2 " fill="none" stroke="#FEFFFF" stroke-width="1.54" stroke-miterlimit="0.00" transform="matrix(1.00, 0.00, 0.00, -1.00, 441.9, 76.0)"></path></g></g><text xml:space="preserve" font-family="Helvetica-Light" font-size="18.0" fill="#FEFFFF" transform="matrix(1.00, 0.00, -0.00, -1.00, 506.0, 18.0)">1</text></g></svg>