<?xml version="1.0" encoding="UTF-8" standalone="no"?><svg xmlns="http://www.w3.org/2000/svg" xmlns:xlink="http://www.w3.org/1999/xlink" clip-rule="evenodd" stroke-miterlimit="4.00" viewBox="0 0 1024 768"><desc>SVG generated by Keynote</desc><defs></defs><g transform="matrix(1.00, 0.00, -0.00, -1.00, 0.0, 768.0)"><g><clipPath id="clip-1114"><path d="M 0.0 768.0 L 1024.0 768.0 L 1024.0 0.0 L 0.0 0.0 Z M 0.0 768.0 "></path></clipPath><g clip-path="url(#clip-1114)"><image xlink:href="../../D64B4BA4-DFE2-4353-AFBC-0E9752749D8B/assets/E7ABA782A15EA3475B4CFCC80A2FEB63.jpeg" width="1024.00" height="768.00" transform="matrix(1.00, 0.00, -0.00, -1.00, 0.0, 768.0)"></image></g></g><text xml:space="preserve" font-family="Helvetica-Light" font-size="80.0" fill="#FEFFFF" transform="matrix(1.00, 0.00, -0.00, -1.00, 179.0, 622.0)">D</text><text xml:space="preserve" font-family="Helvetica-Light" font-size="80.0" fill="#FEFFFF" transform="matrix(1.00, 0.00, -0.00, -1.00, 236.8, 622.0)">e</text><text xml:space="preserve" font-family="Helvetica-Light" font-size="80.0" fill="#FEFFFF" transform="matrix(1.00, 0.00, -0.00, -1.00, 281.2, 622.0)">r</text><text xml:space="preserve" font-family="Helvetica-Light" font-size="80.0" fill="#FEFFFF" transform="matrix(1.00, 0.00, -0.00, -1.00, 307.9, 622.0)">i</text><text xml:space="preserve" font-family="Helvetica-Light" font-size="80.0" fill="#FEFFFF" transform="matrix(1.00, 0.00, -0.00, -1.00, 325.6, 622.0)">v</text><text xml:space="preserve" font-family="Helvetica-Light" font-size="80.0" fill="#FEFFFF" transform="matrix(1.00, 0.00, -0.00, -1.00, 365.6, 622.0)">e</text><text xml:space="preserve" font-family="Helvetica-Light" font-size="80.0" fill="#FEFFFF" transform="matrix(1.00, 0.00, -0.00, -1.00, 410.1, 622.0)">d</text><text xml:space="preserve" font-family="Helvetica-Light" font-size="80.0" fill="#FEFFFF" transform="matrix(1.00, 0.00, -0.00, -1.00, 459.0, 622.0)"> </text><text xml:space="preserve" font-family="Helvetica-Light" font-size="80.0" fill="#FEFFFF" transform="matrix(1.00, 0.00, -0.00, -1.00, 481.2, 622.0)">D</text><text xml:space="preserve" font-family="Helvetica-Light" font-size="80.0" fill="#FEFFFF" transform="matrix(1.00, 0.00, -0.00, -1.00, 539.0, 622.0)">a</text><text xml:space="preserve" font-family="Helvetica-Light" font-size="80.0" fill="#FEFFFF" transform="matrix(1.00, 0.00, -0.00, -1.00, 583.5, 622.0)">t</text><text xml:space="preserve" font-family="Helvetica-Light" font-size="80.0" fill="#FEFFFF" transform="matrix(1.00, 0.00, -0.00, -1.00, 605.7, 622.0)">a</text><text xml:space="preserve" font-family="Helvetica-Light" font-size="80.0" fill="#FEFFFF" transform="matrix(1.00, 0.00, -0.00, -1.00, 650.2, 622.0)">t</text><text xml:space="preserve" font-family="Helvetica-Light" font-size="80.0" fill="#FEFFFF" transform="matrix(1.00, 0.00, -0.00, -1.00, 672.4, 622.0)">y</text><text xml:space="preserve" font-family="Helvetica-Light" font-size="80.0" fill="#FEFFFF" transform="matrix(1.00, 0.00, -0.00, -1.00, 712.4, 622.0)">p</text><text xml:space="preserve" font-family="Helvetica-Light" font-size="80.0" fill="#FEFFFF" transform="matrix(1.00, 0.00, -0.00, -1.00, 761.3, 622.0)">e</text><text xml:space="preserve" font-family="Helvetica-Light" font-size="80.0" fill="#FEFFFF" transform="matrix(1.00, 0.00, -0.00, -1.00, 805.8, 622.0)">s</text><text xml:space="preserve" font-family="Helvetica-Light" font-size="12.4" fill="#FEFFFF" transform="matrix(1.00, 0.00, -0.00, -1.00, 79.0, 544.8)">•</text><text xml:space="preserve" font-family="Helvetica-Light" font-size="16.5" fill="#FEFFFF" transform="matrix(1.00, 0.00, -0.00, -1.00, 97.0, 544.0)">b</text><text xml:space="preserve" font-family="Helvetica-Light" font-size="16.5" fill="#FEFFFF" transform="matrix(1.00, 0.00, -0.00, -1.00, 107.1, 544.0)">a</text><text xml:space="preserve" font-family="Helvetica-Light" font-size="16.5" fill="#FEFFFF" transform="matrix(1.00, 0.00, -0.00, -1.00, 116.3, 544.0)">s</text><text xml:space="preserve" font-family="Helvetica-Light" font-size="16.5" fill="#FEFFFF" transform="matrix(1.00, 0.00, -0.00, -1.00, 124.5, 544.0)">e</text><text xml:space="preserve" font-family="Helvetica-Light" font-size="16.5" fill="#FEFFFF" transform="matrix(1.00, 0.00, -0.00, -1.00, 133.7, 544.0)"> </text><text xml:space="preserve" font-family="Helvetica-Light" font-size="16.5" fill="#FEFFFF" transform="matrix(1.00, 0.00, -0.00, -1.00, 138.3, 544.0)">–</text><text xml:space="preserve" font-family="Helvetica-Light" font-size="16.5" fill="#FEFFFF" transform="matrix(1.00, 0.00, -0.00, -1.00, 146.6, 544.0)"> </text><text xml:space="preserve" font-family="Helvetica-Light" font-size="16.5" fill="#FEFFFF" transform="matrix(1.00, 0.00, -0.00, -1.00, 151.2, 544.0)">b</text><text xml:space="preserve" font-family="Helvetica-Light" font-size="16.5" fill="#FEFFFF" transform="matrix(1.00, 0.00, -0.00, -1.00, 161.3, 544.0)">u</text><text xml:space="preserve" font-family="Helvetica-Light" font-size="16.5" fill="#FEFFFF" transform="matrix(1.00, 0.00, -0.00, -1.00, 170.4, 544.0)">i</text><text xml:space="preserve" font-family="Helvetica-Light" font-size="16.5" fill="#FEFFFF" transform="matrix(1.00, 0.00, -0.00, -1.00, 174.1, 544.0)">l</text><text xml:space="preserve" font-family="Helvetica-Light" font-size="16.5" fill="#FEFFFF" transform="matrix(1.00, 0.00, -0.00, -1.00, 177.8, 544.0)">t</text><text xml:space="preserve" font-family="Helvetica-Light" font-size="16.5" fill="#FEFFFF" transform="matrix(1.00, 0.00, -0.00, -1.00, 182.4, 544.0)">-</text><text xml:space="preserve" font-family="Helvetica-Light" font-size="16.5" fill="#FEFFFF" transform="matrix(1.00, 0.00, -0.00, -1.00, 187.9, 544.0)">i</text><text xml:space="preserve" font-family="Helvetica-Light" font-size="16.5" fill="#FEFFFF" transform="matrix(1.00, 0.00, -0.00, -1.00, 191.5, 544.0)">n</text><text xml:space="preserve" font-family="Helvetica-Light" font-size="16.5" fill="#FEFFFF" transform="matrix(1.00, 0.00, -0.00, -1.00, 200.7, 544.0)"> </text><text xml:space="preserve" font-family="Helvetica-Light" font-size="16.5" fill="#FEFFFF" transform="matrix(1.00, 0.00, -0.00, -1.00, 205.3, 544.0)">d</text><text xml:space="preserve" font-family="Helvetica-Light" font-size="16.5" fill="#FEFFFF" transform="matrix(1.00, 0.00, -0.00, -1.00, 215.4, 544.0)">a</text><text xml:space="preserve" font-family="Helvetica-Light" font-size="16.5" fill="#FEFFFF" transform="matrix(1.00, 0.00, -0.00, -1.00, 224.6, 544.0)">t</text><text xml:space="preserve" font-family="Helvetica-Light" font-size="16.5" fill="#FEFFFF" transform="matrix(1.00, 0.00, -0.00, -1.00, 229.2, 544.0)">a</text><text xml:space="preserve" font-family="Helvetica-Light" font-size="16.5" fill="#FEFFFF" transform="matrix(1.00, 0.00, -0.00, -1.00, 238.4, 544.0)">t</text><text xml:space="preserve" font-family="Helvetica-Light" font-size="16.5" fill="#FEFFFF" transform="matrix(1.00, 0.00, -0.00, -1.00, 243.0, 544.0)">y</text><text xml:space="preserve" font-family="Helvetica-Light" font-size="16.5" fill="#FEFFFF" transform="matrix(1.00, 0.00, -0.00, -1.00, 251.2, 544.0)">p</text><text xml:space="preserve" font-family="Helvetica-Light" font-size="16.5" fill="#FEFFFF" transform="matrix(1.00, 0.00, -0.00, -1.00, 261.3, 544.0)">e</text><text xml:space="preserve" font-family="Helvetica-Light" font-size="16.5" fill="#FEFFFF" transform="matrix(1.00, 0.00, -0.00, -1.00, 270.5, 544.0)"> </text><text xml:space="preserve" font-family="Helvetica-Light" font-size="12.4" fill="#FEFFFF" transform="matrix(1.00, 0.00, -0.00, -1.00, 79.0, 502.4)">•</text><text xml:space="preserve" font-family="Helvetica-Light" font-size="16.5" fill="#FEFFFF" transform="matrix(1.00, 0.00, -0.00, -1.00, 97.0, 501.0)">f</text><text xml:space="preserve" font-family="Helvetica-Light" font-size="16.5" fill="#FEFFFF" transform="matrix(1.00, 0.00, -0.00, -1.00, 101.6, 501.0)">o</text><text xml:space="preserve" font-family="Helvetica-Light" font-size="16.5" fill="#FEFFFF" transform="matrix(1.00, 0.00, -0.00, -1.00, 110.8, 501.0)">r</text><text xml:space="preserve" font-family="Helvetica-Light" font-size="16.5" fill="#FEFFFF" transform="matrix(1.00, 0.00, -0.00, -1.00, 116.6, 501.0)">m</text><text xml:space="preserve" font-family="Helvetica-Light" font-size="16.5" fill="#FEFFFF" transform="matrix(1.00, 0.00, -0.00, -1.00, 130.3, 501.0)">a</text><text xml:space="preserve" font-family="Helvetica-Light" font-size="16.5" fill="#FEFFFF" transform="matrix(1.00, 0.00, -0.00, -1.00, 139.5, 501.0)">t</text><text xml:space="preserve" font-family="Helvetica-Light" font-size="16.5" fill="#FEFFFF" transform="matrix(1.00, 0.00, -0.00, -1.00, 144.1, 501.0)"> </text><text xml:space="preserve" font-family="Helvetica-Light" font-size="16.5" fill="#FEFFFF" transform="matrix(1.00, 0.00, -0.00, -1.00, 148.7, 501.0)">–</text><text xml:space="preserve" font-family="Helvetica-Light" font-size="16.5" fill="#FEFFFF" transform="matrix(1.00, 0.00, -0.00, -1.00, 157.0, 501.0)"> </text><text xml:space="preserve" font-family="Helvetica-Light" font-size="16.5" fill="#FEFFFF" transform="matrix(1.00, 0.00, -0.00, -1.00, 161.6, 501.0)">S</text><text xml:space="preserve" font-family="Helvetica-Light" font-size="16.5" fill="#FEFFFF" transform="matrix(1.00, 0.00, -0.00, -1.00, 171.7, 501.0)">e</text><text xml:space="preserve" font-family="Helvetica-Light" font-size="16.5" fill="#FEFFFF" transform="matrix(1.00, 0.00, -0.00, -1.00, 180.8, 501.0)">e</text><text xml:space="preserve" font-family="Helvetica-Light" font-size="16.5" fill="#FEFFFF" transform="matrix(1.00, 0.00, -0.00, -1.00, 190.0, 501.0)"> </text><text xml:space="preserve" font-family="Helvetica-Light" font-size="16.5" fill="#FEFFFF" transform="matrix(1.00, 0.00, -0.00, -1.00, 194.6, 501.0)">F</text><text xml:space="preserve" font-family="Helvetica-Light" font-size="16.5" fill="#FEFFFF" transform="matrix(1.00, 0.00, -0.00, -1.00, 203.8, 501.0)">o</text><text xml:space="preserve" font-family="Helvetica-Light" font-size="16.5" fill="#FEFFFF" transform="matrix(1.00, 0.00, -0.00, -1.00, 213.0, 501.0)">r</text><text xml:space="preserve" font-family="Helvetica-Light" font-size="16.5" fill="#FEFFFF" transform="matrix(1.00, 0.00, -0.00, -1.00, 218.8, 501.0)">m</text><text xml:space="preserve" font-family="Helvetica-Light" font-size="16.5" fill="#FEFFFF" transform="matrix(1.00, 0.00, -0.00, -1.00, 232.5, 501.0)">a</text><text xml:space="preserve" font-family="Helvetica-Light" font-size="16.5" fill="#FEFFFF" transform="matrix(1.00, 0.00, -0.00, -1.00, 241.7, 501.0)">t</text><text xml:space="preserve" font-family="Helvetica-Light" font-size="16.5" fill="#FEFFFF" transform="matrix(1.00, 0.00, -0.00, -1.00, 246.3, 501.0)">s</text><text xml:space="preserve" font-family="Helvetica-Light" font-size="16.5" fill="#FEFFFF" transform="matrix(1.00, 0.00, -0.00, -1.00, 254.6, 501.0)"> </text><text xml:space="preserve" font-family="Helvetica-Light" font-size="12.4" fill="#FEFFFF" transform="matrix(1.00, 0.00, -0.00, -1.00, 79.0, 460.0)">•</text><text xml:space="preserve" font-family="Helvetica-Light" font-size="16.5" fill="#FEFFFF" transform="matrix(1.00, 0.00, -0.00, -1.00, 97.0, 459.0)">L</text><text xml:space="preserve" font-family="Helvetica-Light" font-size="16.5" fill="#FEFFFF" transform="matrix(1.00, 0.00, -0.00, -1.00, 106.2, 459.0)">e</text><text xml:space="preserve" font-family="Helvetica-Light" font-size="16.5" fill="#FEFFFF" transform="matrix(1.00, 0.00, -0.00, -1.00, 115.4, 459.0)">n</text><text xml:space="preserve" font-family="Helvetica-Light" font-size="16.5" fill="#FEFFFF" transform="matrix(1.00, 0.00, -0.00, -1.00, 124.6, 459.0)">g</text><text xml:space="preserve" font-family="Helvetica-Light" font-size="16.5" fill="#FEFFFF" transform="matrix(1.00, 0.00, -0.00, -1.00, 134.6, 459.0)">t</text><text xml:space="preserve" font-family="Helvetica-Light" font-size="16.5" fill="#FEFFFF" transform="matrix(1.00, 0.00, -0.00, -1.00, 139.2, 459.0)">h</text><text xml:space="preserve" font-family="Helvetica-Light" font-size="16.5" fill="#FEFFFF" transform="matrix(1.00, 0.00, -0.00, -1.00, 148.4, 459.0)"> </text><text xml:space="preserve" font-family="Helvetica-Light" font-size="16.5" fill="#FEFFFF" transform="matrix(1.00, 0.00, -0.00, -1.00, 153.0, 459.0)">C</text><text xml:space="preserve" font-family="Helvetica-Light" font-size="16.5" fill="#FEFFFF" transform="matrix(1.00, 0.00, -0.00, -1.00, 164.9, 459.0)">o</text><text xml:space="preserve" font-family="Helvetica-Light" font-size="16.5" fill="#FEFFFF" transform="matrix(1.00, 0.00, -0.00, -1.00, 174.1, 459.0)">n</text><text xml:space="preserve" font-family="Helvetica-Light" font-size="16.5" fill="#FEFFFF" transform="matrix(1.00, 0.00, -0.00, -1.00, 183.3, 459.0)">s</text><text xml:space="preserve" font-family="Helvetica-Light" font-size="16.5" fill="#FEFFFF" transform="matrix(1.00, 0.00, -0.00, -1.00, 191.6, 459.0)">t</text><text xml:space="preserve" font-family="Helvetica-Light" font-size="16.5" fill="#FEFFFF" transform="matrix(1.00, 0.00, -0.00, -1.00, 196.2, 459.0)">r</text><text xml:space="preserve" font-family="Helvetica-Light" font-size="16.5" fill="#FEFFFF" transform="matrix(1.00, 0.00, -0.00, -1.00, 201.7, 459.0)">a</text><text xml:space="preserve" font-family="Helvetica-Light" font-size="16.5" fill="#FEFFFF" transform="matrix(1.00, 0.00, -0.00, -1.00, 210.9, 459.0)">i</text><text xml:space="preserve" font-family="Helvetica-Light" font-size="16.5" fill="#FEFFFF" transform="matrix(1.00, 0.00, -0.00, -1.00, 214.5, 459.0)">n</text><text xml:space="preserve" font-family="Helvetica-Light" font-size="16.5" fill="#FEFFFF" transform="matrix(1.00, 0.00, -0.00, -1.00, 223.7, 459.0)">t</text><text xml:space="preserve" font-family="Helvetica-Light" font-size="16.5" fill="#FEFFFF" transform="matrix(1.00, 0.00, -0.00, -1.00, 228.3, 459.0)">s</text><text xml:space="preserve" font-family="Helvetica-Light" font-size="16.5" fill="#FEFFFF" transform="matrix(1.00, 0.00, -0.00, -1.00, 236.6, 459.0)"> </text><text xml:space="preserve" font-family="Helvetica-Light" font-size="12.4" fill="#FEFFFF" transform="matrix(1.00, 0.00, -0.00, -1.00, 109.0, 417.6)">•</text><text xml:space="preserve" font-family="Helvetica-Light" font-size="16.5" fill="#FEFFFF" transform="matrix(1.00, 0.00, -0.00, -1.00, 127.0, 417.0)">l</text><text xml:space="preserve" font-family="Helvetica-Light" font-size="16.5" fill="#FEFFFF" transform="matrix(1.00, 0.00, -0.00, -1.00, 130.7, 417.0)">e</text><text xml:space="preserve" font-family="Helvetica-Light" font-size="16.5" fill="#FEFFFF" transform="matrix(1.00, 0.00, -0.00, -1.00, 139.9, 417.0)">n</text><text xml:space="preserve" font-family="Helvetica-Light" font-size="16.5" fill="#FEFFFF" transform="matrix(1.00, 0.00, -0.00, -1.00, 149.0, 417.0)">g</text><text xml:space="preserve" font-family="Helvetica-Light" font-size="16.5" fill="#FEFFFF" transform="matrix(1.00, 0.00, -0.00, -1.00, 159.1, 417.0)">t</text><text xml:space="preserve" font-family="Helvetica-Light" font-size="16.5" fill="#FEFFFF" transform="matrix(1.00, 0.00, -0.00, -1.00, 163.7, 417.0)">h</text><text xml:space="preserve" font-family="Helvetica-Light" font-size="16.5" fill="#FEFFFF" transform="matrix(1.00, 0.00, -0.00, -1.00, 172.9, 417.0)"> </text><text xml:space="preserve" font-family="Helvetica-Light" font-size="16.5" fill="#FEFFFF" transform="matrix(1.00, 0.00, -0.00, -1.00, 177.5, 417.0)">–</text><text xml:space="preserve" font-family="Helvetica-Light" font-size="16.5" fill="#FEFFFF" transform="matrix(1.00, 0.00, -0.00, -1.00, 185.8, 417.0)"> </text><text xml:space="preserve" font-family="Helvetica-Light" font-size="16.5" fill="#FEFFFF" transform="matrix(1.00, 0.00, -0.00, -1.00, 190.4, 417.0)">l</text><text xml:space="preserve" font-family="Helvetica-Light" font-size="16.5" fill="#FEFFFF" transform="matrix(1.00, 0.00, -0.00, -1.00, 194.0, 417.0)">e</text><text xml:space="preserve" font-family="Helvetica-Light" font-size="16.5" fill="#FEFFFF" transform="matrix(1.00, 0.00, -0.00, -1.00, 203.2, 417.0)">n</text><text xml:space="preserve" font-family="Helvetica-Light" font-size="16.5" fill="#FEFFFF" transform="matrix(1.00, 0.00, -0.00, -1.00, 212.4, 417.0)">g</text><text xml:space="preserve" font-family="Helvetica-Light" font-size="16.5" fill="#FEFFFF" transform="matrix(1.00, 0.00, -0.00, -1.00, 222.5, 417.0)">t</text><text xml:space="preserve" font-family="Helvetica-Light" font-size="16.5" fill="#FEFFFF" transform="matrix(1.00, 0.00, -0.00, -1.00, 227.1, 417.0)">h</text><text xml:space="preserve" font-family="Helvetica-Light" font-size="16.5" fill="#FEFFFF" transform="matrix(1.00, 0.00, -0.00, -1.00, 236.3, 417.0)"> </text><text xml:space="preserve" font-family="Helvetica-Light" font-size="16.5" fill="#FEFFFF" transform="matrix(1.00, 0.00, -0.00, -1.00, 240.9, 417.0)">o</text><text xml:space="preserve" font-family="Helvetica-Light" font-size="16.5" fill="#FEFFFF" transform="matrix(1.00, 0.00, -0.00, -1.00, 250.0, 417.0)">f</text><text xml:space="preserve" font-family="Helvetica-Light" font-size="16.5" fill="#FEFFFF" transform="matrix(1.00, 0.00, -0.00, -1.00, 254.6, 417.0)"> </text><text xml:space="preserve" font-family="Helvetica-Light" font-size="16.5" fill="#FEFFFF" transform="matrix(1.00, 0.00, -0.00, -1.00, 259.2, 417.0)">c</text><text xml:space="preserve" font-family="Helvetica-Light" font-size="16.5" fill="#FEFFFF" transform="matrix(1.00, 0.00, -0.00, -1.00, 268.4, 417.0)">e</text><text xml:space="preserve" font-family="Helvetica-Light" font-size="16.5" fill="#FEFFFF" transform="matrix(1.00, 0.00, -0.00, -1.00, 277.6, 417.0)">l</text><text xml:space="preserve" font-family="Helvetica-Light" font-size="16.5" fill="#FEFFFF" transform="matrix(1.00, 0.00, -0.00, -1.00, 281.3, 417.0)">l</text><text xml:space="preserve" font-family="Helvetica-Light" font-size="16.5" fill="#FEFFFF" transform="matrix(1.00, 0.00, -0.00, -1.00, 284.9, 417.0)"> </text><text xml:space="preserve" font-family="Helvetica-Light" font-size="12.4" fill="#FEFFFF" transform="matrix(1.00, 0.00, -0.00, -1.00, 109.0, 375.2)">•</text><text xml:space="preserve" font-family="Helvetica-Light" font-size="16.5" fill="#FEFFFF" transform="matrix(1.00, 0.00, -0.00, -1.00, 127.0, 374.0)">m</text><text xml:space="preserve" font-family="Helvetica-Light" font-size="16.5" fill="#FEFFFF" transform="matrix(1.00, 0.00, -0.00, -1.00, 140.8, 374.0)">i</text><text xml:space="preserve" font-family="Helvetica-Light" font-size="16.5" fill="#FEFFFF" transform="matrix(1.00, 0.00, -0.00, -1.00, 144.4, 374.0)">n</text><text xml:space="preserve" font-family="Helvetica-Light" font-size="16.5" fill="#FEFFFF" transform="matrix(1.00, 0.00, -0.00, -1.00, 153.6, 374.0)">L</text><text xml:space="preserve" font-family="Helvetica-Light" font-size="16.5" fill="#FEFFFF" transform="matrix(1.00, 0.00, -0.00, -1.00, 162.8, 374.0)">e</text><text xml:space="preserve" font-family="Helvetica-Light" font-size="16.5" fill="#FEFFFF" transform="matrix(1.00, 0.00, -0.00, -1.00, 172.0, 374.0)">n</text><text xml:space="preserve" font-family="Helvetica-Light" font-size="16.5" fill="#FEFFFF" transform="matrix(1.00, 0.00, -0.00, -1.00, 181.2, 374.0)">g</text><text xml:space="preserve" font-family="Helvetica-Light" font-size="16.5" fill="#FEFFFF" transform="matrix(1.00, 0.00, -0.00, -1.00, 191.3, 374.0)">t</text><text xml:space="preserve" font-family="Helvetica-Light" font-size="16.5" fill="#FEFFFF" transform="matrix(1.00, 0.00, -0.00, -1.00, 195.9, 374.0)">h</text><text xml:space="preserve" font-family="Helvetica-Light" font-size="16.5" fill="#FEFFFF" transform="matrix(1.00, 0.00, -0.00, -1.00, 205.0, 374.0)"> </text><text xml:space="preserve" font-family="Helvetica-Light" font-size="16.5" fill="#FEFFFF" transform="matrix(1.00, 0.00, -0.00, -1.00, 209.6, 374.0)">–</text><text xml:space="preserve" font-family="Helvetica-Light" font-size="16.5" fill="#FEFFFF" transform="matrix(1.00, 0.00, -0.00, -1.00, 217.9, 374.0)"> </text><text xml:space="preserve" font-family="Helvetica-Light" font-size="16.5" fill="#FEFFFF" transform="matrix(1.00, 0.00, -0.00, -1.00, 222.5, 374.0)">m</text><text xml:space="preserve" font-family="Helvetica-Light" font-size="16.5" fill="#FEFFFF" transform="matrix(1.00, 0.00, -0.00, -1.00, 236.2, 374.0)">i</text><text xml:space="preserve" font-family="Helvetica-Light" font-size="16.5" fill="#FEFFFF" transform="matrix(1.00, 0.00, -0.00, -1.00, 239.9, 374.0)">n</text><text xml:space="preserve" font-family="Helvetica-Light" font-size="16.5" fill="#FEFFFF" transform="matrix(1.00, 0.00, -0.00, -1.00, 249.1, 374.0)">i</text><text xml:space="preserve" font-family="Helvetica-Light" font-size="16.5" fill="#FEFFFF" transform="matrix(1.00, 0.00, -0.00, -1.00, 252.8, 374.0)">m</text><text xml:space="preserve" font-family="Helvetica-Light" font-size="16.5" fill="#FEFFFF" transform="matrix(1.00, 0.00, -0.00, -1.00, 266.5, 374.0)">u</text><text xml:space="preserve" font-family="Helvetica-Light" font-size="16.5" fill="#FEFFFF" transform="matrix(1.00, 0.00, -0.00, -1.00, 275.7, 374.0)">m</text><text xml:space="preserve" font-family="Helvetica-Light" font-size="16.5" fill="#FEFFFF" transform="matrix(1.00, 0.00, -0.00, -1.00, 289.5, 374.0)"> </text><text xml:space="preserve" font-family="Helvetica-Light" font-size="16.5" fill="#FEFFFF" transform="matrix(1.00, 0.00, -0.00, -1.00, 294.1, 374.0)">l</text><text xml:space="preserve" font-family="Helvetica-Light" font-size="16.5" fill="#FEFFFF" transform="matrix(1.00, 0.00, -0.00, -1.00, 297.7, 374.0)">e</text><text xml:space="preserve" font-family="Helvetica-Light" font-size="16.5" fill="#FEFFFF" transform="matrix(1.00, 0.00, -0.00, -1.00, 306.9, 374.0)">n</text><text xml:space="preserve" font-family="Helvetica-Light" font-size="16.5" fill="#FEFFFF" transform="matrix(1.00, 0.00, -0.00, -1.00, 316.1, 374.0)">g</text><text xml:space="preserve" font-family="Helvetica-Light" font-size="16.5" fill="#FEFFFF" transform="matrix(1.00, 0.00, -0.00, -1.00, 326.2, 374.0)">t</text><text xml:space="preserve" font-family="Helvetica-Light" font-size="16.5" fill="#FEFFFF" transform="matrix(1.00, 0.00, -0.00, -1.00, 330.8, 374.0)">h</text><text xml:space="preserve" font-family="Helvetica-Light" font-size="16.5" fill="#FEFFFF" transform="matrix(1.00, 0.00, -0.00, -1.00, 340.0, 374.0)"> </text><text xml:space="preserve" font-family="Helvetica-Light" font-size="16.5" fill="#FEFFFF" transform="matrix(1.00, 0.00, -0.00, -1.00, 344.6, 374.0)">o</text><text xml:space="preserve" font-family="Helvetica-Light" font-size="16.5" fill="#FEFFFF" transform="matrix(1.00, 0.00, -0.00, -1.00, 353.8, 374.0)">f</text><text xml:space="preserve" font-family="Helvetica-Light" font-size="16.5" fill="#FEFFFF" transform="matrix(1.00, 0.00, -0.00, -1.00, 358.3, 374.0)"> </text><text xml:space="preserve" font-family="Helvetica-Light" font-size="16.5" fill="#FEFFFF" transform="matrix(1.00, 0.00, -0.00, -1.00, 362.9, 374.0)">c</text><text xml:space="preserve" font-family="Helvetica-Light" font-size="16.5" fill="#FEFFFF" transform="matrix(1.00, 0.00, -0.00, -1.00, 372.1, 374.0)">e</text><text xml:space="preserve" font-family="Helvetica-Light" font-size="16.5" fill="#FEFFFF" transform="matrix(1.00, 0.00, -0.00, -1.00, 381.3, 374.0)">l</text><text xml:space="preserve" font-family="Helvetica-Light" font-size="16.5" fill="#FEFFFF" transform="matrix(1.00, 0.00, -0.00, -1.00, 385.0, 374.0)">l</text><text xml:space="preserve" font-family="Helvetica-Light" font-size="16.5" fill="#FEFFFF" transform="matrix(1.00, 0.00, -0.00, -1.00, 388.6, 374.0)"> </text><text xml:space="preserve" font-family="Helvetica-Light" font-size="12.4" fill="#FEFFFF" transform="matrix(1.00, 0.00, -0.00, -1.00, 109.0, 332.7)">•</text><text xml:space="preserve" font-family="Helvetica-Light" font-size="16.5" fill="#FEFFFF" transform="matrix(1.00, 0.00, -0.00, -1.00, 127.0, 332.0)">m</text><text xml:space="preserve" font-family="Helvetica-Light" font-size="16.5" fill="#FEFFFF" transform="matrix(1.00, 0.00, -0.00, -1.00, 140.8, 332.0)">a</text><text xml:space="preserve" font-family="Helvetica-Light" font-size="16.5" fill="#FEFFFF" transform="matrix(1.00, 0.00, -0.00, -1.00, 149.9, 332.0)">x</text><text xml:space="preserve" font-family="Helvetica-Light" font-size="16.5" fill="#FEFFFF" transform="matrix(1.00, 0.00, -0.00, -1.00, 158.2, 332.0)">L</text><text xml:space="preserve" font-family="Helvetica-Light" font-size="16.5" fill="#FEFFFF" transform="matrix(1.00, 0.00, -0.00, -1.00, 167.4, 332.0)">e</text><text xml:space="preserve" font-family="Helvetica-Light" font-size="16.5" fill="#FEFFFF" transform="matrix(1.00, 0.00, -0.00, -1.00, 176.6, 332.0)">n</text><text xml:space="preserve" font-family="Helvetica-Light" font-size="16.5" fill="#FEFFFF" transform="matrix(1.00, 0.00, -0.00, -1.00, 185.8, 332.0)">g</text><text xml:space="preserve" font-family="Helvetica-Light" font-size="16.5" fill="#FEFFFF" transform="matrix(1.00, 0.00, -0.00, -1.00, 195.9, 332.0)">t</text><text xml:space="preserve" font-family="Helvetica-Light" font-size="16.5" fill="#FEFFFF" transform="matrix(1.00, 0.00, -0.00, -1.00, 200.4, 332.0)">h</text><text xml:space="preserve" font-family="Helvetica-Light" font-size="16.5" fill="#FEFFFF" transform="matrix(1.00, 0.00, -0.00, -1.00, 209.6, 332.0)"> </text><text xml:space="preserve" font-family="Helvetica-Light" font-size="16.5" fill="#FEFFFF" transform="matrix(1.00, 0.00, -0.00, -1.00, 214.2, 332.0)">–</text><text xml:space="preserve" font-family="Helvetica-Light" font-size="16.5" fill="#FEFFFF" transform="matrix(1.00, 0.00, -0.00, -1.00, 222.5, 332.0)"> </text><text xml:space="preserve" font-family="Helvetica-Light" font-size="16.5" fill="#FEFFFF" transform="matrix(1.00, 0.00, -0.00, -1.00, 227.1, 332.0)">m</text><text xml:space="preserve" font-family="Helvetica-Light" font-size="16.5" fill="#FEFFFF" transform="matrix(1.00, 0.00, -0.00, -1.00, 240.8, 332.0)">a</text><text xml:space="preserve" font-family="Helvetica-Light" font-size="16.5" fill="#FEFFFF" transform="matrix(1.00, 0.00, -0.00, -1.00, 250.0, 332.0)">x</text><text xml:space="preserve" font-family="Helvetica-Light" font-size="16.5" fill="#FEFFFF" transform="matrix(1.00, 0.00, -0.00, -1.00, 258.3, 332.0)">i</text><text xml:space="preserve" font-family="Helvetica-Light" font-size="16.5" fill="#FEFFFF" transform="matrix(1.00, 0.00, -0.00, -1.00, 262.0, 332.0)">m</text><text xml:space="preserve" font-family="Helvetica-Light" font-size="16.5" fill="#FEFFFF" transform="matrix(1.00, 0.00, -0.00, -1.00, 275.7, 332.0)">u</text><text xml:space="preserve" font-family="Helvetica-Light" font-size="16.5" fill="#FEFFFF" transform="matrix(1.00, 0.00, -0.00, -1.00, 284.9, 332.0)">m</text><text xml:space="preserve" font-family="Helvetica-Light" font-size="16.5" fill="#FEFFFF" transform="matrix(1.00, 0.00, -0.00, -1.00, 298.7, 332.0)"> </text><text xml:space="preserve" font-family="Helvetica-Light" font-size="16.5" fill="#FEFFFF" transform="matrix(1.00, 0.00, -0.00, -1.00, 303.3, 332.0)">l</text><text xml:space="preserve" font-family="Helvetica-Light" font-size="16.5" fill="#FEFFFF" transform="matrix(1.00, 0.00, -0.00, -1.00, 306.9, 332.0)">e</text><text xml:space="preserve" font-family="Helvetica-Light" font-size="16.5" fill="#FEFFFF" transform="matrix(1.00, 0.00, -0.00, -1.00, 316.1, 332.0)">n</text><text xml:space="preserve" font-family="Helvetica-Light" font-size="16.5" fill="#FEFFFF" transform="matrix(1.00, 0.00, -0.00, -1.00, 325.3, 332.0)">g</text><text xml:space="preserve" font-family="Helvetica-Light" font-size="16.5" fill="#FEFFFF" transform="matrix(1.00, 0.00, -0.00, -1.00, 335.4, 332.0)">t</text><text xml:space="preserve" font-family="Helvetica-Light" font-size="16.5" fill="#FEFFFF" transform="matrix(1.00, 0.00, -0.00, -1.00, 340.0, 332.0)">h</text><text xml:space="preserve" font-family="Helvetica-Light" font-size="16.5" fill="#FEFFFF" transform="matrix(1.00, 0.00, -0.00, -1.00, 349.2, 332.0)"> </text><text xml:space="preserve" font-family="Helvetica-Light" font-size="16.5" fill="#FEFFFF" transform="matrix(1.00, 0.00, -0.00, -1.00, 353.8, 332.0)">o</text><text xml:space="preserve" font-family="Helvetica-Light" font-size="16.5" fill="#FEFFFF" transform="matrix(1.00, 0.00, -0.00, -1.00, 362.9, 332.0)">f</text><text xml:space="preserve" font-family="Helvetica-Light" font-size="16.5" fill="#FEFFFF" transform="matrix(1.00, 0.00, -0.00, -1.00, 367.5, 332.0)"> </text><text xml:space="preserve" font-family="Helvetica-Light" font-size="16.5" fill="#FEFFFF" transform="matrix(1.00, 0.00, -0.00, -1.00, 372.1, 332.0)">c</text><text xml:space="preserve" font-family="Helvetica-Light" font-size="16.5" fill="#FEFFFF" transform="matrix(1.00, 0.00, -0.00, -1.00, 381.3, 332.0)">e</text><text xml:space="preserve" font-family="Helvetica-Light" font-size="16.5" fill="#FEFFFF" transform="matrix(1.00, 0.00, -0.00, -1.00, 390.5, 332.0)">l</text><text xml:space="preserve" font-family="Helvetica-Light" font-size="16.5" fill="#FEFFFF" transform="matrix(1.00, 0.00, -0.00, -1.00, 394.2, 332.0)">l</text><text xml:space="preserve" font-family="Helvetica-Light" font-size="16.5" fill="#FEFFFF" transform="matrix(1.00, 0.00, -0.00, -1.00, 397.8, 332.0)"> </text><text xml:space="preserve" font-family="Helvetica-Light" font-size="12.4" fill="#FEFFFF" transform="matrix(1.00, 0.00, -0.00, -1.00, 79.0, 290.3)">•</text><text xml:space="preserve" font-family="Helvetica-Light" font-size="16.5" fill="#FEFFFF" transform="matrix(1.00, 0.00, -0.00, -1.00, 97.0, 289.0)">V</text><text xml:space="preserve" font-family="Helvetica-Light" font-size="16.5" fill="#FEFFFF" transform="matrix(1.00, 0.00, -0.00, -1.00, 106.2, 289.0)">a</text><text xml:space="preserve" font-family="Helvetica-Light" font-size="16.5" fill="#FEFFFF" transform="matrix(1.00, 0.00, -0.00, -1.00, 115.4, 289.0)">l</text><text xml:space="preserve" font-family="Helvetica-Light" font-size="16.5" fill="#FEFFFF" transform="matrix(1.00, 0.00, -0.00, -1.00, 119.0, 289.0)">u</text><text xml:space="preserve" font-family="Helvetica-Light" font-size="16.5" fill="#FEFFFF" transform="matrix(1.00, 0.00, -0.00, -1.00, 128.2, 289.0)">e</text><text xml:space="preserve" font-family="Helvetica-Light" font-size="16.5" fill="#FEFFFF" transform="matrix(1.00, 0.00, -0.00, -1.00, 137.4, 289.0)"> </text><text xml:space="preserve" font-family="Helvetica-Light" font-size="16.5" fill="#FEFFFF" transform="matrix(1.00, 0.00, -0.00, -1.00, 142.0, 289.0)">C</text><text xml:space="preserve" font-family="Helvetica-Light" font-size="16.5" fill="#FEFFFF" transform="matrix(1.00, 0.00, -0.00, -1.00, 153.9, 289.0)">o</text><text xml:space="preserve" font-family="Helvetica-Light" font-size="16.5" fill="#FEFFFF" transform="matrix(1.00, 0.00, -0.00, -1.00, 163.1, 289.0)">n</text><text xml:space="preserve" font-family="Helvetica-Light" font-size="16.5" fill="#FEFFFF" transform="matrix(1.00, 0.00, -0.00, -1.00, 172.3, 289.0)">s</text><text xml:space="preserve" font-family="Helvetica-Light" font-size="16.5" fill="#FEFFFF" transform="matrix(1.00, 0.00, -0.00, -1.00, 180.6, 289.0)">t</text><text xml:space="preserve" font-family="Helvetica-Light" font-size="16.5" fill="#FEFFFF" transform="matrix(1.00, 0.00, -0.00, -1.00, 185.2, 289.0)">r</text><text xml:space="preserve" font-family="Helvetica-Light" font-size="16.5" fill="#FEFFFF" transform="matrix(1.00, 0.00, -0.00, -1.00, 190.7, 289.0)">a</text><text xml:space="preserve" font-family="Helvetica-Light" font-size="16.5" fill="#FEFFFF" transform="matrix(1.00, 0.00, -0.00, -1.00, 199.8, 289.0)">i</text><text xml:space="preserve" font-family="Helvetica-Light" font-size="16.5" fill="#FEFFFF" transform="matrix(1.00, 0.00, -0.00, -1.00, 203.5, 289.0)">n</text><text xml:space="preserve" font-family="Helvetica-Light" font-size="16.5" fill="#FEFFFF" transform="matrix(1.00, 0.00, -0.00, -1.00, 212.7, 289.0)">t</text><text xml:space="preserve" font-family="Helvetica-Light" font-size="16.5" fill="#FEFFFF" transform="matrix(1.00, 0.00, -0.00, -1.00, 217.3, 289.0)">s</text><text xml:space="preserve" font-family="Helvetica-Light" font-size="16.5" fill="#FEFFFF" transform="matrix(1.00, 0.00, -0.00, -1.00, 225.5, 289.0)"> </text><text xml:space="preserve" font-family="Helvetica-Light" font-size="12.4" fill="#FEFFFF" transform="matrix(1.00, 0.00, -0.00, -1.00, 109.0, 247.9)">•</text><text xml:space="preserve" font-family="Helvetica-Light" font-size="16.5" fill="#FEFFFF" transform="matrix(1.00, 0.00, -0.00, -1.00, 127.0, 247.0)">m</text><text xml:space="preserve" font-family="Helvetica-Light" font-size="16.5" fill="#FEFFFF" transform="matrix(1.00, 0.00, -0.00, -1.00, 140.8, 247.0)">i</text><text xml:space="preserve" font-family="Helvetica-Light" font-size="16.5" fill="#FEFFFF" transform="matrix(1.00, 0.00, -0.00, -1.00, 144.4, 247.0)">n</text><text xml:space="preserve" font-family="Helvetica-Light" font-size="16.5" fill="#FEFFFF" transform="matrix(1.00, 0.00, -0.00, -1.00, 153.6, 247.0)">i</text><text xml:space="preserve" font-family="Helvetica-Light" font-size="16.5" fill="#FEFFFF" transform="matrix(1.00, 0.00, -0.00, -1.00, 157.3, 247.0)">m</text><text xml:space="preserve" font-family="Helvetica-Light" font-size="16.5" fill="#FEFFFF" transform="matrix(1.00, 0.00, -0.00, -1.00, 171.0, 247.0)">u</text><text xml:space="preserve" font-family="Helvetica-Light" font-size="16.5" fill="#FEFFFF" transform="matrix(1.00, 0.00, -0.00, -1.00, 180.2, 247.0)">m</text><text xml:space="preserve" font-family="Helvetica-Light" font-size="16.5" fill="#FEFFFF" transform="matrix(1.00, 0.00, -0.00, -1.00, 194.0, 247.0)">/</text><text xml:space="preserve" font-family="Helvetica-Light" font-size="16.5" fill="#FEFFFF" transform="matrix(1.00, 0.00, -0.00, -1.00, 198.6, 247.0)">m</text><text xml:space="preserve" font-family="Helvetica-Light" font-size="16.5" fill="#FEFFFF" transform="matrix(1.00, 0.00, -0.00, -1.00, 212.3, 247.0)">a</text><text xml:space="preserve" font-family="Helvetica-Light" font-size="16.5" fill="#FEFFFF" transform="matrix(1.00, 0.00, -0.00, -1.00, 221.5, 247.0)">x</text><text xml:space="preserve" font-family="Helvetica-Light" font-size="16.5" fill="#FEFFFF" transform="matrix(1.00, 0.00, -0.00, -1.00, 229.8, 247.0)">i</text><text xml:space="preserve" font-family="Helvetica-Light" font-size="16.5" fill="#FEFFFF" transform="matrix(1.00, 0.00, -0.00, -1.00, 233.5, 247.0)">m</text><text xml:space="preserve" font-family="Helvetica-Light" font-size="16.5" fill="#FEFFFF" transform="matrix(1.00, 0.00, -0.00, -1.00, 247.2, 247.0)">u</text><text xml:space="preserve" font-family="Helvetica-Light" font-size="16.5" fill="#FEFFFF" transform="matrix(1.00, 0.00, -0.00, -1.00, 256.4, 247.0)">m</text><text xml:space="preserve" font-family="Helvetica-Light" font-size="16.5" fill="#FEFFFF" transform="matrix(1.00, 0.00, -0.00, -1.00, 270.2, 247.0)"> </text><text xml:space="preserve" font-family="Helvetica-Light" font-size="16.5" fill="#FEFFFF" transform="matrix(1.00, 0.00, -0.00, -1.00, 274.8, 247.0)">–</text><text xml:space="preserve" font-family="Helvetica-Light" font-size="16.5" fill="#FEFFFF" transform="matrix(1.00, 0.00, -0.00, -1.00, 283.0, 247.0)"> </text><text xml:space="preserve" font-family="Helvetica-Light" font-size="16.5" fill="#FEFFFF" transform="matrix(1.00, 0.00, -0.00, -1.00, 287.6, 247.0)">v</text><text xml:space="preserve" font-family="Helvetica-Light" font-size="16.5" fill="#FEFFFF" transform="matrix(1.00, 0.00, -0.00, -1.00, 295.9, 247.0)">a</text><text xml:space="preserve" font-family="Helvetica-Light" font-size="16.5" fill="#FEFFFF" transform="matrix(1.00, 0.00, -0.00, -1.00, 305.1, 247.0)">l</text><text xml:space="preserve" font-family="Helvetica-Light" font-size="16.5" fill="#FEFFFF" transform="matrix(1.00, 0.00, -0.00, -1.00, 308.7, 247.0)">u</text><text xml:space="preserve" font-family="Helvetica-Light" font-size="16.5" fill="#FEFFFF" transform="matrix(1.00, 0.00, -0.00, -1.00, 317.9, 247.0)">e</text><text xml:space="preserve" font-family="Helvetica-Light" font-size="16.5" fill="#FEFFFF" transform="matrix(1.00, 0.00, -0.00, -1.00, 327.1, 247.0)">s</text><text xml:space="preserve" font-family="Helvetica-Light" font-size="16.5" fill="#FEFFFF" transform="matrix(1.00, 0.00, -0.00, -1.00, 335.4, 247.0)"> </text><text xml:space="preserve" font-family="Helvetica-Light" font-size="16.5" fill="#FEFFFF" transform="matrix(1.00, 0.00, -0.00, -1.00, 339.9, 247.0)">o</text><text xml:space="preserve" font-family="Helvetica-Light" font-size="16.5" fill="#FEFFFF" transform="matrix(1.00, 0.00, -0.00, -1.00, 349.1, 247.0)">f</text><text xml:space="preserve" font-family="Helvetica-Light" font-size="16.5" fill="#FEFFFF" transform="matrix(1.00, 0.00, -0.00, -1.00, 353.7, 247.0)"> </text><text xml:space="preserve" font-family="Helvetica-Light" font-size="16.5" fill="#FEFFFF" transform="matrix(1.00, 0.00, -0.00, -1.00, 358.3, 247.0)">c</text><text xml:space="preserve" font-family="Helvetica-Light" font-size="16.5" fill="#FEFFFF" transform="matrix(1.00, 0.00, -0.00, -1.00, 367.5, 247.0)">e</text><text xml:space="preserve" font-family="Helvetica-Light" font-size="16.5" fill="#FEFFFF" transform="matrix(1.00, 0.00, -0.00, -1.00, 376.7, 247.0)">l</text><text xml:space="preserve" font-family="Helvetica-Light" font-size="16.5" fill="#FEFFFF" transform="matrix(1.00, 0.00, -0.00, -1.00, 380.4, 247.0)">l</text><text xml:space="preserve" font-family="Helvetica-Light" font-size="16.5" fill="#FEFFFF" transform="matrix(1.00, 0.00, -0.00, -1.00, 384.0, 247.0)"> </text><text xml:space="preserve" font-family="Helvetica-Light" font-size="12.4" fill="#FEFFFF" transform="matrix(1.00, 0.00, -0.00, -1.00, 109.0, 205.5)">•</text><text xml:space="preserve" font-family="Helvetica-Light" font-size="16.5" fill="#FEFFFF" transform="matrix(1.00, 0.00, -0.00, -1.00, 127.0, 204.0)">m</text><text xml:space="preserve" font-family="Helvetica-Light" font-size="16.5" fill="#FEFFFF" transform="matrix(1.00, 0.00, -0.00, -1.00, 140.8, 204.0)">i</text><text xml:space="preserve" font-family="Helvetica-Light" font-size="16.5" fill="#FEFFFF" transform="matrix(1.00, 0.00, -0.00, -1.00, 144.4, 204.0)">n</text><text xml:space="preserve" font-family="Helvetica-Light" font-size="16.5" fill="#FEFFFF" transform="matrix(1.00, 0.00, -0.00, -1.00, 153.6, 204.0)">I</text><text xml:space="preserve" font-family="Helvetica-Light" font-size="16.5" fill="#FEFFFF" transform="matrix(1.00, 0.00, -0.00, -1.00, 158.2, 204.0)">n</text><text xml:space="preserve" font-family="Helvetica-Light" font-size="16.5" fill="#FEFFFF" transform="matrix(1.00, 0.00, -0.00, -1.00, 167.4, 204.0)">c</text><text xml:space="preserve" font-family="Helvetica-Light" font-size="16.5" fill="#FEFFFF" transform="matrix(1.00, 0.00, -0.00, -1.00, 176.6, 204.0)">l</text><text xml:space="preserve" font-family="Helvetica-Light" font-size="16.5" fill="#FEFFFF" transform="matrix(1.00, 0.00, -0.00, -1.00, 180.2, 204.0)">u</text><text xml:space="preserve" font-family="Helvetica-Light" font-size="16.5" fill="#FEFFFF" transform="matrix(1.00, 0.00, -0.00, -1.00, 189.4, 204.0)">s</text><text xml:space="preserve" font-family="Helvetica-Light" font-size="16.5" fill="#FEFFFF" transform="matrix(1.00, 0.00, -0.00, -1.00, 197.7, 204.0)">i</text><text xml:space="preserve" font-family="Helvetica-Light" font-size="16.5" fill="#FEFFFF" transform="matrix(1.00, 0.00, -0.00, -1.00, 201.4, 204.0)">v</text><text xml:space="preserve" font-family="Helvetica-Light" font-size="16.5" fill="#FEFFFF" transform="matrix(1.00, 0.00, -0.00, -1.00, 209.6, 204.0)">e</text><text xml:space="preserve" font-family="Helvetica-Light" font-size="16.5" fill="#FEFFFF" transform="matrix(1.00, 0.00, -0.00, -1.00, 218.8, 204.0)">/</text><text xml:space="preserve" font-family="Helvetica-Light" font-size="16.5" fill="#FEFFFF" transform="matrix(1.00, 0.00, -0.00, -1.00, 223.4, 204.0)">m</text><text xml:space="preserve" font-family="Helvetica-Light" font-size="16.5" fill="#FEFFFF" transform="matrix(1.00, 0.00, -0.00, -1.00, 237.2, 204.0)">a</text><text xml:space="preserve" font-family="Helvetica-Light" font-size="16.5" fill="#FEFFFF" transform="matrix(1.00, 0.00, -0.00, -1.00, 246.3, 204.0)">x</text><text xml:space="preserve" font-family="Helvetica-Light" font-size="16.5" fill="#FEFFFF" transform="matrix(1.00, 0.00, -0.00, -1.00, 254.6, 204.0)">I</text><text xml:space="preserve" font-family="Helvetica-Light" font-size="16.5" fill="#FEFFFF" transform="matrix(1.00, 0.00, -0.00, -1.00, 259.2, 204.0)">n</text><text xml:space="preserve" font-family="Helvetica-Light" font-size="16.5" fill="#FEFFFF" transform="matrix(1.00, 0.00, -0.00, -1.00, 268.4, 204.0)">c</text><text xml:space="preserve" font-family="Helvetica-Light" font-size="16.5" fill="#FEFFFF" transform="matrix(1.00, 0.00, -0.00, -1.00, 277.6, 204.0)">l</text><text xml:space="preserve" font-family="Helvetica-Light" font-size="16.5" fill="#FEFFFF" transform="matrix(1.00, 0.00, -0.00, -1.00, 281.2, 204.0)">u</text><text xml:space="preserve" font-family="Helvetica-Light" font-size="16.5" fill="#FEFFFF" transform="matrix(1.00, 0.00, -0.00, -1.00, 290.4, 204.0)">s</text><text xml:space="preserve" font-family="Helvetica-Light" font-size="16.5" fill="#FEFFFF" transform="matrix(1.00, 0.00, -0.00, -1.00, 298.7, 204.0)">i</text><text xml:space="preserve" font-family="Helvetica-Light" font-size="16.5" fill="#FEFFFF" transform="matrix(1.00, 0.00, -0.00, -1.00, 302.3, 204.0)">v</text><text xml:space="preserve" font-family="Helvetica-Light" font-size="16.5" fill="#FEFFFF" transform="matrix(1.00, 0.00, -0.00, -1.00, 310.6, 204.0)">e</text><text xml:space="preserve" font-family="Helvetica-Light" font-size="16.5" fill="#FEFFFF" transform="matrix(1.00, 0.00, -0.00, -1.00, 319.8, 204.0)"> </text><text xml:space="preserve" font-family="Helvetica-Light" font-size="12.4" fill="#FEFFFF" transform="matrix(1.00, 0.00, -0.00, -1.00, 109.0, 163.1)">•</text><text xml:space="preserve" font-family="Helvetica-Light" font-size="16.5" fill="#FEFFFF" transform="matrix(1.00, 0.00, -0.00, -1.00, 127.0, 162.0)">m</text><text xml:space="preserve" font-family="Helvetica-Light" font-size="16.5" fill="#FEFFFF" transform="matrix(1.00, 0.00, -0.00, -1.00, 140.8, 162.0)">i</text><text xml:space="preserve" font-family="Helvetica-Light" font-size="16.5" fill="#FEFFFF" transform="matrix(1.00, 0.00, -0.00, -1.00, 144.4, 162.0)">n</text><text xml:space="preserve" font-family="Helvetica-Light" font-size="16.5" fill="#FEFFFF" transform="matrix(1.00, 0.00, -0.00, -1.00, 153.6, 162.0)">E</text><text xml:space="preserve" font-family="Helvetica-Light" font-size="16.5" fill="#FEFFFF" transform="matrix(1.00, 0.00, -0.00, -1.00, 163.7, 162.0)">x</text><text xml:space="preserve" font-family="Helvetica-Light" font-size="16.5" fill="#FEFFFF" transform="matrix(1.00, 0.00, -0.00, -1.00, 172.0, 162.0)">c</text><text xml:space="preserve" font-family="Helvetica-Light" font-size="16.5" fill="#FEFFFF" transform="matrix(1.00, 0.00, -0.00, -1.00, 181.2, 162.0)">l</text><text xml:space="preserve" font-family="Helvetica-Light" font-size="16.5" fill="#FEFFFF" transform="matrix(1.00, 0.00, -0.00, -1.00, 184.8, 162.0)">u</text><text xml:space="preserve" font-family="Helvetica-Light" font-size="16.5" fill="#FEFFFF" transform="matrix(1.00, 0.00, -0.00, -1.00, 194.0, 162.0)">s</text><text xml:space="preserve" font-family="Helvetica-Light" font-size="16.5" fill="#FEFFFF" transform="matrix(1.00, 0.00, -0.00, -1.00, 202.3, 162.0)">i</text><text xml:space="preserve" font-family="Helvetica-Light" font-size="16.5" fill="#FEFFFF" transform="matrix(1.00, 0.00, -0.00, -1.00, 205.9, 162.0)">v</text><text xml:space="preserve" font-family="Helvetica-Light" font-size="16.5" fill="#FEFFFF" transform="matrix(1.00, 0.00, -0.00, -1.00, 214.2, 162.0)">e</text><text xml:space="preserve" font-family="Helvetica-Light" font-size="16.5" fill="#FEFFFF" transform="matrix(1.00, 0.00, -0.00, -1.00, 223.4, 162.0)">/</text><text xml:space="preserve" font-family="Helvetica-Light" font-size="16.5" fill="#FEFFFF" transform="matrix(1.00, 0.00, -0.00, -1.00, 228.0, 162.0)">m</text><text xml:space="preserve" font-family="Helvetica-Light" font-size="16.5" fill="#FEFFFF" transform="matrix(1.00, 0.00, -0.00, -1.00, 241.7, 162.0)">a</text><text xml:space="preserve" font-family="Helvetica-Light" font-size="16.5" fill="#FEFFFF" transform="matrix(1.00, 0.00, -0.00, -1.00, 250.9, 162.0)">x</text><text xml:space="preserve" font-family="Helvetica-Light" font-size="16.5" fill="#FEFFFF" transform="matrix(1.00, 0.00, -0.00, -1.00, 259.2, 162.0)">E</text><text xml:space="preserve" font-family="Helvetica-Light" font-size="16.5" fill="#FEFFFF" transform="matrix(1.00, 0.00, -0.00, -1.00, 269.3, 162.0)">x</text><text xml:space="preserve" font-family="Helvetica-Light" font-size="16.5" fill="#FEFFFF" transform="matrix(1.00, 0.00, -0.00, -1.00, 277.5, 162.0)">c</text><text xml:space="preserve" font-family="Helvetica-Light" font-size="16.5" fill="#FEFFFF" transform="matrix(1.00, 0.00, -0.00, -1.00, 286.7, 162.0)">l</text><text xml:space="preserve" font-family="Helvetica-Light" font-size="16.5" fill="#FEFFFF" transform="matrix(1.00, 0.00, -0.00, -1.00, 290.4, 162.0)">u</text><text xml:space="preserve" font-family="Helvetica-Light" font-size="16.5" fill="#FEFFFF" transform="matrix(1.00, 0.00, -0.00, -1.00, 299.6, 162.0)">s</text><text xml:space="preserve" font-family="Helvetica-Light" font-size="16.5" fill="#FEFFFF" transform="matrix(1.00, 0.00, -0.00, -1.00, 307.8, 162.0)">i</text><text xml:space="preserve" font-family="Helvetica-Light" font-size="16.5" fill="#FEFFFF" transform="matrix(1.00, 0.00, -0.00, -1.00, 311.5, 162.0)">v</text><text xml:space="preserve" font-family="Helvetica-Light" font-size="16.5" fill="#FEFFFF" transform="matrix(1.00, 0.00, -0.00, -1.00, 319.8, 162.0)">e</text><text xml:space="preserve" font-family="Helvetica-Light" font-size="16.5" fill="#FEFFFF" transform="matrix(1.00, 0.00, -0.00, -1.00, 328.9, 162.0)"> </text><text xml:space="preserve" font-family="Helvetica-Light" font-size="12.4" fill="#FEFFFF" transform="matrix(1.00, 0.00, -0.00, -1.00, 79.0, 120.6)">•</text><text xml:space="preserve" font-family="Helvetica-Light" font-size="16.5" fill="#FEFFFF" transform="matrix(1.00, 0.00, -0.00, -1.00, 97.0, 120.0)">@</text><text xml:space="preserve" font-family="Helvetica-Light" font-size="16.5" fill="#FEFFFF" transform="matrix(1.00, 0.00, -0.00, -1.00, 110.2, 120.0)">i</text><text xml:space="preserve" font-family="Helvetica-Light" font-size="16.5" fill="#FEFFFF" transform="matrix(1.00, 0.00, -0.00, -1.00, 113.9, 120.0)">d</text><text xml:space="preserve" font-family="Helvetica-Light" font-size="16.5" fill="#FEFFFF" transform="matrix(1.00, 0.00, -0.00, -1.00, 124.0, 120.0)"> </text><text xml:space="preserve" font-family="Helvetica-Light" font-size="12.4" fill="#FEFFFF" transform="matrix(1.00, 0.00, -0.00, -1.00, 79.0, 78.2)">•</text><text xml:space="preserve" font-family="Helvetica-Light" font-size="16.5" fill="#FEFFFF" transform="matrix(1.00, 0.00, -0.00, -1.00, 97.0, 77.0)">@</text><text xml:space="preserve" font-family="Helvetica-Light" font-size="16.5" fill="#FEFFFF" transform="matrix(1.00, 0.00, -0.00, -1.00, 110.2, 77.0)">t</text><text xml:space="preserve" font-family="Helvetica-Light" font-size="16.5" fill="#FEFFFF" transform="matrix(1.00, 0.00, -0.00, -1.00, 114.8, 77.0)">y</text><text xml:space="preserve" font-family="Helvetica-Light" font-size="16.5" fill="#FEFFFF" transform="matrix(1.00, 0.00, -0.00, -1.00, 123.1, 77.0)">p</text><text xml:space="preserve" font-family="Helvetica-Light" font-size="16.5" fill="#FEFFFF" transform="matrix(1.00, 0.00, -0.00, -1.00, 133.2, 77.0)">e</text><text xml:space="preserve" font-family="Helvetica-Light" font-size="16.5" fill="#FEFFFF" transform="matrix(1.00, 0.00, -0.00, -1.00, 142.3, 77.0)"> </text><text xml:space="preserve" font-family="Helvetica-Light" font-size="16.5" fill="#FEFFFF" transform="matrix(1.00, 0.00, -0.00, -1.00, 146.9, 77.0)">–</text><text xml:space="preserve" font-family="Helvetica-Light" font-size="16.5" fill="#FEFFFF" transform="matrix(1.00, 0.00, -0.00, -1.00, 155.2, 77.0)"> </text><text xml:space="preserve" font-family="Helvetica-Light" font-size="16.5" fill="#FEFFFF" transform="matrix(1.00, 0.00, -0.00, -1.00, 159.8, 77.0)">“</text><text xml:space="preserve" font-family="Helvetica-Light" font-size="16.5" fill="#FEFFFF" transform="matrix(1.00, 0.00, -0.00, -1.00, 166.2, 77.0)">D</text><text xml:space="preserve" font-family="Helvetica-Light" font-size="16.5" fill="#FEFFFF" transform="matrix(1.00, 0.00, -0.00, -1.00, 178.1, 77.0)">a</text><text xml:space="preserve" font-family="Helvetica-Light" font-size="16.5" fill="#FEFFFF" transform="matrix(1.00, 0.00, -0.00, -1.00, 187.3, 77.0)">t</text><text xml:space="preserve" font-family="Helvetica-Light" font-size="16.5" fill="#FEFFFF" transform="matrix(1.00, 0.00, -0.00, -1.00, 191.9, 77.0)">a</text><text xml:space="preserve" font-family="Helvetica-Light" font-size="16.5" fill="#FEFFFF" transform="matrix(1.00, 0.00, -0.00, -1.00, 201.1, 77.0)">t</text><text xml:space="preserve" font-family="Helvetica-Light" font-size="16.5" fill="#FEFFFF" transform="matrix(1.00, 0.00, -0.00, -1.00, 205.7, 77.0)">y</text><text xml:space="preserve" font-family="Helvetica-Light" font-size="16.5" fill="#FEFFFF" transform="matrix(1.00, 0.00, -0.00, -1.00, 214.0, 77.0)">p</text><text xml:space="preserve" font-family="Helvetica-Light" font-size="16.5" fill="#FEFFFF" transform="matrix(1.00, 0.00, -0.00, -1.00, 224.1, 77.0)">e</text><text xml:space="preserve" font-family="Helvetica-Light" font-size="16.5" fill="#FEFFFF" transform="matrix(1.00, 0.00, -0.00, -1.00, 233.2, 77.0)">”</text><text xml:space="preserve" font-family="Helvetica-Light" font-size="18.0" fill="#FEFFFF" transform="matrix(1.00, 0.00, -0.00, -1.00, 501.0, 18.0)">3</text><text xml:space="preserve" font-family="Helvetica-Light" font-size="18.0" fill="#FEFFFF" transform="matrix(1.00, 0.00, -0.00, -1.00, 511.0, 18.0)">2</text></g></svg>