<?xml version="1.0" encoding="UTF-8" standalone="no"?><svg xmlns="http://www.w3.org/2000/svg" xmlns:xlink="http://www.w3.org/1999/xlink" clip-rule="evenodd" stroke-miterlimit="4.00" viewBox="0 0 1024 768"><desc>SVG generated by Keynote</desc><defs></defs><g transform="matrix(1.00, 0.00, -0.00, -1.00, 0.0, 768.0)"><g><clipPath id="clip-1012"><path d="M 0.0 768.0 L 1024.0 768.0 L 1024.0 0.0 L 0.0 0.0 Z M 0.0 768.0 "></path></clipPath><g clip-path="url(#clip-1012)"><image xlink:href="../../D64B4BA4-DFE2-4353-AFBC-0E9752749D8B/assets/E7ABA782A15EA3475B4CFCC80A2FEB63.jpeg" width="1024.00" height="768.00" transform="matrix(1.00, 0.00, -0.00, -1.00, 0.0, 768.0)"></image></g></g><text xml:space="preserve" font-family="Helvetica-Light" font-size="80.0" fill="#FEFFFF" transform="matrix(1.00, 0.00, -0.00, -1.00, 416.0, 622.0)">T</text><text xml:space="preserve" font-family="Helvetica-Light" font-size="80.0" fill="#FEFFFF" transform="matrix(1.00, 0.00, -0.00, -1.00, 451.6, 622.0)">a</text><text xml:space="preserve" font-family="Helvetica-Light" font-size="80.0" fill="#FEFFFF" transform="matrix(1.00, 0.00, -0.00, -1.00, 496.1, 622.0)">b</text><text xml:space="preserve" font-family="Helvetica-Light" font-size="80.0" fill="#FEFFFF" transform="matrix(1.00, 0.00, -0.00, -1.00, 545.0, 622.0)">l</text><text xml:space="preserve" font-family="Helvetica-Light" font-size="80.0" fill="#FEFFFF" transform="matrix(1.00, 0.00, -0.00, -1.00, 562.7, 622.0)">e</text><text xml:space="preserve" font-family="Helvetica-Bold" font-weight="bold" font-size="14.9" fill="#FEFFFF" transform="matrix(1.00, 0.00, -0.00, -1.00, 79.0, 538.9)">•</text><text xml:space="preserve" font-family="Helvetica-Bold" font-weight="bold" font-size="19.9" fill="#FEFFFF" transform="matrix(1.00, 0.00, -0.00, -1.00, 100.0, 537.0)">M</text><text xml:space="preserve" font-family="Helvetica-Bold" font-weight="bold" font-size="19.9" fill="#FEFFFF" transform="matrix(1.00, 0.00, -0.00, -1.00, 116.6, 537.0)">U</text><text xml:space="preserve" font-family="Helvetica-Bold" font-weight="bold" font-size="19.9" fill="#FEFFFF" transform="matrix(1.00, 0.00, -0.00, -1.00, 130.9, 537.0)">S</text><text xml:space="preserve" font-family="Helvetica-Bold" font-weight="bold" font-size="19.9" fill="#FEFFFF" transform="matrix(1.00, 0.00, -0.00, -1.00, 144.2, 537.0)">T</text><text xml:space="preserve" font-family="Helvetica-Light" font-size="19.9" fill="#FEFFFF" transform="matrix(1.00, 0.00, -0.00, -1.00, 156.3, 537.0)"> </text><text xml:space="preserve" font-family="Helvetica-Light" font-size="19.9" fill="#FEFFFF" transform="matrix(1.00, 0.00, -0.00, -1.00, 161.8, 537.0)">i</text><text xml:space="preserve" font-family="Helvetica-Light" font-size="19.9" fill="#FEFFFF" transform="matrix(1.00, 0.00, -0.00, -1.00, 166.3, 537.0)">n</text><text xml:space="preserve" font-family="Helvetica-Light" font-size="19.9" fill="#FEFFFF" transform="matrix(1.00, 0.00, -0.00, -1.00, 177.3, 537.0)">c</text><text xml:space="preserve" font-family="Helvetica-Light" font-size="19.9" fill="#FEFFFF" transform="matrix(1.00, 0.00, -0.00, -1.00, 188.4, 537.0)">l</text><text xml:space="preserve" font-family="Helvetica-Light" font-size="19.9" fill="#FEFFFF" transform="matrix(1.00, 0.00, -0.00, -1.00, 192.8, 537.0)">u</text><text xml:space="preserve" font-family="Helvetica-Light" font-size="19.9" fill="#FEFFFF" transform="matrix(1.00, 0.00, -0.00, -1.00, 203.8, 537.0)">d</text><text xml:space="preserve" font-family="Helvetica-Light" font-size="19.9" fill="#FEFFFF" transform="matrix(1.00, 0.00, -0.00, -1.00, 216.0, 537.0)">e</text><text xml:space="preserve" font-family="Helvetica-Light" font-size="19.9" fill="#FEFFFF" transform="matrix(1.00, 0.00, -0.00, -1.00, 227.0, 537.0)"> </text><text xml:space="preserve" font-family="Helvetica-LightOblique" font-style="italic" font-size="19.9" fill="#FEFFFF" transform="matrix(1.00, 0.00, -0.00, -1.00, 232.6, 537.0)">u</text><text xml:space="preserve" font-family="Helvetica-LightOblique" font-style="italic" font-size="19.9" fill="#FEFFFF" transform="matrix(1.00, 0.00, -0.00, -1.00, 243.6, 537.0)">r</text><text xml:space="preserve" font-family="Helvetica-LightOblique" font-style="italic" font-size="19.9" fill="#FEFFFF" transform="matrix(1.00, 0.00, -0.00, -1.00, 250.2, 537.0)">l</text><text xml:space="preserve" font-family="Helvetica-LightOblique" font-style="italic" font-size="19.9" fill="#FEFFFF" transform="matrix(1.00, 0.00, -0.00, -1.00, 254.6, 537.0)"> </text><text xml:space="preserve" font-family="Helvetica-LightOblique" font-style="italic" font-size="19.9" fill="#FEFFFF" transform="matrix(1.00, 0.00, -0.00, -1.00, 260.2, 537.0)">–</text><text xml:space="preserve" font-family="Helvetica-LightOblique" font-style="italic" font-size="19.9" fill="#FEFFFF" transform="matrix(1.00, 0.00, -0.00, -1.00, 270.1, 537.0)"> </text><text xml:space="preserve" font-family="Helvetica-Light" font-size="19.9" fill="#FEFFFF" transform="matrix(1.00, 0.00, -0.00, -1.00, 275.6, 537.0)">r</text><text xml:space="preserve" font-family="Helvetica-Light" font-size="19.9" fill="#FEFFFF" transform="matrix(1.00, 0.00, -0.00, -1.00, 281.9, 537.0)">e</text><text xml:space="preserve" font-family="Helvetica-Light" font-size="19.9" fill="#FEFFFF" transform="matrix(1.00, 0.00, -0.00, -1.00, 293.0, 537.0)">f</text><text xml:space="preserve" font-family="Helvetica-Light" font-size="19.9" fill="#FEFFFF" transform="matrix(1.00, 0.00, -0.00, -1.00, 298.5, 537.0)">e</text><text xml:space="preserve" font-family="Helvetica-Light" font-size="19.9" fill="#FEFFFF" transform="matrix(1.00, 0.00, -0.00, -1.00, 309.5, 537.0)">r</text><text xml:space="preserve" font-family="Helvetica-Light" font-size="19.9" fill="#FEFFFF" transform="matrix(1.00, 0.00, -0.00, -1.00, 315.8, 537.0)">e</text><text xml:space="preserve" font-family="Helvetica-Light" font-size="19.9" fill="#FEFFFF" transform="matrix(1.00, 0.00, -0.00, -1.00, 326.9, 537.0)">n</text><text xml:space="preserve" font-family="Helvetica-Light" font-size="19.9" fill="#FEFFFF" transform="matrix(1.00, 0.00, -0.00, -1.00, 337.9, 537.0)">c</text><text xml:space="preserve" font-family="Helvetica-Light" font-size="19.9" fill="#FEFFFF" transform="matrix(1.00, 0.00, -0.00, -1.00, 349.0, 537.0)">e</text><text xml:space="preserve" font-family="Helvetica-Light" font-size="19.9" fill="#FEFFFF" transform="matrix(1.00, 0.00, -0.00, -1.00, 360.0, 537.0)"> </text><text xml:space="preserve" font-family="Helvetica-Light" font-size="19.9" fill="#FEFFFF" transform="matrix(1.00, 0.00, -0.00, -1.00, 365.5, 537.0)">t</text><text xml:space="preserve" font-family="Helvetica-Light" font-size="19.9" fill="#FEFFFF" transform="matrix(1.00, 0.00, -0.00, -1.00, 371.1, 537.0)">o</text><text xml:space="preserve" font-family="Helvetica-Light" font-size="19.9" fill="#FEFFFF" transform="matrix(1.00, 0.00, -0.00, -1.00, 382.1, 537.0)"> </text><text xml:space="preserve" font-family="Helvetica-Light" font-size="19.9" fill="#FEFFFF" transform="matrix(1.00, 0.00, -0.00, -1.00, 387.6, 537.0)">C</text><text xml:space="preserve" font-family="Helvetica-Light" font-size="19.9" fill="#FEFFFF" transform="matrix(1.00, 0.00, -0.00, -1.00, 402.0, 537.0)">S</text><text xml:space="preserve" font-family="Helvetica-Light" font-size="19.9" fill="#FEFFFF" transform="matrix(1.00, 0.00, -0.00, -1.00, 414.1, 537.0)">V</text><text xml:space="preserve" font-family="Helvetica-LightOblique" font-style="italic" font-size="19.9" fill="#FEFFFF" transform="matrix(1.00, 0.00, -0.00, -1.00, 426.3, 537.0)"> </text><text xml:space="preserve" font-family="Helvetica-Bold" font-weight="bold" font-size="14.9" fill="#FEFFFF" transform="matrix(1.00, 0.00, -0.00, -1.00, 79.0, 487.9)">•</text><text xml:space="preserve" font-family="Helvetica-Bold" font-weight="bold" font-size="19.9" fill="#FEFFFF" transform="matrix(1.00, 0.00, -0.00, -1.00, 100.0, 486.0)">M</text><text xml:space="preserve" font-family="Helvetica-Bold" font-weight="bold" font-size="19.9" fill="#FEFFFF" transform="matrix(1.00, 0.00, -0.00, -1.00, 116.6, 486.0)">A</text><text xml:space="preserve" font-family="Helvetica-Bold" font-weight="bold" font-size="19.9" fill="#FEFFFF" transform="matrix(1.00, 0.00, -0.00, -1.00, 129.1, 486.0)">Y</text><text xml:space="preserve" font-family="Helvetica-Light" font-size="19.9" fill="#FEFFFF" transform="matrix(1.00, 0.00, -0.00, -1.00, 142.4, 486.0)"> </text><text xml:space="preserve" font-family="Helvetica-Light" font-size="19.9" fill="#FEFFFF" transform="matrix(1.00, 0.00, -0.00, -1.00, 147.9, 486.0)">i</text><text xml:space="preserve" font-family="Helvetica-Light" font-size="19.9" fill="#FEFFFF" transform="matrix(1.00, 0.00, -0.00, -1.00, 152.3, 486.0)">n</text><text xml:space="preserve" font-family="Helvetica-Light" font-size="19.9" fill="#FEFFFF" transform="matrix(1.00, 0.00, -0.00, -1.00, 163.3, 486.0)">c</text><text xml:space="preserve" font-family="Helvetica-Light" font-size="19.9" fill="#FEFFFF" transform="matrix(1.00, 0.00, -0.00, -1.00, 174.4, 486.0)">l</text><text xml:space="preserve" font-family="Helvetica-Light" font-size="19.9" fill="#FEFFFF" transform="matrix(1.00, 0.00, -0.00, -1.00, 178.8, 486.0)">u</text><text xml:space="preserve" font-family="Helvetica-Light" font-size="19.9" fill="#FEFFFF" transform="matrix(1.00, 0.00, -0.00, -1.00, 189.9, 486.0)">d</text><text xml:space="preserve" font-family="Helvetica-Light" font-size="19.9" fill="#FEFFFF" transform="matrix(1.00, 0.00, -0.00, -1.00, 202.0, 486.0)">e</text><text xml:space="preserve" font-family="Helvetica-Light" font-size="19.9" fill="#FEFFFF" transform="matrix(1.00, 0.00, -0.00, -1.00, 213.1, 486.0)"> </text><text xml:space="preserve" font-family="Helvetica-Light" font-size="19.9" fill="#FEFFFF" transform="matrix(1.00, 0.00, -0.00, -1.00, 218.6, 486.0)">a</text><text xml:space="preserve" font-family="Helvetica-Light" font-size="19.9" fill="#FEFFFF" transform="matrix(1.00, 0.00, -0.00, -1.00, 229.6, 486.0)">n</text><text xml:space="preserve" font-family="Helvetica-Light" font-size="19.9" fill="#FEFFFF" transform="matrix(1.00, 0.00, -0.00, -1.00, 240.7, 486.0)">y</text><text xml:space="preserve" font-family="Helvetica-Light" font-size="19.9" fill="#FEFFFF" transform="matrix(1.00, 0.00, -0.00, -1.00, 250.6, 486.0)"> </text><text xml:space="preserve" font-family="Helvetica-Light" font-size="19.9" fill="#FEFFFF" transform="matrix(1.00, 0.00, -0.00, -1.00, 256.2, 486.0)">o</text><text xml:space="preserve" font-family="Helvetica-Light" font-size="19.9" fill="#FEFFFF" transform="matrix(1.00, 0.00, -0.00, -1.00, 267.2, 486.0)">f</text><text xml:space="preserve" font-family="Helvetica-Light" font-size="19.9" fill="#FEFFFF" transform="matrix(1.00, 0.00, -0.00, -1.00, 272.7, 486.0)"> </text><text xml:space="preserve" font-family="Helvetica-Light" font-size="19.9" fill="#FEFFFF" transform="matrix(1.00, 0.00, -0.00, -1.00, 278.3, 486.0)">t</text><text xml:space="preserve" font-family="Helvetica-Light" font-size="19.9" fill="#FEFFFF" transform="matrix(1.00, 0.00, -0.00, -1.00, 283.8, 486.0)">h</text><text xml:space="preserve" font-family="Helvetica-Light" font-size="19.9" fill="#FEFFFF" transform="matrix(1.00, 0.00, -0.00, -1.00, 294.9, 486.0)">e</text><text xml:space="preserve" font-family="Helvetica-Light" font-size="19.9" fill="#FEFFFF" transform="matrix(1.00, 0.00, -0.00, -1.00, 305.9, 486.0)"> </text><text xml:space="preserve" font-family="Helvetica-Light" font-size="19.9" fill="#FEFFFF" transform="matrix(1.00, 0.00, -0.00, -1.00, 311.4, 486.0)">f</text><text xml:space="preserve" font-family="Helvetica-Light" font-size="19.9" fill="#FEFFFF" transform="matrix(1.00, 0.00, -0.00, -1.00, 317.0, 486.0)">o</text><text xml:space="preserve" font-family="Helvetica-Light" font-size="19.9" fill="#FEFFFF" transform="matrix(1.00, 0.00, -0.00, -1.00, 328.0, 486.0)">l</text><text xml:space="preserve" font-family="Helvetica-Light" font-size="19.9" fill="#FEFFFF" transform="matrix(1.00, 0.00, -0.00, -1.00, 332.4, 486.0)">l</text><text xml:space="preserve" font-family="Helvetica-Light" font-size="19.9" fill="#FEFFFF" transform="matrix(1.00, 0.00, -0.00, -1.00, 336.8, 486.0)">o</text><text xml:space="preserve" font-family="Helvetica-Light" font-size="19.9" fill="#FEFFFF" transform="matrix(1.00, 0.00, -0.00, -1.00, 347.9, 486.0)">w</text><text xml:space="preserve" font-family="Helvetica-Light" font-size="19.9" fill="#FEFFFF" transform="matrix(1.00, 0.00, -0.00, -1.00, 362.2, 486.0)">i</text><text xml:space="preserve" font-family="Helvetica-Light" font-size="19.9" fill="#FEFFFF" transform="matrix(1.00, 0.00, -0.00, -1.00, 366.7, 486.0)">n</text><text xml:space="preserve" font-family="Helvetica-Light" font-size="19.9" fill="#FEFFFF" transform="matrix(1.00, 0.00, -0.00, -1.00, 377.7, 486.0)">g</text><text xml:space="preserve" font-family="Helvetica-Light" font-size="19.9" fill="#FEFFFF" transform="matrix(1.00, 0.00, -0.00, -1.00, 389.9, 486.0)">:</text><text xml:space="preserve" font-family="Helvetica-Light" font-size="19.9" fill="#FEFFFF" transform="matrix(1.00, 0.00, -0.00, -1.00, 395.4, 486.0)"> </text><text xml:space="preserve" font-family="Helvetica-BoldOblique" font-style="italic" font-weight="bold" font-size="14.9" fill="#FEFFFF" transform="matrix(1.00, 0.00, -0.00, -1.00, 109.0, 437.0)">•</text><text xml:space="preserve" font-family="Helvetica-LightOblique" font-style="italic" font-size="19.9" fill="#FEFFFF" transform="matrix(1.00, 0.00, -0.00, -1.00, 130.0, 435.0)">n</text><text xml:space="preserve" font-family="Helvetica-LightOblique" font-style="italic" font-size="19.9" fill="#FEFFFF" transform="matrix(1.00, 0.00, -0.00, -1.00, 141.1, 435.0)">o</text><text xml:space="preserve" font-family="Helvetica-LightOblique" font-style="italic" font-size="19.9" fill="#FEFFFF" transform="matrix(1.00, 0.00, -0.00, -1.00, 152.1, 435.0)">t</text><text xml:space="preserve" font-family="Helvetica-LightOblique" font-style="italic" font-size="19.9" fill="#FEFFFF" transform="matrix(1.00, 0.00, -0.00, -1.00, 157.6, 435.0)">e</text><text xml:space="preserve" font-family="Helvetica-LightOblique" font-style="italic" font-size="19.9" fill="#FEFFFF" transform="matrix(1.00, 0.00, -0.00, -1.00, 168.7, 435.0)">s</text><text xml:space="preserve" font-family="Helvetica-Light" font-size="19.9" fill="#FEFFFF" transform="matrix(1.00, 0.00, -0.00, -1.00, 178.6, 435.0)"> </text><text xml:space="preserve" font-family="Helvetica-Light" font-size="19.9" fill="#FEFFFF" transform="matrix(1.00, 0.00, -0.00, -1.00, 184.2, 435.0)">–</text><text xml:space="preserve" font-family="Helvetica-Light" font-size="19.9" fill="#FEFFFF" transform="matrix(1.00, 0.00, -0.00, -1.00, 194.1, 435.0)"> </text><text xml:space="preserve" font-family="Helvetica-Light" font-size="19.9" fill="#FEFFFF" transform="matrix(1.00, 0.00, -0.00, -1.00, 199.6, 435.0)">A</text><text xml:space="preserve" font-family="Helvetica-Light" font-size="19.9" fill="#FEFFFF" transform="matrix(1.00, 0.00, -0.00, -1.00, 212.9, 435.0)">r</text><text xml:space="preserve" font-family="Helvetica-Light" font-size="19.9" fill="#FEFFFF" transform="matrix(1.00, 0.00, -0.00, -1.00, 219.5, 435.0)">b</text><text xml:space="preserve" font-family="Helvetica-Light" font-size="19.9" fill="#FEFFFF" transform="matrix(1.00, 0.00, -0.00, -1.00, 231.6, 435.0)">i</text><text xml:space="preserve" font-family="Helvetica-Light" font-size="19.9" fill="#FEFFFF" transform="matrix(1.00, 0.00, -0.00, -1.00, 236.1, 435.0)">t</text><text xml:space="preserve" font-family="Helvetica-Light" font-size="19.9" fill="#FEFFFF" transform="matrix(1.00, 0.00, -0.00, -1.00, 241.6, 435.0)">r</text><text xml:space="preserve" font-family="Helvetica-Light" font-size="19.9" fill="#FEFFFF" transform="matrix(1.00, 0.00, -0.00, -1.00, 248.2, 435.0)">a</text><text xml:space="preserve" font-family="Helvetica-Light" font-size="19.9" fill="#FEFFFF" transform="matrix(1.00, 0.00, -0.00, -1.00, 259.3, 435.0)">r</text><text xml:space="preserve" font-family="Helvetica-Light" font-size="19.9" fill="#FEFFFF" transform="matrix(1.00, 0.00, -0.00, -1.00, 266.2, 435.0)">y</text><text xml:space="preserve" font-family="Helvetica-Light" font-size="19.9" fill="#FEFFFF" transform="matrix(1.00, 0.00, -0.00, -1.00, 276.2, 435.0)"> </text><text xml:space="preserve" font-family="Helvetica-Light" font-size="19.9" fill="#FEFFFF" transform="matrix(1.00, 0.00, -0.00, -1.00, 281.7, 435.0)">J</text><text xml:space="preserve" font-family="Helvetica-Light" font-size="19.9" fill="#FEFFFF" transform="matrix(1.00, 0.00, -0.00, -1.00, 291.6, 435.0)">S</text><text xml:space="preserve" font-family="Helvetica-Light" font-size="19.9" fill="#FEFFFF" transform="matrix(1.00, 0.00, -0.00, -1.00, 303.8, 435.0)">O</text><text xml:space="preserve" font-family="Helvetica-Light" font-size="19.9" fill="#FEFFFF" transform="matrix(1.00, 0.00, -0.00, -1.00, 319.3, 435.0)">N</text><text xml:space="preserve" font-family="Helvetica-Light" font-size="19.9" fill="#FEFFFF" transform="matrix(1.00, 0.00, -0.00, -1.00, 333.6, 435.0)">-</text><text xml:space="preserve" font-family="Helvetica-Light" font-size="19.9" fill="#FEFFFF" transform="matrix(1.00, 0.00, -0.00, -1.00, 340.2, 435.0)">L</text><text xml:space="preserve" font-family="Helvetica-Light" font-size="19.9" fill="#FEFFFF" transform="matrix(1.00, 0.00, -0.00, -1.00, 351.3, 435.0)">D</text><text xml:space="preserve" font-family="Helvetica-LightOblique" font-style="italic" font-size="19.9" fill="#FEFFFF" transform="matrix(1.00, 0.00, -0.00, -1.00, 365.6, 435.0)"> </text><text xml:space="preserve" font-family="Helvetica-BoldOblique" font-style="italic" font-weight="bold" font-size="14.9" fill="#FEFFFF" transform="matrix(1.00, 0.00, -0.00, -1.00, 109.0, 386.0)">•</text><text xml:space="preserve" font-family="Helvetica-LightOblique" font-style="italic" font-size="19.9" fill="#FEFFFF" transform="matrix(1.00, 0.00, -0.00, -1.00, 130.0, 384.0)">s</text><text xml:space="preserve" font-family="Helvetica-LightOblique" font-style="italic" font-size="19.9" fill="#FEFFFF" transform="matrix(1.00, 0.00, -0.00, -1.00, 139.9, 384.0)">u</text><text xml:space="preserve" font-family="Helvetica-LightOblique" font-style="italic" font-size="19.9" fill="#FEFFFF" transform="matrix(1.00, 0.00, -0.00, -1.00, 151.0, 384.0)">p</text><text xml:space="preserve" font-family="Helvetica-LightOblique" font-style="italic" font-size="19.9" fill="#FEFFFF" transform="matrix(1.00, 0.00, -0.00, -1.00, 163.1, 384.0)">p</text><text xml:space="preserve" font-family="Helvetica-LightOblique" font-style="italic" font-size="19.9" fill="#FEFFFF" transform="matrix(1.00, 0.00, -0.00, -1.00, 175.3, 384.0)">r</text><text xml:space="preserve" font-family="Helvetica-LightOblique" font-style="italic" font-size="19.9" fill="#FEFFFF" transform="matrix(1.00, 0.00, -0.00, -1.00, 181.5, 384.0)">e</text><text xml:space="preserve" font-family="Helvetica-LightOblique" font-style="italic" font-size="19.9" fill="#FEFFFF" transform="matrix(1.00, 0.00, -0.00, -1.00, 192.6, 384.0)">s</text><text xml:space="preserve" font-family="Helvetica-LightOblique" font-style="italic" font-size="19.9" fill="#FEFFFF" transform="matrix(1.00, 0.00, -0.00, -1.00, 202.5, 384.0)">s</text><text xml:space="preserve" font-family="Helvetica-LightOblique" font-style="italic" font-size="19.9" fill="#FEFFFF" transform="matrix(1.00, 0.00, -0.00, -1.00, 212.5, 384.0)">O</text><text xml:space="preserve" font-family="Helvetica-LightOblique" font-style="italic" font-size="19.9" fill="#FEFFFF" transform="matrix(1.00, 0.00, -0.00, -1.00, 227.9, 384.0)">u</text><text xml:space="preserve" font-family="Helvetica-LightOblique" font-style="italic" font-size="19.9" fill="#FEFFFF" transform="matrix(1.00, 0.00, -0.00, -1.00, 239.0, 384.0)">t</text><text xml:space="preserve" font-family="Helvetica-LightOblique" font-style="italic" font-size="19.9" fill="#FEFFFF" transform="matrix(1.00, 0.00, -0.00, -1.00, 244.5, 384.0)">p</text><text xml:space="preserve" font-family="Helvetica-LightOblique" font-style="italic" font-size="19.9" fill="#FEFFFF" transform="matrix(1.00, 0.00, -0.00, -1.00, 256.7, 384.0)">u</text><text xml:space="preserve" font-family="Helvetica-LightOblique" font-style="italic" font-size="19.9" fill="#FEFFFF" transform="matrix(1.00, 0.00, -0.00, -1.00, 267.7, 384.0)">t</text><text xml:space="preserve" font-family="Helvetica-LightOblique" font-style="italic" font-size="19.9" fill="#FEFFFF" transform="matrix(1.00, 0.00, -0.00, -1.00, 273.3, 384.0)"> </text><text xml:space="preserve" font-family="Helvetica-BoldOblique" font-style="italic" font-weight="bold" font-size="14.9" fill="#FEFFFF" transform="matrix(1.00, 0.00, -0.00, -1.00, 109.0, 335.0)">•</text><text xml:space="preserve" font-family="Helvetica-LightOblique" font-style="italic" font-size="19.9" fill="#FEFFFF" transform="matrix(1.00, 0.00, -0.00, -1.00, 130.0, 333.0)">t</text><text xml:space="preserve" font-family="Helvetica-LightOblique" font-style="italic" font-size="19.9" fill="#FEFFFF" transform="matrix(1.00, 0.00, -0.00, -1.00, 135.5, 333.0)">a</text><text xml:space="preserve" font-family="Helvetica-LightOblique" font-style="italic" font-size="19.9" fill="#FEFFFF" transform="matrix(1.00, 0.00, -0.00, -1.00, 146.6, 333.0)">b</text><text xml:space="preserve" font-family="Helvetica-LightOblique" font-style="italic" font-size="19.9" fill="#FEFFFF" transform="matrix(1.00, 0.00, -0.00, -1.00, 158.7, 333.0)">l</text><text xml:space="preserve" font-family="Helvetica-LightOblique" font-style="italic" font-size="19.9" fill="#FEFFFF" transform="matrix(1.00, 0.00, -0.00, -1.00, 163.1, 333.0)">e</text><text xml:space="preserve" font-family="Helvetica-LightOblique" font-style="italic" font-size="19.9" fill="#FEFFFF" transform="matrix(1.00, 0.00, -0.00, -1.00, 174.2, 333.0)">D</text><text xml:space="preserve" font-family="Helvetica-LightOblique" font-style="italic" font-size="19.9" fill="#FEFFFF" transform="matrix(1.00, 0.00, -0.00, -1.00, 188.5, 333.0)">i</text><text xml:space="preserve" font-family="Helvetica-LightOblique" font-style="italic" font-size="19.9" fill="#FEFFFF" transform="matrix(1.00, 0.00, -0.00, -1.00, 193.0, 333.0)">r</text><text xml:space="preserve" font-family="Helvetica-LightOblique" font-style="italic" font-size="19.9" fill="#FEFFFF" transform="matrix(1.00, 0.00, -0.00, -1.00, 199.2, 333.0)">e</text><text xml:space="preserve" font-family="Helvetica-LightOblique" font-style="italic" font-size="19.9" fill="#FEFFFF" transform="matrix(1.00, 0.00, -0.00, -1.00, 210.3, 333.0)">c</text><text xml:space="preserve" font-family="Helvetica-LightOblique" font-style="italic" font-size="19.9" fill="#FEFFFF" transform="matrix(1.00, 0.00, -0.00, -1.00, 221.3, 333.0)">t</text><text xml:space="preserve" font-family="Helvetica-LightOblique" font-style="italic" font-size="19.9" fill="#FEFFFF" transform="matrix(1.00, 0.00, -0.00, -1.00, 226.9, 333.0)">i</text><text xml:space="preserve" font-family="Helvetica-LightOblique" font-style="italic" font-size="19.9" fill="#FEFFFF" transform="matrix(1.00, 0.00, -0.00, -1.00, 231.3, 333.0)">o</text><text xml:space="preserve" font-family="Helvetica-LightOblique" font-style="italic" font-size="19.9" fill="#FEFFFF" transform="matrix(1.00, 0.00, -0.00, -1.00, 242.3, 333.0)">n</text><text xml:space="preserve" font-family="Helvetica-LightOblique" font-style="italic" font-size="19.9" fill="#FEFFFF" transform="matrix(1.00, 0.00, -0.00, -1.00, 253.4, 333.0)"> </text><text xml:space="preserve" font-family="Helvetica-BoldOblique" font-style="italic" font-weight="bold" font-size="14.9" fill="#FEFFFF" transform="matrix(1.00, 0.00, -0.00, -1.00, 109.0, 284.0)">•</text><text xml:space="preserve" font-family="Helvetica-LightOblique" font-style="italic" font-size="19.9" fill="#FEFFFF" transform="matrix(1.00, 0.00, -0.00, -1.00, 130.0, 282.0)">t</text><text xml:space="preserve" font-family="Helvetica-LightOblique" font-style="italic" font-size="19.9" fill="#FEFFFF" transform="matrix(1.00, 0.00, -0.00, -1.00, 135.5, 282.0)">a</text><text xml:space="preserve" font-family="Helvetica-LightOblique" font-style="italic" font-size="19.9" fill="#FEFFFF" transform="matrix(1.00, 0.00, -0.00, -1.00, 146.6, 282.0)">b</text><text xml:space="preserve" font-family="Helvetica-LightOblique" font-style="italic" font-size="19.9" fill="#FEFFFF" transform="matrix(1.00, 0.00, -0.00, -1.00, 158.7, 282.0)">l</text><text xml:space="preserve" font-family="Helvetica-LightOblique" font-style="italic" font-size="19.9" fill="#FEFFFF" transform="matrix(1.00, 0.00, -0.00, -1.00, 163.1, 282.0)">e</text><text xml:space="preserve" font-family="Helvetica-LightOblique" font-style="italic" font-size="19.9" fill="#FEFFFF" transform="matrix(1.00, 0.00, -0.00, -1.00, 174.2, 282.0)">S</text><text xml:space="preserve" font-family="Helvetica-LightOblique" font-style="italic" font-size="19.9" fill="#FEFFFF" transform="matrix(1.00, 0.00, -0.00, -1.00, 186.3, 282.0)">c</text><text xml:space="preserve" font-family="Helvetica-LightOblique" font-style="italic" font-size="19.9" fill="#FEFFFF" transform="matrix(1.00, 0.00, -0.00, -1.00, 197.4, 282.0)">h</text><text xml:space="preserve" font-family="Helvetica-LightOblique" font-style="italic" font-size="19.9" fill="#FEFFFF" transform="matrix(1.00, 0.00, -0.00, -1.00, 208.4, 282.0)">e</text><text xml:space="preserve" font-family="Helvetica-LightOblique" font-style="italic" font-size="19.9" fill="#FEFFFF" transform="matrix(1.00, 0.00, -0.00, -1.00, 219.5, 282.0)">m</text><text xml:space="preserve" font-family="Helvetica-LightOblique" font-style="italic" font-size="19.9" fill="#FEFFFF" transform="matrix(1.00, 0.00, -0.00, -1.00, 236.1, 282.0)">a</text><text xml:space="preserve" font-family="Helvetica-LightOblique" font-style="italic" font-size="19.9" fill="#FEFFFF" transform="matrix(1.00, 0.00, -0.00, -1.00, 247.1, 282.0)"> </text><text xml:space="preserve" font-family="Helvetica-Light" font-size="19.9" fill="#FEFFFF" transform="matrix(1.00, 0.00, -0.00, -1.00, 252.6, 282.0)">–</text><text xml:space="preserve" font-family="Helvetica-Light" font-size="19.9" fill="#FEFFFF" transform="matrix(1.00, 0.00, -0.00, -1.00, 262.6, 282.0)"> </text><text xml:space="preserve" font-family="Helvetica-Light" font-size="19.9" fill="#FEFFFF" transform="matrix(1.00, 0.00, -0.00, -1.00, 268.1, 282.0)">m</text><text xml:space="preserve" font-family="Helvetica-Light" font-size="19.9" fill="#FEFFFF" transform="matrix(1.00, 0.00, -0.00, -1.00, 284.7, 282.0)">u</text><text xml:space="preserve" font-family="Helvetica-Light" font-size="19.9" fill="#FEFFFF" transform="matrix(1.00, 0.00, -0.00, -1.00, 295.7, 282.0)">s</text><text xml:space="preserve" font-family="Helvetica-Light" font-size="19.9" fill="#FEFFFF" transform="matrix(1.00, 0.00, -0.00, -1.00, 305.7, 282.0)">t</text><text xml:space="preserve" font-family="Helvetica-Light" font-size="19.9" fill="#FEFFFF" transform="matrix(1.00, 0.00, -0.00, -1.00, 311.2, 282.0)"> </text><text xml:space="preserve" font-family="Helvetica-Light" font-size="19.9" fill="#FEFFFF" transform="matrix(1.00, 0.00, -0.00, -1.00, 316.7, 282.0)">b</text><text xml:space="preserve" font-family="Helvetica-Light" font-size="19.9" fill="#FEFFFF" transform="matrix(1.00, 0.00, -0.00, -1.00, 328.9, 282.0)">e</text><text xml:space="preserve" font-family="Helvetica-Light" font-size="19.9" fill="#FEFFFF" transform="matrix(1.00, 0.00, -0.00, -1.00, 339.9, 282.0)"> </text><text xml:space="preserve" font-family="Helvetica-Light" font-size="19.9" fill="#FEFFFF" transform="matrix(1.00, 0.00, -0.00, -1.00, 345.4, 282.0)">d</text><text xml:space="preserve" font-family="Helvetica-Light" font-size="19.9" fill="#FEFFFF" transform="matrix(1.00, 0.00, -0.00, -1.00, 357.6, 282.0)">e</text><text xml:space="preserve" font-family="Helvetica-Light" font-size="19.9" fill="#FEFFFF" transform="matrix(1.00, 0.00, -0.00, -1.00, 368.6, 282.0)">ﬁ</text><text xml:space="preserve" font-family="Helvetica-Light" font-size="19.9" fill="#FEFFFF" transform="matrix(1.00, 0.00, -0.00, -1.00, 378.6, 282.0)">n</text><text xml:space="preserve" font-family="Helvetica-Light" font-size="19.9" fill="#FEFFFF" transform="matrix(1.00, 0.00, -0.00, -1.00, 389.6, 282.0)">e</text><text xml:space="preserve" font-family="Helvetica-Light" font-size="19.9" fill="#FEFFFF" transform="matrix(1.00, 0.00, -0.00, -1.00, 400.7, 282.0)">d</text><text xml:space="preserve" font-family="Helvetica-Light" font-size="19.9" fill="#FEFFFF" transform="matrix(1.00, 0.00, -0.00, -1.00, 412.8, 282.0)"> </text><text xml:space="preserve" font-family="Helvetica-Light" font-size="19.9" fill="#FEFFFF" transform="matrix(1.00, 0.00, -0.00, -1.00, 130.0, 258.0)">s</text><text xml:space="preserve" font-family="Helvetica-Light" font-size="19.9" fill="#FEFFFF" transform="matrix(1.00, 0.00, -0.00, -1.00, 139.9, 258.0)">o</text><text xml:space="preserve" font-family="Helvetica-Light" font-size="19.9" fill="#FEFFFF" transform="matrix(1.00, 0.00, -0.00, -1.00, 151.0, 258.0)">m</text><text xml:space="preserve" font-family="Helvetica-Light" font-size="19.9" fill="#FEFFFF" transform="matrix(1.00, 0.00, -0.00, -1.00, 167.6, 258.0)">e</text><text xml:space="preserve" font-family="Helvetica-Light" font-size="19.9" fill="#FEFFFF" transform="matrix(1.00, 0.00, -0.00, -1.00, 178.6, 258.0)">p</text><text xml:space="preserve" font-family="Helvetica-Light" font-size="19.9" fill="#FEFFFF" transform="matrix(1.00, 0.00, -0.00, -1.00, 190.8, 258.0)">l</text><text xml:space="preserve" font-family="Helvetica-Light" font-size="19.9" fill="#FEFFFF" transform="matrix(1.00, 0.00, -0.00, -1.00, 195.2, 258.0)">a</text><text xml:space="preserve" font-family="Helvetica-Light" font-size="19.9" fill="#FEFFFF" transform="matrix(1.00, 0.00, -0.00, -1.00, 206.2, 258.0)">c</text><text xml:space="preserve" font-family="Helvetica-Light" font-size="19.9" fill="#FEFFFF" transform="matrix(1.00, 0.00, -0.00, -1.00, 217.3, 258.0)">e</text><text xml:space="preserve" font-family="Helvetica-Light" font-size="19.9" fill="#FEFFFF" transform="matrix(1.00, 0.00, -0.00, -1.00, 228.3, 258.0)">,</text><text xml:space="preserve" font-family="Helvetica-Light" font-size="19.9" fill="#FEFFFF" transform="matrix(1.00, 0.00, -0.00, -1.00, 233.9, 258.0)"> </text><text xml:space="preserve" font-family="Helvetica-Light" font-size="19.9" fill="#FEFFFF" transform="matrix(1.00, 0.00, -0.00, -1.00, 239.4, 258.0)">t</text><text xml:space="preserve" font-family="Helvetica-Light" font-size="19.9" fill="#FEFFFF" transform="matrix(1.00, 0.00, -0.00, -1.00, 244.9, 258.0)">o</text><text xml:space="preserve" font-family="Helvetica-Light" font-size="19.9" fill="#FEFFFF" transform="matrix(1.00, 0.00, -0.00, -1.00, 256.0, 258.0)"> </text><text xml:space="preserve" font-family="Helvetica-Light" font-size="19.9" fill="#FEFFFF" transform="matrix(1.00, 0.00, -0.00, -1.00, 261.5, 258.0)">d</text><text xml:space="preserve" font-family="Helvetica-Light" font-size="19.9" fill="#FEFFFF" transform="matrix(1.00, 0.00, -0.00, -1.00, 273.6, 258.0)">e</text><text xml:space="preserve" font-family="Helvetica-Light" font-size="19.9" fill="#FEFFFF" transform="matrix(1.00, 0.00, -0.00, -1.00, 284.7, 258.0)">s</text><text xml:space="preserve" font-family="Helvetica-Light" font-size="19.9" fill="#FEFFFF" transform="matrix(1.00, 0.00, -0.00, -1.00, 294.6, 258.0)">c</text><text xml:space="preserve" font-family="Helvetica-Light" font-size="19.9" fill="#FEFFFF" transform="matrix(1.00, 0.00, -0.00, -1.00, 305.7, 258.0)">r</text><text xml:space="preserve" font-family="Helvetica-Light" font-size="19.9" fill="#FEFFFF" transform="matrix(1.00, 0.00, -0.00, -1.00, 312.3, 258.0)">i</text><text xml:space="preserve" font-family="Helvetica-Light" font-size="19.9" fill="#FEFFFF" transform="matrix(1.00, 0.00, -0.00, -1.00, 316.7, 258.0)">b</text><text xml:space="preserve" font-family="Helvetica-Light" font-size="19.9" fill="#FEFFFF" transform="matrix(1.00, 0.00, -0.00, -1.00, 328.9, 258.0)">e</text><text xml:space="preserve" font-family="Helvetica-Light" font-size="19.9" fill="#FEFFFF" transform="matrix(1.00, 0.00, -0.00, -1.00, 339.9, 258.0)"> </text><text xml:space="preserve" font-family="Helvetica-Light" font-size="19.9" fill="#FEFFFF" transform="matrix(1.00, 0.00, -0.00, -1.00, 345.4, 258.0)">t</text><text xml:space="preserve" font-family="Helvetica-Light" font-size="19.9" fill="#FEFFFF" transform="matrix(1.00, 0.00, -0.00, -1.00, 351.0, 258.0)">h</text><text xml:space="preserve" font-family="Helvetica-Light" font-size="19.9" fill="#FEFFFF" transform="matrix(1.00, 0.00, -0.00, -1.00, 362.0, 258.0)">a</text><text xml:space="preserve" font-family="Helvetica-Light" font-size="19.9" fill="#FEFFFF" transform="matrix(1.00, 0.00, -0.00, -1.00, 373.1, 258.0)">t</text><text xml:space="preserve" font-family="Helvetica-Light" font-size="19.9" fill="#FEFFFF" transform="matrix(1.00, 0.00, -0.00, -1.00, 378.6, 258.0)"> </text><text xml:space="preserve" font-family="Helvetica-Light" font-size="19.9" fill="#FEFFFF" transform="matrix(1.00, 0.00, -0.00, -1.00, 384.1, 258.0)">f</text><text xml:space="preserve" font-family="Helvetica-Light" font-size="19.9" fill="#FEFFFF" transform="matrix(1.00, 0.00, -0.00, -1.00, 389.7, 258.0)">o</text><text xml:space="preserve" font-family="Helvetica-Light" font-size="19.9" fill="#FEFFFF" transform="matrix(1.00, 0.00, -0.00, -1.00, 400.7, 258.0)">r</text><text xml:space="preserve" font-family="Helvetica-Light" font-size="19.9" fill="#FEFFFF" transform="matrix(1.00, 0.00, -0.00, -1.00, 407.7, 258.0)">m</text><text xml:space="preserve" font-family="Helvetica-Light" font-size="19.9" fill="#FEFFFF" transform="matrix(1.00, 0.00, -0.00, -1.00, 424.2, 258.0)">a</text><text xml:space="preserve" font-family="Helvetica-Light" font-size="19.9" fill="#FEFFFF" transform="matrix(1.00, 0.00, -0.00, -1.00, 435.3, 258.0)">t</text><text xml:space="preserve" font-family="Helvetica-Light" font-size="19.9" fill="#FEFFFF" transform="matrix(1.00, 0.00, -0.00, -1.00, 440.8, 258.0)"> </text><text xml:space="preserve" font-family="Helvetica-Light" font-size="19.9" fill="#FEFFFF" transform="matrix(1.00, 0.00, -0.00, -1.00, 446.4, 258.0)">o</text><text xml:space="preserve" font-family="Helvetica-Light" font-size="19.9" fill="#FEFFFF" transform="matrix(1.00, 0.00, -0.00, -1.00, 457.4, 258.0)">f</text><text xml:space="preserve" font-family="Helvetica-Light" font-size="19.9" fill="#FEFFFF" transform="matrix(1.00, 0.00, -0.00, -1.00, 462.9, 258.0)"> </text><text xml:space="preserve" font-family="Helvetica-Light" font-size="19.9" fill="#FEFFFF" transform="matrix(1.00, 0.00, -0.00, -1.00, 130.0, 234.0)">r</text><text xml:space="preserve" font-family="Helvetica-Light" font-size="19.9" fill="#FEFFFF" transform="matrix(1.00, 0.00, -0.00, -1.00, 136.3, 234.0)">e</text><text xml:space="preserve" font-family="Helvetica-Light" font-size="19.9" fill="#FEFFFF" transform="matrix(1.00, 0.00, -0.00, -1.00, 147.3, 234.0)">f</text><text xml:space="preserve" font-family="Helvetica-Light" font-size="19.9" fill="#FEFFFF" transform="matrix(1.00, 0.00, -0.00, -1.00, 152.8, 234.0)">e</text><text xml:space="preserve" font-family="Helvetica-Light" font-size="19.9" fill="#FEFFFF" transform="matrix(1.00, 0.00, -0.00, -1.00, 163.9, 234.0)">r</text><text xml:space="preserve" font-family="Helvetica-Light" font-size="19.9" fill="#FEFFFF" transform="matrix(1.00, 0.00, -0.00, -1.00, 170.2, 234.0)">e</text><text xml:space="preserve" font-family="Helvetica-Light" font-size="19.9" fill="#FEFFFF" transform="matrix(1.00, 0.00, -0.00, -1.00, 181.2, 234.0)">n</text><text xml:space="preserve" font-family="Helvetica-Light" font-size="19.9" fill="#FEFFFF" transform="matrix(1.00, 0.00, -0.00, -1.00, 192.3, 234.0)">c</text><text xml:space="preserve" font-family="Helvetica-Light" font-size="19.9" fill="#FEFFFF" transform="matrix(1.00, 0.00, -0.00, -1.00, 203.3, 234.0)">e</text><text xml:space="preserve" font-family="Helvetica-Light" font-size="19.9" fill="#FEFFFF" transform="matrix(1.00, 0.00, -0.00, -1.00, 214.4, 234.0)">d</text><text xml:space="preserve" font-family="Helvetica-Light" font-size="19.9" fill="#FEFFFF" transform="matrix(1.00, 0.00, -0.00, -1.00, 226.5, 234.0)"> </text><text xml:space="preserve" font-family="Helvetica-Light" font-size="19.9" fill="#FEFFFF" transform="matrix(1.00, 0.00, -0.00, -1.00, 232.0, 234.0)">t</text><text xml:space="preserve" font-family="Helvetica-Light" font-size="19.9" fill="#FEFFFF" transform="matrix(1.00, 0.00, -0.00, -1.00, 237.6, 234.0)">a</text><text xml:space="preserve" font-family="Helvetica-Light" font-size="19.9" fill="#FEFFFF" transform="matrix(1.00, 0.00, -0.00, -1.00, 248.6, 234.0)">b</text><text xml:space="preserve" font-family="Helvetica-Light" font-size="19.9" fill="#FEFFFF" transform="matrix(1.00, 0.00, -0.00, -1.00, 260.8, 234.0)">l</text><text xml:space="preserve" font-family="Helvetica-Light" font-size="19.9" fill="#FEFFFF" transform="matrix(1.00, 0.00, -0.00, -1.00, 265.2, 234.0)">e</text><text xml:space="preserve" font-family="Helvetica-Light" font-size="19.9" fill="#FEFFFF" transform="matrix(1.00, 0.00, -0.00, -1.00, 276.2, 234.0)">s</text><text xml:space="preserve" font-family="Helvetica-LightOblique" font-style="italic" font-size="19.9" fill="#FEFFFF" transform="matrix(1.00, 0.00, -0.00, -1.00, 286.2, 234.0)"> </text><text xml:space="preserve" font-family="Helvetica-BoldOblique" font-style="italic" font-weight="bold" font-size="14.9" fill="#FEFFFF" transform="matrix(1.00, 0.00, -0.00, -1.00, 109.0, 185.0)">•</text><text xml:space="preserve" font-family="Helvetica-LightOblique" font-style="italic" font-size="19.9" fill="#FEFFFF" transform="matrix(1.00, 0.00, -0.00, -1.00, 130.0, 183.0)">t</text><text xml:space="preserve" font-family="Helvetica-LightOblique" font-style="italic" font-size="19.9" fill="#FEFFFF" transform="matrix(1.00, 0.00, -0.00, -1.00, 135.5, 183.0)">r</text><text xml:space="preserve" font-family="Helvetica-LightOblique" font-style="italic" font-size="19.9" fill="#FEFFFF" transform="matrix(1.00, 0.00, -0.00, -1.00, 142.1, 183.0)">a</text><text xml:space="preserve" font-family="Helvetica-LightOblique" font-style="italic" font-size="19.9" fill="#FEFFFF" transform="matrix(1.00, 0.00, -0.00, -1.00, 153.2, 183.0)">n</text><text xml:space="preserve" font-family="Helvetica-LightOblique" font-style="italic" font-size="19.9" fill="#FEFFFF" transform="matrix(1.00, 0.00, -0.00, -1.00, 164.3, 183.0)">s</text><text xml:space="preserve" font-family="Helvetica-LightOblique" font-style="italic" font-size="19.9" fill="#FEFFFF" transform="matrix(1.00, 0.00, -0.00, -1.00, 174.2, 183.0)">f</text><text xml:space="preserve" font-family="Helvetica-LightOblique" font-style="italic" font-size="19.9" fill="#FEFFFF" transform="matrix(1.00, 0.00, -0.00, -1.00, 179.7, 183.0)">o</text><text xml:space="preserve" font-family="Helvetica-LightOblique" font-style="italic" font-size="19.9" fill="#FEFFFF" transform="matrix(1.00, 0.00, -0.00, -1.00, 190.8, 183.0)">r</text><text xml:space="preserve" font-family="Helvetica-LightOblique" font-style="italic" font-size="19.9" fill="#FEFFFF" transform="matrix(1.00, 0.00, -0.00, -1.00, 197.8, 183.0)">m</text><text xml:space="preserve" font-family="Helvetica-LightOblique" font-style="italic" font-size="19.9" fill="#FEFFFF" transform="matrix(1.00, 0.00, -0.00, -1.00, 214.3, 183.0)">a</text><text xml:space="preserve" font-family="Helvetica-LightOblique" font-style="italic" font-size="19.9" fill="#FEFFFF" transform="matrix(1.00, 0.00, -0.00, -1.00, 225.4, 183.0)">t</text><text xml:space="preserve" font-family="Helvetica-LightOblique" font-style="italic" font-size="19.9" fill="#FEFFFF" transform="matrix(1.00, 0.00, -0.00, -1.00, 230.9, 183.0)">i</text><text xml:space="preserve" font-family="Helvetica-LightOblique" font-style="italic" font-size="19.9" fill="#FEFFFF" transform="matrix(1.00, 0.00, -0.00, -1.00, 235.3, 183.0)">o</text><text xml:space="preserve" font-family="Helvetica-LightOblique" font-style="italic" font-size="19.9" fill="#FEFFFF" transform="matrix(1.00, 0.00, -0.00, -1.00, 246.4, 183.0)">n</text><text xml:space="preserve" font-family="Helvetica-LightOblique" font-style="italic" font-size="19.9" fill="#FEFFFF" transform="matrix(1.00, 0.00, -0.00, -1.00, 257.4, 183.0)">s</text><text xml:space="preserve" font-family="Helvetica-LightOblique" font-style="italic" font-size="19.9" fill="#FEFFFF" transform="matrix(1.00, 0.00, -0.00, -1.00, 267.4, 183.0)"> </text><text xml:space="preserve" font-family="Helvetica-BoldOblique" font-style="italic" font-weight="bold" font-size="14.9" fill="#FEFFFF" transform="matrix(1.00, 0.00, -0.00, -1.00, 109.0, 134.1)">•</text><text xml:space="preserve" font-family="Helvetica-LightOblique" font-style="italic" font-size="19.9" fill="#FEFFFF" transform="matrix(1.00, 0.00, -0.00, -1.00, 130.0, 132.0)">@</text><text xml:space="preserve" font-family="Helvetica-LightOblique" font-style="italic" font-size="19.9" fill="#FEFFFF" transform="matrix(1.00, 0.00, -0.00, -1.00, 145.9, 132.0)">i</text><text xml:space="preserve" font-family="Helvetica-LightOblique" font-style="italic" font-size="19.9" fill="#FEFFFF" transform="matrix(1.00, 0.00, -0.00, -1.00, 150.3, 132.0)">d</text><text xml:space="preserve" font-family="Helvetica-LightOblique" font-style="italic" font-size="19.9" fill="#FEFFFF" transform="matrix(1.00, 0.00, -0.00, -1.00, 162.5, 132.0)"> </text><text xml:space="preserve" font-family="Helvetica-BoldOblique" font-style="italic" font-weight="bold" font-size="14.9" fill="#FEFFFF" transform="matrix(1.00, 0.00, -0.00, -1.00, 109.0, 83.1)">•</text><text xml:space="preserve" font-family="Helvetica-LightOblique" font-style="italic" font-size="19.9" fill="#FEFFFF" transform="matrix(1.00, 0.00, -0.00, -1.00, 130.0, 81.0)">@</text><text xml:space="preserve" font-family="Helvetica-LightOblique" font-style="italic" font-size="19.9" fill="#FEFFFF" transform="matrix(1.00, 0.00, -0.00, -1.00, 145.9, 81.0)">t</text><text xml:space="preserve" font-family="Helvetica-LightOblique" font-style="italic" font-size="19.9" fill="#FEFFFF" transform="matrix(1.00, 0.00, -0.00, -1.00, 151.4, 81.0)">y</text><text xml:space="preserve" font-family="Helvetica-LightOblique" font-style="italic" font-size="19.9" fill="#FEFFFF" transform="matrix(1.00, 0.00, -0.00, -1.00, 161.4, 81.0)">p</text><text xml:space="preserve" font-family="Helvetica-LightOblique" font-style="italic" font-size="19.9" fill="#FEFFFF" transform="matrix(1.00, 0.00, -0.00, -1.00, 173.5, 81.0)">e</text><text xml:space="preserve" font-family="Helvetica-LightOblique" font-style="italic" font-size="19.9" fill="#FEFFFF" transform="matrix(1.00, 0.00, -0.00, -1.00, 184.6, 81.0)"> </text><text xml:space="preserve" font-family="Helvetica-Light" font-size="19.9" fill="#FEFFFF" transform="matrix(1.00, 0.00, -0.00, -1.00, 190.1, 81.0)">–</text><text xml:space="preserve" font-family="Helvetica-Light" font-size="19.9" fill="#FEFFFF" transform="matrix(1.00, 0.00, -0.00, -1.00, 200.0, 81.0)"> </text><text xml:space="preserve" font-family="Helvetica-Light" font-size="19.9" fill="#FEFFFF" transform="matrix(1.00, 0.00, -0.00, -1.00, 205.6, 81.0)">I</text><text xml:space="preserve" font-family="Helvetica-Light" font-size="19.9" fill="#FEFFFF" transform="matrix(1.00, 0.00, -0.00, -1.00, 211.1, 81.0)">f</text><text xml:space="preserve" font-family="Helvetica-Light" font-size="19.9" fill="#FEFFFF" transform="matrix(1.00, 0.00, -0.00, -1.00, 216.6, 81.0)"> </text><text xml:space="preserve" font-family="Helvetica-Light" font-size="19.9" fill="#FEFFFF" transform="matrix(1.00, 0.00, -0.00, -1.00, 222.1, 81.0)">p</text><text xml:space="preserve" font-family="Helvetica-Light" font-size="19.9" fill="#FEFFFF" transform="matrix(1.00, 0.00, -0.00, -1.00, 234.3, 81.0)">r</text><text xml:space="preserve" font-family="Helvetica-Light" font-size="19.9" fill="#FEFFFF" transform="matrix(1.00, 0.00, -0.00, -1.00, 240.6, 81.0)">e</text><text xml:space="preserve" font-family="Helvetica-Light" font-size="19.9" fill="#FEFFFF" transform="matrix(1.00, 0.00, -0.00, -1.00, 251.6, 81.0)">s</text><text xml:space="preserve" font-family="Helvetica-Light" font-size="19.9" fill="#FEFFFF" transform="matrix(1.00, 0.00, -0.00, -1.00, 261.5, 81.0)">e</text><text xml:space="preserve" font-family="Helvetica-Light" font-size="19.9" fill="#FEFFFF" transform="matrix(1.00, 0.00, -0.00, -1.00, 272.6, 81.0)">n</text><text xml:space="preserve" font-family="Helvetica-Light" font-size="19.9" fill="#FEFFFF" transform="matrix(1.00, 0.00, -0.00, -1.00, 283.7, 81.0)">t</text><text xml:space="preserve" font-family="Helvetica-Light" font-size="19.9" fill="#FEFFFF" transform="matrix(1.00, 0.00, -0.00, -1.00, 289.2, 81.0)"> </text><text xml:space="preserve" font-family="Helvetica-Bold" font-weight="bold" font-size="19.9" fill="#FEFFFF" transform="matrix(1.00, 0.00, -0.00, -1.00, 294.7, 81.0)">M</text><text xml:space="preserve" font-family="Helvetica-Bold" font-weight="bold" font-size="19.9" fill="#FEFFFF" transform="matrix(1.00, 0.00, -0.00, -1.00, 311.3, 81.0)">U</text><text xml:space="preserve" font-family="Helvetica-Bold" font-weight="bold" font-size="19.9" fill="#FEFFFF" transform="matrix(1.00, 0.00, -0.00, -1.00, 325.6, 81.0)">S</text><text xml:space="preserve" font-family="Helvetica-Bold" font-weight="bold" font-size="19.9" fill="#FEFFFF" transform="matrix(1.00, 0.00, -0.00, -1.00, 338.9, 81.0)">T</text><text xml:space="preserve" font-family="Helvetica-Light" font-size="19.9" fill="#FEFFFF" transform="matrix(1.00, 0.00, -0.00, -1.00, 351.0, 81.0)"> </text><text xml:space="preserve" font-family="Helvetica-Light" font-size="19.9" fill="#FEFFFF" transform="matrix(1.00, 0.00, -0.00, -1.00, 356.6, 81.0)">b</text><text xml:space="preserve" font-family="Helvetica-Light" font-size="19.9" fill="#FEFFFF" transform="matrix(1.00, 0.00, -0.00, -1.00, 368.7, 81.0)">e</text><text xml:space="preserve" font-family="Helvetica-Light" font-size="19.9" fill="#FEFFFF" transform="matrix(1.00, 0.00, -0.00, -1.00, 379.8, 81.0)"> </text><text xml:space="preserve" font-family="Helvetica-Light" font-size="19.9" fill="#FEFFFF" transform="matrix(1.00, 0.00, -0.00, -1.00, 385.3, 81.0)">“</text><text xml:space="preserve" font-family="Helvetica-Light" font-size="19.9" fill="#FEFFFF" transform="matrix(1.00, 0.00, -0.00, -1.00, 393.0, 81.0)">T</text><text xml:space="preserve" font-family="Helvetica-Light" font-size="19.9" fill="#FEFFFF" transform="matrix(1.00, 0.00, -0.00, -1.00, 401.9, 81.0)">a</text><text xml:space="preserve" font-family="Helvetica-Light" font-size="19.9" fill="#FEFFFF" transform="matrix(1.00, 0.00, -0.00, -1.00, 412.9, 81.0)">b</text><text xml:space="preserve" font-family="Helvetica-Light" font-size="19.9" fill="#FEFFFF" transform="matrix(1.00, 0.00, -0.00, -1.00, 425.1, 81.0)">l</text><text xml:space="preserve" font-family="Helvetica-Light" font-size="19.9" fill="#FEFFFF" transform="matrix(1.00, 0.00, -0.00, -1.00, 429.5, 81.0)">e</text><text xml:space="preserve" font-family="Helvetica-Light" font-size="19.9" fill="#FEFFFF" transform="matrix(1.00, 0.00, -0.00, -1.00, 440.5, 81.0)">”</text><text xml:space="preserve" font-family="Helvetica-Light" font-size="18.0" fill="#FEFFFF" transform="matrix(1.00, 0.00, -0.00, -1.00, 501.0, 18.0)">2</text><text xml:space="preserve" font-family="Helvetica-Light" font-size="18.0" fill="#FEFFFF" transform="matrix(1.00, 0.00, -0.00, -1.00, 511.0, 18.0)">4</text></g></svg>