<?xml version="1.0" encoding="UTF-8" standalone="no"?><svg xmlns="http://www.w3.org/2000/svg" xmlns:xlink="http://www.w3.org/1999/xlink" clip-rule="evenodd" stroke-miterlimit="4.00" viewBox="0 0 1024 768"><desc>SVG generated by Keynote</desc><defs></defs><g transform="matrix(1.00, 0.00, -0.00, -1.00, 0.0, 768.0)"><g><clipPath id="clip-1125"><path d="M 0.0 768.0 L 1024.0 768.0 L 1024.0 0.0 L 0.0 0.0 Z M 0.0 768.0 "></path></clipPath><g clip-path="url(#clip-1125)"><image xlink:href="../../D64B4BA4-DFE2-4353-AFBC-0E9752749D8B/assets/E7ABA782A15EA3475B4CFCC80A2FEB63.jpeg" width="1024.00" height="768.00" transform="matrix(1.00, 0.00, -0.00, -1.00, 0.0, 768.0)"></image></g></g><text xml:space="preserve" font-family="Helvetica-Light" font-size="80.0" fill="#FEFFFF" transform="matrix(1.00, 0.00, -0.00, -1.00, 188.0, 622.0)">C</text><text xml:space="preserve" font-family="Helvetica-Light" font-size="80.0" fill="#FEFFFF" transform="matrix(1.00, 0.00, -0.00, -1.00, 245.8, 622.0)">S</text><text xml:space="preserve" font-family="Helvetica-Light" font-size="80.0" fill="#FEFFFF" transform="matrix(1.00, 0.00, -0.00, -1.00, 294.6, 622.0)">V</text><text xml:space="preserve" font-family="Helvetica-Light" font-size="80.0" fill="#FEFFFF" transform="matrix(1.00, 0.00, -0.00, -1.00, 343.5, 622.0)"> </text><text xml:space="preserve" font-family="Helvetica-Light" font-size="80.0" fill="#FEFFFF" transform="matrix(1.00, 0.00, -0.00, -1.00, 365.8, 622.0)">d</text><text xml:space="preserve" font-family="Helvetica-Light" font-size="80.0" fill="#FEFFFF" transform="matrix(1.00, 0.00, -0.00, -1.00, 414.6, 622.0)">a</text><text xml:space="preserve" font-family="Helvetica-Light" font-size="80.0" fill="#FEFFFF" transform="matrix(1.00, 0.00, -0.00, -1.00, 459.1, 622.0)">t</text><text xml:space="preserve" font-family="Helvetica-Light" font-size="80.0" fill="#FEFFFF" transform="matrix(1.00, 0.00, -0.00, -1.00, 481.4, 622.0)">a</text><text xml:space="preserve" font-family="Helvetica-Light" font-size="80.0" fill="#FEFFFF" transform="matrix(1.00, 0.00, -0.00, -1.00, 525.8, 622.0)"> </text><text xml:space="preserve" font-family="Helvetica-Light" font-size="80.0" fill="#FEFFFF" transform="matrix(1.00, 0.00, -0.00, -1.00, 548.1, 622.0)">i</text><text xml:space="preserve" font-family="Helvetica-Light" font-size="80.0" fill="#FEFFFF" transform="matrix(1.00, 0.00, -0.00, -1.00, 565.8, 622.0)">s</text><text xml:space="preserve" font-family="Helvetica-Light" font-size="80.0" fill="#FEFFFF" transform="matrix(1.00, 0.00, -0.00, -1.00, 605.8, 622.0)"> </text><text xml:space="preserve" font-family="Helvetica-Light" font-size="80.0" fill="#FEFFFF" transform="matrix(1.00, 0.00, -0.00, -1.00, 628.1, 622.0)">d</text><text xml:space="preserve" font-family="Helvetica-Light" font-size="80.0" fill="#FEFFFF" transform="matrix(1.00, 0.00, -0.00, -1.00, 677.0, 622.0)">u</text><text xml:space="preserve" font-family="Helvetica-Light" font-size="80.0" fill="#FEFFFF" transform="matrix(1.00, 0.00, -0.00, -1.00, 721.4, 622.0)">m</text><text xml:space="preserve" font-family="Helvetica-Light" font-size="80.0" fill="#FEFFFF" transform="matrix(1.00, 0.00, -0.00, -1.00, 788.1, 622.0)">b</text><text xml:space="preserve" font-family="Helvetica-Light" font-size="27.6" fill="#FEFFFF" transform="matrix(1.00, 0.00, -0.00, -1.00, 79.0, 518.9)">•</text><text xml:space="preserve" font-family="Helvetica-Light" font-size="36.9" fill="#FEFFFF" transform="matrix(1.00, 0.00, -0.00, -1.00, 114.0, 515.0)">I</text><text xml:space="preserve" font-family="Helvetica-Light" font-size="36.9" fill="#FEFFFF" transform="matrix(1.00, 0.00, -0.00, -1.00, 124.2, 515.0)">t</text><text xml:space="preserve" font-family="Helvetica-Light" font-size="36.9" fill="#FEFFFF" transform="matrix(1.00, 0.00, -0.00, -1.00, 134.5, 515.0)">’</text><text xml:space="preserve" font-family="Helvetica-Light" font-size="36.9" fill="#FEFFFF" transform="matrix(1.00, 0.00, -0.00, -1.00, 139.9, 515.0)">s</text><text xml:space="preserve" font-family="Helvetica-Light" font-size="36.9" fill="#FEFFFF" transform="matrix(1.00, 0.00, -0.00, -1.00, 158.4, 515.0)"> </text><text xml:space="preserve" font-family="Helvetica-Light" font-size="36.9" fill="#FEFFFF" transform="matrix(1.00, 0.00, -0.00, -1.00, 168.6, 515.0)">a</text><text xml:space="preserve" font-family="Helvetica-Light" font-size="36.9" fill="#FEFFFF" transform="matrix(1.00, 0.00, -0.00, -1.00, 189.1, 515.0)"> </text><text xml:space="preserve" font-family="Helvetica-Light" font-size="36.9" fill="#FEFFFF" transform="matrix(1.00, 0.00, -0.00, -1.00, 199.4, 515.0)">s</text><text xml:space="preserve" font-family="Helvetica-Light" font-size="36.9" fill="#FEFFFF" transform="matrix(1.00, 0.00, -0.00, -1.00, 217.8, 515.0)">i</text><text xml:space="preserve" font-family="Helvetica-Light" font-size="36.9" fill="#FEFFFF" transform="matrix(1.00, 0.00, -0.00, -1.00, 226.0, 515.0)">m</text><text xml:space="preserve" font-family="Helvetica-Light" font-size="36.9" fill="#FEFFFF" transform="matrix(1.00, 0.00, -0.00, -1.00, 256.7, 515.0)">p</text><text xml:space="preserve" font-family="Helvetica-Light" font-size="36.9" fill="#FEFFFF" transform="matrix(1.00, 0.00, -0.00, -1.00, 279.2, 515.0)">l</text><text xml:space="preserve" font-family="Helvetica-Light" font-size="36.9" fill="#FEFFFF" transform="matrix(1.00, 0.00, -0.00, -1.00, 287.4, 515.0)">e</text><text xml:space="preserve" font-family="Helvetica-Light" font-size="36.9" fill="#FEFFFF" transform="matrix(1.00, 0.00, -0.00, -1.00, 307.9, 515.0)"> </text><text xml:space="preserve" font-family="Helvetica-Light" font-size="36.9" fill="#FEFFFF" transform="matrix(1.00, 0.00, -0.00, -1.00, 318.1, 515.0)">t</text><text xml:space="preserve" font-family="Helvetica-Light" font-size="36.9" fill="#FEFFFF" transform="matrix(1.00, 0.00, -0.00, -1.00, 328.4, 515.0)">e</text><text xml:space="preserve" font-family="Helvetica-Light" font-size="36.9" fill="#FEFFFF" transform="matrix(1.00, 0.00, -0.00, -1.00, 348.9, 515.0)">x</text><text xml:space="preserve" font-family="Helvetica-Light" font-size="36.9" fill="#FEFFFF" transform="matrix(1.00, 0.00, -0.00, -1.00, 367.3, 515.0)">t</text><text xml:space="preserve" font-family="Helvetica-Light" font-size="36.9" fill="#FEFFFF" transform="matrix(1.00, 0.00, -0.00, -1.00, 377.5, 515.0)"> </text><text xml:space="preserve" font-family="Helvetica-Light" font-size="36.9" fill="#FEFFFF" transform="matrix(1.00, 0.00, -0.00, -1.00, 387.8, 515.0)">f</text><text xml:space="preserve" font-family="Helvetica-Light" font-size="36.9" fill="#FEFFFF" transform="matrix(1.00, 0.00, -0.00, -1.00, 398.0, 515.0)">o</text><text xml:space="preserve" font-family="Helvetica-Light" font-size="36.9" fill="#FEFFFF" transform="matrix(1.00, 0.00, -0.00, -1.00, 418.5, 515.0)">r</text><text xml:space="preserve" font-family="Helvetica-Light" font-size="36.9" fill="#FEFFFF" transform="matrix(1.00, 0.00, -0.00, -1.00, 431.5, 515.0)">m</text><text xml:space="preserve" font-family="Helvetica-Light" font-size="36.9" fill="#FEFFFF" transform="matrix(1.00, 0.00, -0.00, -1.00, 462.2, 515.0)">a</text><text xml:space="preserve" font-family="Helvetica-Light" font-size="36.9" fill="#FEFFFF" transform="matrix(1.00, 0.00, -0.00, -1.00, 482.7, 515.0)">t</text><text xml:space="preserve" font-family="Helvetica-Light" font-size="36.9" fill="#FEFFFF" transform="matrix(1.00, 0.00, -0.00, -1.00, 492.9, 515.0)">,</text><text xml:space="preserve" font-family="Helvetica-Light" font-size="36.9" fill="#FEFFFF" transform="matrix(1.00, 0.00, -0.00, -1.00, 503.2, 515.0)"> </text><text xml:space="preserve" font-family="Helvetica-Light" font-size="36.9" fill="#FEFFFF" transform="matrix(1.00, 0.00, -0.00, -1.00, 513.4, 515.0)">d</text><text xml:space="preserve" font-family="Helvetica-Light" font-size="36.9" fill="#FEFFFF" transform="matrix(1.00, 0.00, -0.00, -1.00, 535.9, 515.0)">a</text><text xml:space="preserve" font-family="Helvetica-Light" font-size="36.9" fill="#FEFFFF" transform="matrix(1.00, 0.00, -0.00, -1.00, 556.4, 515.0)">t</text><text xml:space="preserve" font-family="Helvetica-Light" font-size="36.9" fill="#FEFFFF" transform="matrix(1.00, 0.00, -0.00, -1.00, 566.7, 515.0)">a</text><text xml:space="preserve" font-family="Helvetica-Light" font-size="36.9" fill="#FEFFFF" transform="matrix(1.00, 0.00, -0.00, -1.00, 587.2, 515.0)"> </text><text xml:space="preserve" font-family="Helvetica-Light" font-size="36.9" fill="#FEFFFF" transform="matrix(1.00, 0.00, -0.00, -1.00, 597.4, 515.0)">h</text><text xml:space="preserve" font-family="Helvetica-Light" font-size="36.9" fill="#FEFFFF" transform="matrix(1.00, 0.00, -0.00, -1.00, 617.9, 515.0)">a</text><text xml:space="preserve" font-family="Helvetica-Light" font-size="36.9" fill="#FEFFFF" transform="matrix(1.00, 0.00, -0.00, -1.00, 638.4, 515.0)">s</text><text xml:space="preserve" font-family="Helvetica-Light" font-size="36.9" fill="#FEFFFF" transform="matrix(1.00, 0.00, -0.00, -1.00, 656.8, 515.0)"> </text><text xml:space="preserve" font-family="Helvetica-Light" font-size="36.9" fill="#FEFFFF" transform="matrix(1.00, 0.00, -0.00, -1.00, 667.1, 515.0)">n</text><text xml:space="preserve" font-family="Helvetica-Light" font-size="36.9" fill="#FEFFFF" transform="matrix(1.00, 0.00, -0.00, -1.00, 687.6, 515.0)">o</text><text xml:space="preserve" font-family="Helvetica-Light" font-size="36.9" fill="#FEFFFF" transform="matrix(1.00, 0.00, -0.00, -1.00, 708.1, 515.0)"> </text><text xml:space="preserve" font-family="Helvetica-Light" font-size="36.9" fill="#FEFFFF" transform="matrix(1.00, 0.00, -0.00, -1.00, 718.3, 515.0)">i</text><text xml:space="preserve" font-family="Helvetica-Light" font-size="36.9" fill="#FEFFFF" transform="matrix(1.00, 0.00, -0.00, -1.00, 726.5, 515.0)">n</text><text xml:space="preserve" font-family="Helvetica-Light" font-size="36.9" fill="#FEFFFF" transform="matrix(1.00, 0.00, -0.00, -1.00, 747.0, 515.0)">h</text><text xml:space="preserve" font-family="Helvetica-Light" font-size="36.9" fill="#FEFFFF" transform="matrix(1.00, 0.00, -0.00, -1.00, 767.5, 515.0)">e</text><text xml:space="preserve" font-family="Helvetica-Light" font-size="36.9" fill="#FEFFFF" transform="matrix(1.00, 0.00, -0.00, -1.00, 788.0, 515.0)">r</text><text xml:space="preserve" font-family="Helvetica-Light" font-size="36.9" fill="#FEFFFF" transform="matrix(1.00, 0.00, -0.00, -1.00, 799.6, 515.0)">e</text><text xml:space="preserve" font-family="Helvetica-Light" font-size="36.9" fill="#FEFFFF" transform="matrix(1.00, 0.00, -0.00, -1.00, 820.1, 515.0)">n</text><text xml:space="preserve" font-family="Helvetica-Light" font-size="36.9" fill="#FEFFFF" transform="matrix(1.00, 0.00, -0.00, -1.00, 840.6, 515.0)">t</text><text xml:space="preserve" font-family="Helvetica-Light" font-size="36.9" fill="#FEFFFF" transform="matrix(1.00, 0.00, -0.00, -1.00, 850.8, 515.0)"> </text><text xml:space="preserve" font-family="Helvetica-Light" font-size="36.9" fill="#FEFFFF" transform="matrix(1.00, 0.00, -0.00, -1.00, 114.0, 472.0)">m</text><text xml:space="preserve" font-family="Helvetica-Light" font-size="36.9" fill="#FEFFFF" transform="matrix(1.00, 0.00, -0.00, -1.00, 144.7, 472.0)">e</text><text xml:space="preserve" font-family="Helvetica-Light" font-size="36.9" fill="#FEFFFF" transform="matrix(1.00, 0.00, -0.00, -1.00, 165.2, 472.0)">a</text><text xml:space="preserve" font-family="Helvetica-Light" font-size="36.9" fill="#FEFFFF" transform="matrix(1.00, 0.00, -0.00, -1.00, 185.7, 472.0)">n</text><text xml:space="preserve" font-family="Helvetica-Light" font-size="36.9" fill="#FEFFFF" transform="matrix(1.00, 0.00, -0.00, -1.00, 206.2, 472.0)">i</text><text xml:space="preserve" font-family="Helvetica-Light" font-size="36.9" fill="#FEFFFF" transform="matrix(1.00, 0.00, -0.00, -1.00, 214.4, 472.0)">n</text><text xml:space="preserve" font-family="Helvetica-Light" font-size="36.9" fill="#FEFFFF" transform="matrix(1.00, 0.00, -0.00, -1.00, 234.9, 472.0)">g</text><text xml:space="preserve" font-family="Helvetica-Light" font-size="36.9" fill="#FEFFFF" transform="matrix(1.00, 0.00, -0.00, -1.00, 257.4, 472.0)">.</text><text xml:space="preserve" font-family="Helvetica-Light" font-size="36.9" fill="#FEFFFF" transform="matrix(1.00, 0.00, -0.00, -1.00, 267.6, 472.0)"> </text><text xml:space="preserve" font-family="Helvetica-Light" font-size="27.6" fill="#FEFFFF" transform="matrix(1.00, 0.00, -0.00, -1.00, 115.0, 392.1)">•</text><text xml:space="preserve" font-family="Helvetica-Light" font-size="36.9" fill="#FEFFFF" transform="matrix(1.00, 0.00, -0.00, -1.00, 150.0, 389.0)">C</text><text xml:space="preserve" font-family="Helvetica-Light" font-size="36.9" fill="#FEFFFF" transform="matrix(1.00, 0.00, -0.00, -1.00, 176.6, 389.0)">e</text><text xml:space="preserve" font-family="Helvetica-Light" font-size="36.9" fill="#FEFFFF" transform="matrix(1.00, 0.00, -0.00, -1.00, 197.1, 389.0)">l</text><text xml:space="preserve" font-family="Helvetica-Light" font-size="36.9" fill="#FEFFFF" transform="matrix(1.00, 0.00, -0.00, -1.00, 205.3, 389.0)">l</text><text xml:space="preserve" font-family="Helvetica-Light" font-size="36.9" fill="#FEFFFF" transform="matrix(1.00, 0.00, -0.00, -1.00, 213.5, 389.0)">s</text><text xml:space="preserve" font-family="Helvetica-Light" font-size="36.9" fill="#FEFFFF" transform="matrix(1.00, 0.00, -0.00, -1.00, 231.9, 389.0)"> </text><text xml:space="preserve" font-family="Helvetica-Light" font-size="36.9" fill="#FEFFFF" transform="matrix(1.00, 0.00, -0.00, -1.00, 242.1, 389.0)">m</text><text xml:space="preserve" font-family="Helvetica-Light" font-size="36.9" fill="#FEFFFF" transform="matrix(1.00, 0.00, -0.00, -1.00, 272.9, 389.0)">a</text><text xml:space="preserve" font-family="Helvetica-Light" font-size="36.9" fill="#FEFFFF" transform="matrix(1.00, 0.00, -0.00, -1.00, 293.3, 389.0)">y</text><text xml:space="preserve" font-family="Helvetica-Light" font-size="36.9" fill="#FEFFFF" transform="matrix(1.00, 0.00, -0.00, -1.00, 311.8, 389.0)"> </text><text xml:space="preserve" font-family="Helvetica-Light" font-size="36.9" fill="#FEFFFF" transform="matrix(1.00, 0.00, -0.00, -1.00, 322.0, 389.0)">b</text><text xml:space="preserve" font-family="Helvetica-Light" font-size="36.9" fill="#FEFFFF" transform="matrix(1.00, 0.00, -0.00, -1.00, 344.5, 389.0)">e</text><text xml:space="preserve" font-family="Helvetica-Light" font-size="36.9" fill="#FEFFFF" transform="matrix(1.00, 0.00, -0.00, -1.00, 365.0, 389.0)"> </text><text xml:space="preserve" font-family="Helvetica-Light" font-size="36.9" fill="#FEFFFF" transform="matrix(1.00, 0.00, -0.00, -1.00, 375.3, 389.0)">d</text><text xml:space="preserve" font-family="Helvetica-Light" font-size="36.9" fill="#FEFFFF" transform="matrix(1.00, 0.00, -0.00, -1.00, 397.8, 389.0)">a</text><text xml:space="preserve" font-family="Helvetica-Light" font-size="36.9" fill="#FEFFFF" transform="matrix(1.00, 0.00, -0.00, -1.00, 418.3, 389.0)">t</text><text xml:space="preserve" font-family="Helvetica-Light" font-size="36.9" fill="#FEFFFF" transform="matrix(1.00, 0.00, -0.00, -1.00, 428.6, 389.0)">a</text><text xml:space="preserve" font-family="Helvetica-Light" font-size="36.9" fill="#FEFFFF" transform="matrix(1.00, 0.00, -0.00, -1.00, 449.0, 389.0)">-</text><text xml:space="preserve" font-family="Helvetica-Light" font-size="36.9" fill="#FEFFFF" transform="matrix(1.00, 0.00, -0.00, -1.00, 461.3, 389.0)">t</text><text xml:space="preserve" font-family="Helvetica-Light" font-size="36.9" fill="#FEFFFF" transform="matrix(1.00, 0.00, -0.00, -1.00, 471.6, 389.0)">y</text><text xml:space="preserve" font-family="Helvetica-Light" font-size="36.9" fill="#FEFFFF" transform="matrix(1.00, 0.00, -0.00, -1.00, 490.0, 389.0)">p</text><text xml:space="preserve" font-family="Helvetica-Light" font-size="36.9" fill="#FEFFFF" transform="matrix(1.00, 0.00, -0.00, -1.00, 512.5, 389.0)">e</text><text xml:space="preserve" font-family="Helvetica-Light" font-size="36.9" fill="#FEFFFF" transform="matrix(1.00, 0.00, -0.00, -1.00, 533.0, 389.0)">d</text><text xml:space="preserve" font-family="Helvetica-Light" font-size="36.9" fill="#FEFFFF" transform="matrix(1.00, 0.00, -0.00, -1.00, 555.5, 389.0)"> </text><text xml:space="preserve" font-family="Helvetica-Light" font-size="36.9" fill="#FEFFFF" transform="matrix(1.00, 0.00, -0.00, -1.00, 565.8, 389.0)">o</text><text xml:space="preserve" font-family="Helvetica-Light" font-size="36.9" fill="#FEFFFF" transform="matrix(1.00, 0.00, -0.00, -1.00, 586.3, 389.0)">r</text><text xml:space="preserve" font-family="Helvetica-Light" font-size="36.9" fill="#FEFFFF" transform="matrix(1.00, 0.00, -0.00, -1.00, 598.5, 389.0)"> </text><text xml:space="preserve" font-family="Helvetica-Light" font-size="36.9" fill="#FEFFFF" transform="matrix(1.00, 0.00, -0.00, -1.00, 608.8, 389.0)">h</text><text xml:space="preserve" font-family="Helvetica-Light" font-size="36.9" fill="#FEFFFF" transform="matrix(1.00, 0.00, -0.00, -1.00, 629.3, 389.0)">a</text><text xml:space="preserve" font-family="Helvetica-Light" font-size="36.9" fill="#FEFFFF" transform="matrix(1.00, 0.00, -0.00, -1.00, 649.8, 389.0)">v</text><text xml:space="preserve" font-family="Helvetica-Light" font-size="36.9" fill="#FEFFFF" transform="matrix(1.00, 0.00, -0.00, -1.00, 668.2, 389.0)">e</text><text xml:space="preserve" font-family="Helvetica-Light" font-size="36.9" fill="#FEFFFF" transform="matrix(1.00, 0.00, -0.00, -1.00, 688.7, 389.0)"> </text><text xml:space="preserve" font-family="Helvetica-Light" font-size="36.9" fill="#FEFFFF" transform="matrix(1.00, 0.00, -0.00, -1.00, 699.0, 389.0)">a</text><text xml:space="preserve" font-family="Helvetica-Light" font-size="36.9" fill="#FEFFFF" transform="matrix(1.00, 0.00, -0.00, -1.00, 719.5, 389.0)"> </text><text xml:space="preserve" font-family="Helvetica-Light" font-size="36.9" fill="#FEFFFF" transform="matrix(1.00, 0.00, -0.00, -1.00, 729.7, 389.0)">r</text><text xml:space="preserve" font-family="Helvetica-Light" font-size="36.9" fill="#FEFFFF" transform="matrix(1.00, 0.00, -0.00, -1.00, 741.3, 389.0)">e</text><text xml:space="preserve" font-family="Helvetica-Light" font-size="36.9" fill="#FEFFFF" transform="matrix(1.00, 0.00, -0.00, -1.00, 761.8, 389.0)">g</text><text xml:space="preserve" font-family="Helvetica-Light" font-size="36.9" fill="#FEFFFF" transform="matrix(1.00, 0.00, -0.00, -1.00, 784.3, 389.0)">u</text><text xml:space="preserve" font-family="Helvetica-Light" font-size="36.9" fill="#FEFFFF" transform="matrix(1.00, 0.00, -0.00, -1.00, 804.8, 389.0)">l</text><text xml:space="preserve" font-family="Helvetica-Light" font-size="36.9" fill="#FEFFFF" transform="matrix(1.00, 0.00, -0.00, -1.00, 813.0, 389.0)">a</text><text xml:space="preserve" font-family="Helvetica-Light" font-size="36.9" fill="#FEFFFF" transform="matrix(1.00, 0.00, -0.00, -1.00, 833.5, 389.0)">r</text><text xml:space="preserve" font-family="Helvetica-Light" font-size="36.9" fill="#FEFFFF" transform="matrix(1.00, 0.00, -0.00, -1.00, 845.8, 389.0)"> </text><text xml:space="preserve" font-family="Helvetica-Light" font-size="36.9" fill="#FEFFFF" transform="matrix(1.00, 0.00, -0.00, -1.00, 150.0, 346.0)">f</text><text xml:space="preserve" font-family="Helvetica-Light" font-size="36.9" fill="#FEFFFF" transform="matrix(1.00, 0.00, -0.00, -1.00, 160.2, 346.0)">o</text><text xml:space="preserve" font-family="Helvetica-Light" font-size="36.9" fill="#FEFFFF" transform="matrix(1.00, 0.00, -0.00, -1.00, 180.7, 346.0)">r</text><text xml:space="preserve" font-family="Helvetica-Light" font-size="36.9" fill="#FEFFFF" transform="matrix(1.00, 0.00, -0.00, -1.00, 193.7, 346.0)">m</text><text xml:space="preserve" font-family="Helvetica-Light" font-size="36.9" fill="#FEFFFF" transform="matrix(1.00, 0.00, -0.00, -1.00, 224.4, 346.0)">a</text><text xml:space="preserve" font-family="Helvetica-Light" font-size="36.9" fill="#FEFFFF" transform="matrix(1.00, 0.00, -0.00, -1.00, 244.9, 346.0)">t</text><text xml:space="preserve" font-family="Helvetica-Light" font-size="36.9" fill="#FEFFFF" transform="matrix(1.00, 0.00, -0.00, -1.00, 255.1, 346.0)">:</text><text xml:space="preserve" font-family="Helvetica-Light" font-size="36.9" fill="#FEFFFF" transform="matrix(1.00, 0.00, -0.00, -1.00, 265.4, 346.0)"> </text><text xml:space="preserve" font-family="Helvetica-Light" font-size="36.9" fill="#FEFFFF" transform="matrix(1.00, 0.00, -0.00, -1.00, 275.6, 346.0)">w</text><text xml:space="preserve" font-family="Helvetica-Light" font-size="36.9" fill="#FEFFFF" transform="matrix(1.00, 0.00, -0.00, -1.00, 302.2, 346.0)">h</text><text xml:space="preserve" font-family="Helvetica-Light" font-size="36.9" fill="#FEFFFF" transform="matrix(1.00, 0.00, -0.00, -1.00, 322.7, 346.0)">a</text><text xml:space="preserve" font-family="Helvetica-Light" font-size="36.9" fill="#FEFFFF" transform="matrix(1.00, 0.00, -0.00, -1.00, 343.2, 346.0)">t</text><text xml:space="preserve" font-family="Helvetica-Light" font-size="36.9" fill="#FEFFFF" transform="matrix(1.00, 0.00, -0.00, -1.00, 353.5, 346.0)"> </text><text xml:space="preserve" font-family="Helvetica-Light" font-size="36.9" fill="#FEFFFF" transform="matrix(1.00, 0.00, -0.00, -1.00, 363.7, 346.0)">d</text><text xml:space="preserve" font-family="Helvetica-Light" font-size="36.9" fill="#FEFFFF" transform="matrix(1.00, 0.00, -0.00, -1.00, 386.2, 346.0)">o</text><text xml:space="preserve" font-family="Helvetica-Light" font-size="36.9" fill="#FEFFFF" transform="matrix(1.00, 0.00, -0.00, -1.00, 406.7, 346.0)">e</text><text xml:space="preserve" font-family="Helvetica-Light" font-size="36.9" fill="#FEFFFF" transform="matrix(1.00, 0.00, -0.00, -1.00, 427.2, 346.0)">s</text><text xml:space="preserve" font-family="Helvetica-Light" font-size="36.9" fill="#FEFFFF" transform="matrix(1.00, 0.00, -0.00, -1.00, 445.7, 346.0)"> </text><text xml:space="preserve" font-family="Helvetica-Light" font-size="36.9" fill="#FEFFFF" transform="matrix(1.00, 0.00, -0.00, -1.00, 455.9, 346.0)">“</text><text xml:space="preserve" font-family="Helvetica-Light" font-size="36.9" fill="#FEFFFF" transform="matrix(1.00, 0.00, -0.00, -1.00, 470.2, 346.0)">0</text><text xml:space="preserve" font-family="Helvetica-Light" font-size="36.9" fill="#FEFFFF" transform="matrix(1.00, 0.00, -0.00, -1.00, 490.7, 346.0)">9</text><text xml:space="preserve" font-family="Helvetica-Light" font-size="36.9" fill="#FEFFFF" transform="matrix(1.00, 0.00, -0.00, -1.00, 511.2, 346.0)">/</text><text xml:space="preserve" font-family="Helvetica-Light" font-size="36.9" fill="#FEFFFF" transform="matrix(1.00, 0.00, -0.00, -1.00, 521.5, 346.0)">1</text><text xml:space="preserve" font-family="Helvetica-Light" font-size="36.9" fill="#FEFFFF" transform="matrix(1.00, 0.00, -0.00, -1.00, 542.0, 346.0)">0</text><text xml:space="preserve" font-family="Helvetica-Light" font-size="36.9" fill="#FEFFFF" transform="matrix(1.00, 0.00, -0.00, -1.00, 562.5, 346.0)">/</text><text xml:space="preserve" font-family="Helvetica-Light" font-size="36.9" fill="#FEFFFF" transform="matrix(1.00, 0.00, -0.00, -1.00, 572.7, 346.0)">2</text><text xml:space="preserve" font-family="Helvetica-Light" font-size="36.9" fill="#FEFFFF" transform="matrix(1.00, 0.00, -0.00, -1.00, 593.2, 346.0)">0</text><text xml:space="preserve" font-family="Helvetica-Light" font-size="36.9" fill="#FEFFFF" transform="matrix(1.00, 0.00, -0.00, -1.00, 613.7, 346.0)">1</text><text xml:space="preserve" font-family="Helvetica-Light" font-size="36.9" fill="#FEFFFF" transform="matrix(1.00, 0.00, -0.00, -1.00, 634.2, 346.0)">6</text><text xml:space="preserve" font-family="Helvetica-Light" font-size="36.9" fill="#FEFFFF" transform="matrix(1.00, 0.00, -0.00, -1.00, 654.7, 346.0)">”</text><text xml:space="preserve" font-family="Helvetica-Light" font-size="36.9" fill="#FEFFFF" transform="matrix(1.00, 0.00, -0.00, -1.00, 669.0, 346.0)"> </text><text xml:space="preserve" font-family="Helvetica-Light" font-size="36.9" fill="#FEFFFF" transform="matrix(1.00, 0.00, -0.00, -1.00, 679.3, 346.0)">m</text><text xml:space="preserve" font-family="Helvetica-Light" font-size="36.9" fill="#FEFFFF" transform="matrix(1.00, 0.00, -0.00, -1.00, 710.0, 346.0)">e</text><text xml:space="preserve" font-family="Helvetica-Light" font-size="36.9" fill="#FEFFFF" transform="matrix(1.00, 0.00, -0.00, -1.00, 730.5, 346.0)">a</text><text xml:space="preserve" font-family="Helvetica-Light" font-size="36.9" fill="#FEFFFF" transform="matrix(1.00, 0.00, -0.00, -1.00, 751.0, 346.0)">n</text><text xml:space="preserve" font-family="Helvetica-Light" font-size="36.9" fill="#FEFFFF" transform="matrix(1.00, 0.00, -0.00, -1.00, 771.5, 346.0)">?</text><text xml:space="preserve" font-family="Helvetica-Light" font-size="36.9" fill="#FEFFFF" transform="matrix(1.00, 0.00, -0.00, -1.00, 789.9, 346.0)"> </text><text xml:space="preserve" font-family="Helvetica-Light" font-size="27.6" fill="#FEFFFF" transform="matrix(1.00, 0.00, -0.00, -1.00, 115.0, 265.4)">•</text><text xml:space="preserve" font-family="Helvetica-Light" font-size="36.9" fill="#FEFFFF" transform="matrix(1.00, 0.00, -0.00, -1.00, 150.0, 262.0)">C</text><text xml:space="preserve" font-family="Helvetica-Light" font-size="36.9" fill="#FEFFFF" transform="matrix(1.00, 0.00, -0.00, -1.00, 176.6, 262.0)">e</text><text xml:space="preserve" font-family="Helvetica-Light" font-size="36.9" fill="#FEFFFF" transform="matrix(1.00, 0.00, -0.00, -1.00, 197.1, 262.0)">l</text><text xml:space="preserve" font-family="Helvetica-Light" font-size="36.9" fill="#FEFFFF" transform="matrix(1.00, 0.00, -0.00, -1.00, 205.3, 262.0)">l</text><text xml:space="preserve" font-family="Helvetica-Light" font-size="36.9" fill="#FEFFFF" transform="matrix(1.00, 0.00, -0.00, -1.00, 213.5, 262.0)">s</text><text xml:space="preserve" font-family="Helvetica-Light" font-size="36.9" fill="#FEFFFF" transform="matrix(1.00, 0.00, -0.00, -1.00, 231.9, 262.0)"> </text><text xml:space="preserve" font-family="Helvetica-Light" font-size="36.9" fill="#FEFFFF" transform="matrix(1.00, 0.00, -0.00, -1.00, 242.1, 262.0)">m</text><text xml:space="preserve" font-family="Helvetica-Light" font-size="36.9" fill="#FEFFFF" transform="matrix(1.00, 0.00, -0.00, -1.00, 272.9, 262.0)">a</text><text xml:space="preserve" font-family="Helvetica-Light" font-size="36.9" fill="#FEFFFF" transform="matrix(1.00, 0.00, -0.00, -1.00, 293.3, 262.0)">y</text><text xml:space="preserve" font-family="Helvetica-Light" font-size="36.9" fill="#FEFFFF" transform="matrix(1.00, 0.00, -0.00, -1.00, 311.8, 262.0)"> </text><text xml:space="preserve" font-family="Helvetica-Light" font-size="36.9" fill="#FEFFFF" transform="matrix(1.00, 0.00, -0.00, -1.00, 322.0, 262.0)">b</text><text xml:space="preserve" font-family="Helvetica-Light" font-size="36.9" fill="#FEFFFF" transform="matrix(1.00, 0.00, -0.00, -1.00, 344.5, 262.0)">e</text><text xml:space="preserve" font-family="Helvetica-Light" font-size="36.9" fill="#FEFFFF" transform="matrix(1.00, 0.00, -0.00, -1.00, 365.0, 262.0)"> </text><text xml:space="preserve" font-family="Helvetica-Light" font-size="36.9" fill="#FEFFFF" transform="matrix(1.00, 0.00, -0.00, -1.00, 375.3, 262.0)">r</text><text xml:space="preserve" font-family="Helvetica-Light" font-size="36.9" fill="#FEFFFF" transform="matrix(1.00, 0.00, -0.00, -1.00, 386.9, 262.0)">e</text><text xml:space="preserve" font-family="Helvetica-Light" font-size="36.9" fill="#FEFFFF" transform="matrix(1.00, 0.00, -0.00, -1.00, 407.4, 262.0)">l</text><text xml:space="preserve" font-family="Helvetica-Light" font-size="36.9" fill="#FEFFFF" transform="matrix(1.00, 0.00, -0.00, -1.00, 415.6, 262.0)">a</text><text xml:space="preserve" font-family="Helvetica-Light" font-size="36.9" fill="#FEFFFF" transform="matrix(1.00, 0.00, -0.00, -1.00, 436.1, 262.0)">t</text><text xml:space="preserve" font-family="Helvetica-Light" font-size="36.9" fill="#FEFFFF" transform="matrix(1.00, 0.00, -0.00, -1.00, 446.3, 262.0)">e</text><text xml:space="preserve" font-family="Helvetica-Light" font-size="36.9" fill="#FEFFFF" transform="matrix(1.00, 0.00, -0.00, -1.00, 466.8, 262.0)">d</text><text xml:space="preserve" font-family="Helvetica-Light" font-size="36.9" fill="#FEFFFF" transform="matrix(1.00, 0.00, -0.00, -1.00, 489.3, 262.0)"> </text><text xml:space="preserve" font-family="Helvetica-Light" font-size="36.9" fill="#FEFFFF" transform="matrix(1.00, 0.00, -0.00, -1.00, 499.6, 262.0)">t</text><text xml:space="preserve" font-family="Helvetica-Light" font-size="36.9" fill="#FEFFFF" transform="matrix(1.00, 0.00, -0.00, -1.00, 509.8, 262.0)">o</text><text xml:space="preserve" font-family="Helvetica-Light" font-size="36.9" fill="#FEFFFF" transform="matrix(1.00, 0.00, -0.00, -1.00, 530.3, 262.0)"> </text><text xml:space="preserve" font-family="Helvetica-Light" font-size="36.9" fill="#FEFFFF" transform="matrix(1.00, 0.00, -0.00, -1.00, 540.6, 262.0)">d</text><text xml:space="preserve" font-family="Helvetica-Light" font-size="36.9" fill="#FEFFFF" transform="matrix(1.00, 0.00, -0.00, -1.00, 563.1, 262.0)">a</text><text xml:space="preserve" font-family="Helvetica-Light" font-size="36.9" fill="#FEFFFF" transform="matrix(1.00, 0.00, -0.00, -1.00, 583.6, 262.0)">t</text><text xml:space="preserve" font-family="Helvetica-Light" font-size="36.9" fill="#FEFFFF" transform="matrix(1.00, 0.00, -0.00, -1.00, 593.8, 262.0)">a</text><text xml:space="preserve" font-family="Helvetica-Light" font-size="36.9" fill="#FEFFFF" transform="matrix(1.00, 0.00, -0.00, -1.00, 614.3, 262.0)"> </text><text xml:space="preserve" font-family="Helvetica-Light" font-size="36.9" fill="#FEFFFF" transform="matrix(1.00, 0.00, -0.00, -1.00, 624.6, 262.0)">i</text><text xml:space="preserve" font-family="Helvetica-Light" font-size="36.9" fill="#FEFFFF" transform="matrix(1.00, 0.00, -0.00, -1.00, 632.8, 262.0)">n</text><text xml:space="preserve" font-family="Helvetica-Light" font-size="36.9" fill="#FEFFFF" transform="matrix(1.00, 0.00, -0.00, -1.00, 653.2, 262.0)"> </text><text xml:space="preserve" font-family="Helvetica-Light" font-size="36.9" fill="#FEFFFF" transform="matrix(1.00, 0.00, -0.00, -1.00, 663.5, 262.0)">o</text><text xml:space="preserve" font-family="Helvetica-Light" font-size="36.9" fill="#FEFFFF" transform="matrix(1.00, 0.00, -0.00, -1.00, 684.0, 262.0)">t</text><text xml:space="preserve" font-family="Helvetica-Light" font-size="36.9" fill="#FEFFFF" transform="matrix(1.00, 0.00, -0.00, -1.00, 694.2, 262.0)">h</text><text xml:space="preserve" font-family="Helvetica-Light" font-size="36.9" fill="#FEFFFF" transform="matrix(1.00, 0.00, -0.00, -1.00, 714.7, 262.0)">e</text><text xml:space="preserve" font-family="Helvetica-Light" font-size="36.9" fill="#FEFFFF" transform="matrix(1.00, 0.00, -0.00, -1.00, 735.2, 262.0)">r</text><text xml:space="preserve" font-family="Helvetica-Light" font-size="36.9" fill="#FEFFFF" transform="matrix(1.00, 0.00, -0.00, -1.00, 747.5, 262.0)"> </text><text xml:space="preserve" font-family="Helvetica-Light" font-size="36.9" fill="#FEFFFF" transform="matrix(1.00, 0.00, -0.00, -1.00, 757.7, 262.0)">t</text><text xml:space="preserve" font-family="Helvetica-Light" font-size="36.9" fill="#FEFFFF" transform="matrix(1.00, 0.00, -0.00, -1.00, 768.0, 262.0)">a</text><text xml:space="preserve" font-family="Helvetica-Light" font-size="36.9" fill="#FEFFFF" transform="matrix(1.00, 0.00, -0.00, -1.00, 788.5, 262.0)">b</text><text xml:space="preserve" font-family="Helvetica-Light" font-size="36.9" fill="#FEFFFF" transform="matrix(1.00, 0.00, -0.00, -1.00, 811.0, 262.0)">l</text><text xml:space="preserve" font-family="Helvetica-Light" font-size="36.9" fill="#FEFFFF" transform="matrix(1.00, 0.00, -0.00, -1.00, 819.2, 262.0)">e</text><text xml:space="preserve" font-family="Helvetica-Light" font-size="36.9" fill="#FEFFFF" transform="matrix(1.00, 0.00, -0.00, -1.00, 839.7, 262.0)">s</text><text xml:space="preserve" font-family="Helvetica-Light" font-size="36.9" fill="#FEFFFF" transform="matrix(1.00, 0.00, -0.00, -1.00, 858.1, 262.0)">/</text><text xml:space="preserve" font-family="Helvetica-Light" font-size="36.9" fill="#FEFFFF" transform="matrix(1.00, 0.00, -0.00, -1.00, 150.0, 219.0)">c</text><text xml:space="preserve" font-family="Helvetica-Light" font-size="36.9" fill="#FEFFFF" transform="matrix(1.00, 0.00, -0.00, -1.00, 170.5, 219.0)">o</text><text xml:space="preserve" font-family="Helvetica-Light" font-size="36.9" fill="#FEFFFF" transform="matrix(1.00, 0.00, -0.00, -1.00, 191.0, 219.0)">l</text><text xml:space="preserve" font-family="Helvetica-Light" font-size="36.9" fill="#FEFFFF" transform="matrix(1.00, 0.00, -0.00, -1.00, 199.2, 219.0)">u</text><text xml:space="preserve" font-family="Helvetica-Light" font-size="36.9" fill="#FEFFFF" transform="matrix(1.00, 0.00, -0.00, -1.00, 219.7, 219.0)">m</text><text xml:space="preserve" font-family="Helvetica-Light" font-size="36.9" fill="#FEFFFF" transform="matrix(1.00, 0.00, -0.00, -1.00, 250.4, 219.0)">n</text><text xml:space="preserve" font-family="Helvetica-Light" font-size="36.9" fill="#FEFFFF" transform="matrix(1.00, 0.00, -0.00, -1.00, 270.9, 219.0)">s</text><text xml:space="preserve" font-family="Helvetica-Light" font-size="36.9" fill="#FEFFFF" transform="matrix(1.00, 0.00, -0.00, -1.00, 289.3, 219.0)">:</text><text xml:space="preserve" font-family="Helvetica-Light" font-size="36.9" fill="#FEFFFF" transform="matrix(1.00, 0.00, -0.00, -1.00, 299.5, 219.0)"> </text><text xml:space="preserve" font-family="Helvetica-Light" font-size="36.9" fill="#FEFFFF" transform="matrix(1.00, 0.00, -0.00, -1.00, 309.8, 219.0)">F</text><text xml:space="preserve" font-family="Helvetica-Light" font-size="36.9" fill="#FEFFFF" transform="matrix(1.00, 0.00, -0.00, -1.00, 330.3, 219.0)">o</text><text xml:space="preserve" font-family="Helvetica-Light" font-size="36.9" fill="#FEFFFF" transform="matrix(1.00, 0.00, -0.00, -1.00, 350.8, 219.0)">r</text><text xml:space="preserve" font-family="Helvetica-Light" font-size="36.9" fill="#FEFFFF" transform="matrix(1.00, 0.00, -0.00, -1.00, 362.4, 219.0)">e</text><text xml:space="preserve" font-family="Helvetica-Light" font-size="36.9" fill="#FEFFFF" transform="matrix(1.00, 0.00, -0.00, -1.00, 382.9, 219.0)">i</text><text xml:space="preserve" font-family="Helvetica-Light" font-size="36.9" fill="#FEFFFF" transform="matrix(1.00, 0.00, -0.00, -1.00, 391.1, 219.0)">g</text><text xml:space="preserve" font-family="Helvetica-Light" font-size="36.9" fill="#FEFFFF" transform="matrix(1.00, 0.00, -0.00, -1.00, 413.6, 219.0)">n</text><text xml:space="preserve" font-family="Helvetica-Light" font-size="36.9" fill="#FEFFFF" transform="matrix(1.00, 0.00, -0.00, -1.00, 434.1, 219.0)"> </text><text xml:space="preserve" font-family="Helvetica-Light" font-size="36.9" fill="#FEFFFF" transform="matrix(1.00, 0.00, -0.00, -1.00, 444.3, 219.0)">K</text><text xml:space="preserve" font-family="Helvetica-Light" font-size="36.9" fill="#FEFFFF" transform="matrix(1.00, 0.00, -0.00, -1.00, 468.9, 219.0)">e</text><text xml:space="preserve" font-family="Helvetica-Light" font-size="36.9" fill="#FEFFFF" transform="matrix(1.00, 0.00, -0.00, -1.00, 489.4, 219.0)">y</text><text xml:space="preserve" font-family="Helvetica-Light" font-size="36.9" fill="#FEFFFF" transform="matrix(1.00, 0.00, -0.00, -1.00, 507.8, 219.0)">s</text><text xml:space="preserve" font-family="Helvetica-Light" font-size="36.9" fill="#FEFFFF" transform="matrix(1.00, 0.00, -0.00, -1.00, 526.3, 219.0)"> </text><text xml:space="preserve" font-family="Helvetica-Light" font-size="27.6" fill="#FEFFFF" transform="matrix(1.00, 0.00, -0.00, -1.00, 115.0, 138.6)">•</text><text xml:space="preserve" font-family="Helvetica-Light" font-size="36.9" fill="#FEFFFF" transform="matrix(1.00, 0.00, -0.00, -1.00, 150.0, 135.0)">C</text><text xml:space="preserve" font-family="Helvetica-Light" font-size="36.9" fill="#FEFFFF" transform="matrix(1.00, 0.00, -0.00, -1.00, 176.6, 135.0)">e</text><text xml:space="preserve" font-family="Helvetica-Light" font-size="36.9" fill="#FEFFFF" transform="matrix(1.00, 0.00, -0.00, -1.00, 197.1, 135.0)">l</text><text xml:space="preserve" font-family="Helvetica-Light" font-size="36.9" fill="#FEFFFF" transform="matrix(1.00, 0.00, -0.00, -1.00, 205.3, 135.0)">l</text><text xml:space="preserve" font-family="Helvetica-Light" font-size="36.9" fill="#FEFFFF" transform="matrix(1.00, 0.00, -0.00, -1.00, 213.5, 135.0)">s</text><text xml:space="preserve" font-family="Helvetica-Light" font-size="36.9" fill="#FEFFFF" transform="matrix(1.00, 0.00, -0.00, -1.00, 231.9, 135.0)"> </text><text xml:space="preserve" font-family="Helvetica-Light" font-size="36.9" fill="#FEFFFF" transform="matrix(1.00, 0.00, -0.00, -1.00, 242.1, 135.0)">m</text><text xml:space="preserve" font-family="Helvetica-Light" font-size="36.9" fill="#FEFFFF" transform="matrix(1.00, 0.00, -0.00, -1.00, 272.9, 135.0)">a</text><text xml:space="preserve" font-family="Helvetica-Light" font-size="36.9" fill="#FEFFFF" transform="matrix(1.00, 0.00, -0.00, -1.00, 293.3, 135.0)">y</text><text xml:space="preserve" font-family="Helvetica-Light" font-size="36.9" fill="#FEFFFF" transform="matrix(1.00, 0.00, -0.00, -1.00, 311.8, 135.0)"> </text><text xml:space="preserve" font-family="Helvetica-Light" font-size="36.9" fill="#FEFFFF" transform="matrix(1.00, 0.00, -0.00, -1.00, 322.0, 135.0)">b</text><text xml:space="preserve" font-family="Helvetica-Light" font-size="36.9" fill="#FEFFFF" transform="matrix(1.00, 0.00, -0.00, -1.00, 344.5, 135.0)">e</text><text xml:space="preserve" font-family="Helvetica-Light" font-size="36.9" fill="#FEFFFF" transform="matrix(1.00, 0.00, -0.00, -1.00, 365.0, 135.0)"> </text><text xml:space="preserve" font-family="Helvetica-Light" font-size="36.9" fill="#FEFFFF" transform="matrix(1.00, 0.00, -0.00, -1.00, 375.3, 135.0)">a</text><text xml:space="preserve" font-family="Helvetica-Light" font-size="36.9" fill="#FEFFFF" transform="matrix(1.00, 0.00, -0.00, -1.00, 395.8, 135.0)">s</text><text xml:space="preserve" font-family="Helvetica-Light" font-size="36.9" fill="#FEFFFF" transform="matrix(1.00, 0.00, -0.00, -1.00, 414.2, 135.0)">s</text><text xml:space="preserve" font-family="Helvetica-Light" font-size="36.9" fill="#FEFFFF" transform="matrix(1.00, 0.00, -0.00, -1.00, 432.6, 135.0)">o</text><text xml:space="preserve" font-family="Helvetica-Light" font-size="36.9" fill="#FEFFFF" transform="matrix(1.00, 0.00, -0.00, -1.00, 453.1, 135.0)">c</text><text xml:space="preserve" font-family="Helvetica-Light" font-size="36.9" fill="#FEFFFF" transform="matrix(1.00, 0.00, -0.00, -1.00, 473.6, 135.0)">i</text><text xml:space="preserve" font-family="Helvetica-Light" font-size="36.9" fill="#FEFFFF" transform="matrix(1.00, 0.00, -0.00, -1.00, 481.8, 135.0)">a</text><text xml:space="preserve" font-family="Helvetica-Light" font-size="36.9" fill="#FEFFFF" transform="matrix(1.00, 0.00, -0.00, -1.00, 502.3, 135.0)">t</text><text xml:space="preserve" font-family="Helvetica-Light" font-size="36.9" fill="#FEFFFF" transform="matrix(1.00, 0.00, -0.00, -1.00, 512.6, 135.0)">e</text><text xml:space="preserve" font-family="Helvetica-Light" font-size="36.9" fill="#FEFFFF" transform="matrix(1.00, 0.00, -0.00, -1.00, 533.0, 135.0)">d</text><text xml:space="preserve" font-family="Helvetica-Light" font-size="36.9" fill="#FEFFFF" transform="matrix(1.00, 0.00, -0.00, -1.00, 555.6, 135.0)"> </text><text xml:space="preserve" font-family="Helvetica-Light" font-size="36.9" fill="#FEFFFF" transform="matrix(1.00, 0.00, -0.00, -1.00, 565.8, 135.0)">w</text><text xml:space="preserve" font-family="Helvetica-Light" font-size="36.9" fill="#FEFFFF" transform="matrix(1.00, 0.00, -0.00, -1.00, 592.4, 135.0)">i</text><text xml:space="preserve" font-family="Helvetica-Light" font-size="36.9" fill="#FEFFFF" transform="matrix(1.00, 0.00, -0.00, -1.00, 600.6, 135.0)">t</text><text xml:space="preserve" font-family="Helvetica-Light" font-size="36.9" fill="#FEFFFF" transform="matrix(1.00, 0.00, -0.00, -1.00, 610.9, 135.0)">h</text><text xml:space="preserve" font-family="Helvetica-Light" font-size="36.9" fill="#FEFFFF" transform="matrix(1.00, 0.00, -0.00, -1.00, 631.4, 135.0)"> </text><text xml:space="preserve" font-family="Helvetica-Light" font-size="36.9" fill="#FEFFFF" transform="matrix(1.00, 0.00, -0.00, -1.00, 641.6, 135.0)">d</text><text xml:space="preserve" font-family="Helvetica-Light" font-size="36.9" fill="#FEFFFF" transform="matrix(1.00, 0.00, -0.00, -1.00, 664.1, 135.0)">i</text><text xml:space="preserve" font-family="Helvetica-Light" font-size="36.9" fill="#FEFFFF" transform="matrix(1.00, 0.00, -0.00, -1.00, 672.3, 135.0)">f</text><text xml:space="preserve" font-family="Helvetica-Light" font-size="36.9" fill="#FEFFFF" transform="matrix(1.00, 0.00, -0.00, -1.00, 681.9, 135.0)">f</text><text xml:space="preserve" font-family="Helvetica-Light" font-size="36.9" fill="#FEFFFF" transform="matrix(1.00, 0.00, -0.00, -1.00, 692.1, 135.0)">e</text><text xml:space="preserve" font-family="Helvetica-Light" font-size="36.9" fill="#FEFFFF" transform="matrix(1.00, 0.00, -0.00, -1.00, 712.6, 135.0)">r</text><text xml:space="preserve" font-family="Helvetica-Light" font-size="36.9" fill="#FEFFFF" transform="matrix(1.00, 0.00, -0.00, -1.00, 724.2, 135.0)">e</text><text xml:space="preserve" font-family="Helvetica-Light" font-size="36.9" fill="#FEFFFF" transform="matrix(1.00, 0.00, -0.00, -1.00, 744.7, 135.0)">n</text><text xml:space="preserve" font-family="Helvetica-Light" font-size="36.9" fill="#FEFFFF" transform="matrix(1.00, 0.00, -0.00, -1.00, 765.2, 135.0)">t</text><text xml:space="preserve" font-family="Helvetica-Light" font-size="36.9" fill="#FEFFFF" transform="matrix(1.00, 0.00, -0.00, -1.00, 775.5, 135.0)"> </text><text xml:space="preserve" font-family="Helvetica-Light" font-size="36.9" fill="#FEFFFF" transform="matrix(1.00, 0.00, -0.00, -1.00, 785.7, 135.0)">e</text><text xml:space="preserve" font-family="Helvetica-Light" font-size="36.9" fill="#FEFFFF" transform="matrix(1.00, 0.00, -0.00, -1.00, 806.2, 135.0)">n</text><text xml:space="preserve" font-family="Helvetica-Light" font-size="36.9" fill="#FEFFFF" transform="matrix(1.00, 0.00, -0.00, -1.00, 826.7, 135.0)">t</text><text xml:space="preserve" font-family="Helvetica-Light" font-size="36.9" fill="#FEFFFF" transform="matrix(1.00, 0.00, -0.00, -1.00, 837.0, 135.0)">i</text><text xml:space="preserve" font-family="Helvetica-Light" font-size="36.9" fill="#FEFFFF" transform="matrix(1.00, 0.00, -0.00, -1.00, 845.1, 135.0)">t</text><text xml:space="preserve" font-family="Helvetica-Light" font-size="36.9" fill="#FEFFFF" transform="matrix(1.00, 0.00, -0.00, -1.00, 855.4, 135.0)">i</text><text xml:space="preserve" font-family="Helvetica-Light" font-size="36.9" fill="#FEFFFF" transform="matrix(1.00, 0.00, -0.00, -1.00, 863.6, 135.0)">e</text><text xml:space="preserve" font-family="Helvetica-Light" font-size="36.9" fill="#FEFFFF" transform="matrix(1.00, 0.00, -0.00, -1.00, 884.1, 135.0)">s</text><text xml:space="preserve" font-family="Helvetica-Light" font-size="36.9" fill="#FEFFFF" transform="matrix(1.00, 0.00, -0.00, -1.00, 902.5, 135.0)">:</text><text xml:space="preserve" font-family="Helvetica-Light" font-size="36.9" fill="#FEFFFF" transform="matrix(1.00, 0.00, -0.00, -1.00, 912.7, 135.0)"> </text><text xml:space="preserve" font-family="Helvetica-Light" font-size="36.9" fill="#FEFFFF" transform="matrix(1.00, 0.00, -0.00, -1.00, 150.0, 92.0)">J</text><text xml:space="preserve" font-family="Helvetica-Light" font-size="36.9" fill="#FEFFFF" transform="matrix(1.00, 0.00, -0.00, -1.00, 168.4, 92.0)">o</text><text xml:space="preserve" font-family="Helvetica-Light" font-size="36.9" fill="#FEFFFF" transform="matrix(1.00, 0.00, -0.00, -1.00, 188.9, 92.0)">i</text><text xml:space="preserve" font-family="Helvetica-Light" font-size="36.9" fill="#FEFFFF" transform="matrix(1.00, 0.00, -0.00, -1.00, 197.1, 92.0)">n</text><text xml:space="preserve" font-family="Helvetica-Light" font-size="36.9" fill="#FEFFFF" transform="matrix(1.00, 0.00, -0.00, -1.00, 217.6, 92.0)"> </text><text xml:space="preserve" font-family="Helvetica-Light" font-size="36.9" fill="#FEFFFF" transform="matrix(1.00, 0.00, -0.00, -1.00, 227.8, 92.0)">r</text><text xml:space="preserve" font-family="Helvetica-Light" font-size="36.9" fill="#FEFFFF" transform="matrix(1.00, 0.00, -0.00, -1.00, 239.5, 92.0)">e</text><text xml:space="preserve" font-family="Helvetica-Light" font-size="36.9" fill="#FEFFFF" transform="matrix(1.00, 0.00, -0.00, -1.00, 260.0, 92.0)">s</text><text xml:space="preserve" font-family="Helvetica-Light" font-size="36.9" fill="#FEFFFF" transform="matrix(1.00, 0.00, -0.00, -1.00, 278.4, 92.0)">u</text><text xml:space="preserve" font-family="Helvetica-Light" font-size="36.9" fill="#FEFFFF" transform="matrix(1.00, 0.00, -0.00, -1.00, 298.9, 92.0)">l</text><text xml:space="preserve" font-family="Helvetica-Light" font-size="36.9" fill="#FEFFFF" transform="matrix(1.00, 0.00, -0.00, -1.00, 307.1, 92.0)">t</text><text xml:space="preserve" font-family="Helvetica-Light" font-size="36.9" fill="#FEFFFF" transform="matrix(1.00, 0.00, -0.00, -1.00, 317.3, 92.0)">s</text><text xml:space="preserve" font-family="Helvetica-Light" font-size="18.0" fill="#FEFFFF" transform="matrix(1.00, 0.00, -0.00, -1.00, 506.0, 18.0)">2</text></g></svg>